<?xml version="1.0" encoding="utf-8"?>
<!-- Generator: Adobe Illustrator 22.1.0, SVG Export Plug-In . SVG Version: 6.00 Build 0)  -->
<svg version="1.1" id="Слой_1" xmlns="http://www.w3.org/2000/svg" xmlns:xlink="http://www.w3.org/1999/xlink" x="0px" y="0px"
	 viewBox="0 0 60 61.9" style="enable-background:new 0 0 60 61.9;" xml:space="preserve">
<style type="text/css">
	.st0{clip-path:url(#SVGID_2_);}
</style>
<g>
	<g>
		<defs>
			<rect id="SVGID_1_" width="60" height="61.9"/>
		</defs>
		<clipPath id="SVGID_2_">
			<use xlink:href="#SVGID_1_"  style="overflow:visible;"/>
		</clipPath>
		<path class="st0" d="M58.2,42c1.3-1.6,1.9-3.3,1.8-5.1c-0.1-2-1-3.5-1.7-4.4c0.8-2.1,1.2-5.4-1.6-7.9c-2.1-1.9-5.5-2.7-10.4-2.5
			c-3.4,0.2-6.2,0.8-6.3,0.8h0c-0.6,0.1-1.3,0.3-2,0.4c-0.1-0.8,0.1-2.9,1.6-7.5c1.8-5.5,1.7-9.7-0.3-12.5C37,0.3,33.6,0,32.6,0
			c-1,0-1.9,0.4-2.5,1.1c-1.4,1.7-1.3,4.7-1.1,6.2c-1.7,4.6-6.5,15.8-10.5,18.9c-0.1,0.1-0.1,0.1-0.2,0.2c-1.2,1.3-2,2.6-2.5,3.8
			c-0.8-0.4-1.6-0.6-2.6-0.6H5.4c-3,0-5.4,2.4-5.4,5.4v21c0,3,2.4,5.4,5.4,5.4h7.9c1.1,0,2.2-0.4,3.1-1l3,0.4
			c0.5,0.1,8.7,1.1,17.2,0.9c1.5,0.1,3,0.2,4.3,0.2c2.3,0,4.3-0.2,6-0.5c3.9-0.8,6.6-2.5,8-5c1-1.9,1-3.8,0.9-4.9
			c2.6-2.3,3-4.9,2.9-6.7C58.7,43.5,58.4,42.6,58.2,42L58.2,42z M5.4,57.8c-1,0-1.9-0.9-1.9-1.9v-21c0-1,0.9-1.9,1.9-1.9h7.9
			c1,0,1.9,0.9,1.9,1.9v21c0,1-0.9,1.9-1.9,1.9L5.4,57.8L5.4,57.8z M54.9,40.5c-0.5,0.6-0.6,1.4-0.2,2.1c0,0,0.5,0.9,0.6,2.2
			c0.1,1.7-0.7,3.2-2.4,4.5c-0.6,0.5-0.9,1.3-0.6,2c0,0,0.6,1.7-0.3,3.3c-0.9,1.5-2.8,2.7-5.7,3.3c-2.3,0.5-5.5,0.6-9.4,0.3h-0.2
			c-8.3,0.2-16.7-0.9-16.8-0.9h0L18.5,57c0.1-0.4,0.1-0.7,0.1-1.1v-21c0-0.6-0.1-1.1-0.2-1.6c0.2-0.9,0.9-2.8,2.4-4.4
			c5.8-4.6,11.5-20.1,11.7-20.8c0.1-0.3,0.1-0.6,0.1-0.9c-0.2-1.4-0.1-3.2,0.2-3.7c0.7,0,2.5,0.2,3.6,1.7c1.3,1.8,1.3,5.1-0.2,9.4
			c-2.2,6.6-2.3,10-0.6,11.5c0.9,0.8,2,0.8,2.8,0.5c0.8-0.2,1.5-0.3,2.2-0.5c0.1,0,0.1,0,0.2,0c4-0.9,11.1-1.4,13.5,0.9
			c2.1,1.9,0.6,4.4,0.4,4.7c-0.5,0.7-0.3,1.7,0.3,2.2c0,0,1.4,1.3,1.4,3C56.5,38.1,56,39.3,54.9,40.5L54.9,40.5z M54.9,40.5"/>
	</g>
</g>
</svg>
