<?xml version="1.0" encoding="UTF-8" standalone="no"?>
<svg
   xmlns:dc="http://purl.org/dc/elements/1.1/"
   xmlns:cc="http://creativecommons.org/ns#"
   xmlns:rdf="http://www.w3.org/1999/02/22-rdf-syntax-ns#"
   xmlns:svg="http://www.w3.org/2000/svg"
   xmlns="http://www.w3.org/2000/svg"
   xmlns:sodipodi="http://sodipodi.sourceforge.net/DTD/sodipodi-0.dtd"
   xmlns:inkscape="http://www.inkscape.org/namespaces/inkscape"
   viewBox="0 0 23.4 6.6069032"
   version="1.1"
   id="svg20"
   sodipodi:docname="bg_coco_pink.svg"
   width="23.4"
   height="6.6069031"
   inkscape:version="0.92.2 (5c3e80d, 2017-08-06)">
  <metadata
     id="metadata26">
    <rdf:RDF>
      <cc:Work
         rdf:about="">
        <dc:format>image/svg+xml</dc:format>
        <dc:type
           rdf:resource="http://purl.org/dc/dcmitype/StillImage" />
        <dc:title></dc:title>
      </cc:Work>
    </rdf:RDF>
  </metadata>
  <defs
     id="defs24" />
  <sodipodi:namedview
     pagecolor="#ffffff"
     bordercolor="#666666"
     borderopacity="1"
     objecttolerance="10"
     gridtolerance="10"
     guidetolerance="10"
     inkscape:pageopacity="0"
     inkscape:pageshadow="2"
     inkscape:window-width="1920"
     inkscape:window-height="1080"
     id="namedview22"
     showgrid="false"
     inkscape:pagecheckerboard="true"
     inkscape:zoom="45.254834"
     inkscape:cx="11.877391"
     inkscape:cy="3.1734341"
     inkscape:window-x="0"
     inkscape:window-y="0"
     inkscape:window-maximized="0"
     inkscape:current-layer="svg20" />
  <g
     id="g877"
     style="fill:#f29fc5;fill-opacity:1">
    <path
       style="fill:#f29fc5;fill-opacity:1"
       inkscape:connector-curvature="0"
       id="path2"
       d="m 1.9,4.0079031 c -0.3,0 -0.5,0 -0.8,0.1 -0.2,0.1 -0.4,0.2 -0.6,0.4 -0.2,0.2 -0.3,0.4 -0.4,0.6 -0.1,0.2 -0.1,0.5 -0.1,0.8 0.012,0.233 0.043,0.465 0.064,0.697 h 0.523 c -0.5,-0.4 -0.486,-1.197 0.114,-1.897 0.6,-0.7 1.398,-0.8 1.898,-0.4 0.6,0.5 0.701,1.2 0.301,1.8 -0.045,0.045 -0.234,0.287 -0.516,0.499 0.497,-0.002 0.965,-0.002 1.359,-0.006 0.058,-0.192 0.057,-0.442 0.057,-0.692 0,-0.3 0.1,-0.6 0,-0.9 -0.1,-0.2 -0.2,-0.4 -0.4,-0.6 -0.2,-0.1 -0.4,-0.301 -0.7,-0.301 -0.2,-0.1 -0.5,-0.1 -0.8,-0.1 z M 2.51,0.00290312 c -0.248,0.284 -0.652,0.734 -1.51,0.304 H 0.9 c -0.1,0 -0.1,-0.1 -0.2,-0.1 -0.1,-0.08 -0.12,-0.088 -0.187,-0.204 -0.136,0 -0.252,0.003 -0.347,0 0.014,0.07 0.008,0.025 0.035,0.105 0.1,0.2 0.198,0.4 0.398,0.6 0.2,0.2 0.402,0.29999998 0.602,0.39999998 H 2 c 0.3,0 0.5,0 0.8,-0.1 0.2,-0.1 0.4,-0.19999998 0.6,-0.39999998 0.2,-0.2 0.3,-0.4 0.4,-0.6 a 83.387,83.387 0 0 0 -1.29,-0.005 z" />
    <path
       style="fill:#f29fc5;fill-opacity:1"
       inkscape:connector-curvature="0"
       id="path4"
       class="st1"
       d="m 6,2.1079031 c 0,-0.7 0.5,-1.19999998 1.2,-1.19999998 h 0.2 c -0.2,-0.1 -0.4,-0.2 -0.6,-0.2 -0.6,0 -1,0.49999998 -1,0.99999998 0,0.3 0.1,0.5 0.3,0.7 -0.1,-0.1 -0.1,-0.2 -0.1,-0.3 z" />
    <path
       d="M 6.8007812,0.0078125 C 6.5007813,0.0078125 6.3,0.00742188 6,0.10742188 5.8,0.20742188 5.6003906,0.3078125 5.4003906,0.5078125 5.2003906,0.7078125 5.1,0.9074219 5,1.1074219 c -0.1,0.2 -0.099609,0.5007812 -0.099609,0.8007812 0,0.3 -3.906e-4,0.4988281 0.099609,0.7988281 0.1,0.2000001 0.2003906,0.4015626 0.4003906,0.6015626 0.2,0.2 0.3996094,0.2984374 0.5996094,0.3984374 0.2,0.1000001 0.5007813,0.1015626 0.8007812,0.1015626 0.3,0 0.4988282,-0.00156 0.7988282,-0.1015626 0.2,-0.1 0.3996094,-0.1984375 0.5996094,-0.3984374 0.1999999,-0.2000001 0.3003906,-0.4011719 0.4003906,-0.7011719 0.1,-0.2 0.099609,-0.4988282 0.099609,-0.7988281 0.1,-0.2 3.906e-4,-0.5011719 -0.099609,-0.7011719 -0.1,-0.2 -0.2003907,-0.3996094 -0.4003906,-0.5996094 -0.2000001,-0.2 -0.3996094,-0.30039062 -0.5996094,-0.40039062 -0.2,-0.1 -0.4988282,-0.09960938 -0.7988282,-0.09960938 z m 0.037109,0.16601562 C 7.0833984,0.17792969 7.3125,0.25820312 7.5,0.40820312 8.1,0.80820313 8.2007812,1.6070313 7.8007812,2.2070312 c -0.1,0.1000001 -0.9003906,1.2011719 -1.9003906,0.7011719 h -0.099609 c -0.1,0 -0.1011718,-0.099609 -0.2011718,-0.099609 -0.5,-0.4 -0.6,-1.3000001 0,-2.00000005 0.375,-0.4375 0.8291015,-0.64160156 1.2382812,-0.63476563 z M 11.699219,3.3085938 c -0.6,0 -1,0.5 -1,1 0,0.2393818 0.0836,0.4094198 0.210937,0.5722656 -0.0056,-0.047295 -0.0098,-0.097086 -0.0098,-0.1738282 0,-0.7 0.499218,-1.1992187 1.199218,-1.1992187 h 0.201172 c -0.2,-0.1 -0.401562,-0.1992187 -0.601562,-0.1992187 z m -0.789063,1.5722656 c 3.17e-4,0.00265 -3.53e-4,0.00721 0,0.00977 0.0026,-0.00216 0.0034,0.00131 0.0059,0 -0.0024,-0.003 -0.0035,-0.00675 -0.0059,-0.00977 z"
       style="fill:#f29fc5;fill-opacity:1"
       id="path6" />
    <path
       style="fill:#f29fc5;fill-opacity:1"
       inkscape:connector-curvature="0"
       id="path8"
       class="st1"
       d="m 13.5,3.7079031 c -0.1,-0.2 -0.2,-0.4 -0.4,-0.6 -0.2,-0.2 -0.4,-0.3 -0.6,-0.4 -0.2,-0.1 -0.5,-0.1 -0.8,-0.1 -0.3,0 -0.5,0 -0.8,0.1 -0.2,0.1 -0.4,0.2 -0.5,0.4 -0.2,0.2 -0.3,0.4 -0.4,0.6 -0.1,0.2 -0.1,0.5 -0.1,0.8 0,0.3 0,0.5 0.1,0.8 0.1,0.2 0.2,0.4 0.4,0.6 0.2,0.2 0.4,0.3 0.6,0.4 0.2,0.1 0.5,0.1 0.8,0.1 0.3,0 0.5,0 0.8,-0.1 0.3,-0.1 0.4,-0.2 0.6,-0.4 0.2,-0.2 0.3,-0.4 0.4,-0.6 0.1,-0.2 0.1,-0.5 0.1,-0.8 0,-0.3 -0.1,-0.6 -0.2,-0.8 z m -0.8,1.1 c -0.1,0.1 -0.9,1.2 -1.9,0.7 h -0.1 c -0.1,0 -0.1,-0.1 -0.2,-0.1 -0.5,-0.4 -0.6,-1.3 0,-2 0.6,-0.7 1.4,-0.8 1.9,-0.4 0.6,0.5 0.6,1.2 0.3,1.8 z" />
    <path
       style="fill:#f29fc5;fill-opacity:1"
       inkscape:connector-curvature="0"
       id="path10"
       d="m 16.6,6.0079031 c -0.487,0 -0.778,0.207 -0.895,0.597 h 0.396 c 0.205,-0.333 0.45,-0.397 0.899,-0.397 h 0.2 c -0.2,-0.1 -0.4,-0.2 -0.6,-0.2 z" />
    <path
       style="fill:#f29fc5;fill-opacity:1"
       inkscape:connector-curvature="0"
       id="path12"
       d="m 16.6,5.2079031 c -0.3,0 -0.5,0 -0.8,0.1 -0.2,0.1 -0.4,0.2 -0.6,0.4 -0.2,0.2 -0.3,0.4 -0.4,0.6 a 0.61,0.61 0 0 0 -0.078,0.297 h 0.368 c 0.064,-0.215 0.14,-0.299 0.31,-0.497 0.6,-0.7 1.4,-0.8 1.9,-0.4 0.378,0.252 0.506,0.482 0.483,0.897 h 0.713 c -0.024,-0.13 -0.044,-0.142 -0.096,-0.298 -0.1,-0.2 -0.2,-0.4 -0.4,-0.6 -0.2,-0.2 -0.4,-0.3 -0.6,-0.4 -0.2,-0.1 -0.5,-0.1 -0.8,-0.1 z M 15.697,0.00290312 c -0.091,0.155 -0.098,0.229 -0.098,0.406 0,0.3 0.101,0.499 0.301,0.69899998 -0.1,-0.1 -0.1,-0.19999998 -0.1,-0.29999998 0.084,-0.276 0.194,-0.542 0.309,-0.805 z" />
    <path
       style="fill:#f29fc5;fill-opacity:1"
       inkscape:connector-curvature="0"
       id="path14"
       d="m 17.793,0.00290312 c 0.046,0.348 -0.03,0.58 -0.194,0.906 -0.1,0.1 -0.898,1.19899998 -1.898,0.69899998 h -0.102 c -0.1,0 -0.099,-0.1 -0.199,-0.1 -0.414,-0.331 -0.607,-0.88499998 -0.3,-1.50499998 -0.129,-0.006 -0.253,-0.001 -0.362,0 -0.07,0.197 -0.037,0.338 -0.037,0.605 0,0.3 0,0.49999998 0.1,0.79999998 0.1,0.2 0.2,0.4 0.4,0.6 0.2,0.1 0.399,0.2 0.699,0.3 0.2,0.1 0.5,0.1 0.8,0.1 0.3,0 0.5,0 0.8,-0.1 0.2,-0.1 0.4,-0.2 0.6,-0.4 0.2,-0.2 0.3,-0.4 0.4,-0.6 0.1,-0.2 0.1,-0.49999998 0.1,-0.79999998 0,-0.294 0.017,-0.308 -0.08,-0.505 z" />
    <path
       style="fill:#f29fc5;fill-opacity:1"
       inkscape:connector-curvature="0"
       id="path16"
       class="st1"
       d="m 20.6,3.4079031 c 0,-0.7 0.5,-1.2 1.2,-1.2 H 22 c -0.1,-0.1 -0.3,-0.2 -0.6,-0.2 -0.6,0 -1,0.5 -1,1 0,0.3 0.1,0.5 0.3,0.7 0,0 -0.1,-0.2 -0.1,-0.3 z" />
    <path
       inkscape:connector-curvature="0"
       style="fill:#f29fc5;fill-opacity:1"
       d="m 21.499609,1.3071219 c -0.3,0 -0.498828,0.00156 -0.798828,0.1015624 -0.2,0.1000001 -0.401562,0.1984376 -0.601562,0.3984376 -0.2,0.2 -0.298438,0.4015625 -0.398438,0.6015624 -0.1,0.2000001 -0.101562,0.4988282 -0.101562,0.7988282 0,0.3 0.0016,0.5007812 0.101562,0.8007812 0.1,0.2 0.198438,0.3996094 0.398438,0.5996094 0.2,0.2 0.401562,0.3003906 0.601562,0.4003906 0.3,0 0.498828,0.099609 0.798828,0.099609 0.3,0 0.500782,3.902e-4 0.800782,-0.099609 0.3,-0.1 0.399609,-0.2003906 0.599609,-0.4003906 0.2,-0.2 0.300391,-0.3996094 0.400391,-0.5996094 0.1,-0.2 0.09961,-0.5007812 0.09961,-0.8007812 0,-0.3 3.92e-4,-0.5988282 -0.09961,-0.7988282 -0.1,-0.2 -0.20039,-0.4015625 -0.40039,-0.6015624 -0.2,-0.2000002 -0.399609,-0.2984374 -0.599609,-0.3984376 -0.2,-0.1 -0.500782,-0.1015625 -0.800782,-0.1015624 z m 0.03711,0.1679687 c 0.245508,0.0041 0.476562,0.082422 0.664062,0.2324219 0.5,0.5 0.599219,1.2007812 0.199219,1.8007812 -0.1,0.1 -0.900391,1.1992188 -1.900391,0.6992188 H 20.4 c 0,0 3.91e-4,-0.099609 -0.09961,-0.099609 -0.5,-0.4 -0.6,-1.3 0,-2 0.375,-0.4375 0.827148,-0.6396484 1.236328,-0.6328125 z"
       id="path18" />
    <path
       d="m 1.0627233,6.0278016 c 0,-0.7 0.5,-1.2 1.2,-1.2 h 0.2 c -0.2,-0.1 -0.4,-0.2 -0.6,-0.2 -0.6,0 -1.00000002,0.5 -1.00000002,1 0,0.3 0.1,0.5 0.30000002,0.7 -0.1,-0.1 -0.1,-0.2 -0.1,-0.3 z"
       class="st1"
       id="path858"
       inkscape:connector-curvature="0"
       style="fill:#f29fc5;fill-opacity:1" />
  </g>
</svg>
