<?xml version="1.0" standalone="no"?>
<!DOCTYPE svg PUBLIC "-//W3C//DTD SVG 1.1//EN" "http://www.w3.org/Graphics/SVG/1.1/DTD/svg11.dtd" >
<svg>
<metadata>
Created by FontForge 20090622 at Wed Dec 18 16:07:42 2019
 By deploy user
Copyright 2006-2009 Dalton Maag Ltd. All rights reserved. This font may not be altered in any way without prior permission of Dalton Maag Ltd. 
</metadata>
<defs>
<font id="CoHeadlineCorp-Bold" horiz-adv-x="497" >
  <font-face 
    font-family="Co Headline Corp"
    font-weight="700"
    font-stretch="normal"
    units-per-em="1000"
    panose-1="2 11 8 3 6 2 2 2 2 4"
    ascent="800"
    descent="-200"
    x-height="510"
    cap-height="686"
    bbox="-238 -275 1445 963"
    underline-thickness="50"
    underline-position="-100"
    unicode-range="U+0008-U+FB04"
  />
<missing-glyph horiz-adv-x="500" 
d="M50 0v750h400v-750h-400zM400 50v650h-300v-650h300z" />
    <glyph glyph-name="f_f" unicode="ff" horiz-adv-x="770" 
d="M60 526q0 110 54 160.5t150 50.5q22 0 45.5 -4t43 -12.5t31.5 -22.5t12 -34q0 -23 -10.5 -42.5t-25.5 -29.5q-17 10 -37 15t-37 5q-65 0 -65 -80v-22h184v16q0 55 15.5 95t43.5 65.5t67.5 38t87.5 12.5q42 0 73.5 -6.5t54.5 -20.5q12 -7 23 -20.5t11 -35.5
q0 -23 -13.5 -42.5t-29.5 -27.5q-12 11 -37.5 19.5t-52.5 8.5q-38 0 -60 -20t-22 -60v-22h111q45 0 64 -18t19 -54q0 -26 -8 -48.5t-12 -29.5h-174v-360h-161v360h-184v-360h-161v526z" />
    <glyph glyph-name="f_i" unicode="fi" horiz-adv-x="616" 
d="M60 526q0 55 16.5 95t47 65.5t73 38t93.5 12.5q45 0 87 -6.5t65 -20.5q12 -7 23 -20.5t11 -35.5q0 -23 -13.5 -42.5t-29.5 -27.5q-6 6 -19 11t-29 8.5t-33 6t-32 2.5q-53 0 -76 -22.5t-23 -61.5v-18h252q45 0 64 -18t19 -54v-438h-161v360h-174v-360h-161v526z" />
    <glyph glyph-name="f_l" unicode="fl" horiz-adv-x="608" 
d="M60 526q0 109 66.5 160t184.5 51q58 0 102 -6.5t73.5 -14.5t44.5 -14.5t17 -7.5v-694h-161v601q-2 1 -22 6t-50 5q-51 0 -72.5 -24t-21.5 -63v-15h41q45 0 64 -18t19 -54q0 -26 -8 -48.5t-12 -29.5h-104v-360h-161v526z" />
    <glyph glyph-name="f_f_i" unicode="ffi" horiz-adv-x="961" 
d="M60 526q0 110 54 160.5t150 50.5q22 0 45.5 -4t43 -12.5t31.5 -22.5t12 -34q0 -23 -10.5 -42.5t-25.5 -29.5q-17 10 -37 15t-37 5q-65 0 -65 -80v-22h184v16q0 55 16.5 95t47 65.5t73 38t93.5 12.5q45 0 87 -6.5t65 -20.5q12 -7 23 -20.5t11 -35.5q0 -23 -13.5 -42.5
t-29.5 -27.5q-6 6 -19 11t-29 8.5t-33 6t-32 2.5q-53 0 -76 -22.5t-23 -61.5v-18h252q45 0 64 -18t19 -54v-438h-161v360h-174v-360h-161v360h-184v-360h-161v526z" />
    <glyph glyph-name="f_f_l" unicode="ffl" horiz-adv-x="947" 
d="M60 526q0 110 54 160.5t150 50.5q22 0 45.5 -4t43 -12.5t31.5 -22.5t12 -34q0 -23 -10.5 -42.5t-25.5 -29.5q-17 10 -37 15t-37 5q-65 0 -65 -80v-22h177v16q0 109 66.5 160t184.5 51q58 0 102 -6.5t73.5 -14.5t44.5 -14.5t17 -7.5v-694h-161v601q-2 1 -22 6t-50 5
q-51 0 -72.5 -24t-21.5 -63v-15h41q45 0 64 -18t19 -54q0 -26 -8 -48.5t-12 -29.5h-104v-360h-161v360h-177v-360h-161v526z" />
    <glyph glyph-name=".notdef" horiz-adv-x="500" 
d="M50 0v750h400v-750h-400zM400 50v650h-300v-650h300z" />
    <glyph glyph-name=".null" horiz-adv-x="0" 
 />
    <glyph glyph-name=".null" horiz-adv-x="0" 
 />
    <glyph glyph-name=".null" horiz-adv-x="0" 
 />
    <glyph glyph-name="nonmarkingreturn" unicode="&#x9;" horiz-adv-x="246" 
 />
    <glyph glyph-name="nonmarkingreturn" unicode="&#xd;" horiz-adv-x="246" 
 />
    <glyph glyph-name="space" unicode=" " horiz-adv-x="246" 
 />
    <glyph glyph-name="exclam" unicode="!" horiz-adv-x="278" 
d="M58 615q0 39 23 55t61 16q27 0 49 -6.5t28 -8.5v-426h-161v370zM43 76q0 19 7.5 35.5t21 29t30.5 20t37 7.5q19 0 36.5 -7.5t31 -20t21 -29t7.5 -35.5t-7.5 -36t-21 -29.5t-31 -20t-36.5 -7.5q-20 0 -37 7.5t-30.5 20t-21 29.5t-7.5 36z" />
    <glyph glyph-name="quotedbl" unicode="&#x22;" horiz-adv-x="573" 
d="M85 668q0 38 22.5 53.5t59.5 15.5q26 0 47.5 -6t27.5 -8v-301h-157v246zM331 668q0 38 22.5 53.5t59.5 15.5q26 0 47.5 -6t27.5 -8v-301h-157v246z" />
    <glyph glyph-name="numbersign" unicode="#" horiz-adv-x="755" 
d="M116 0l24 145h-31q-40 0 -57 16.5t-17 48.5q0 23 7.5 43t10.5 25h110l24 143h-31q-40 0 -57 16t-17 48q0 24 7.5 43.5t10.5 25.5h110l15 89q6 34 28 47.5t54 13.5q23 0 41 -5.5t23 -7.5l-24 -137h131l15 89q5 34 27 47.5t54 13.5q24 0 41.5 -5.5t22.5 -7.5l-24 -137h32
q40 0 57 -16.5t17 -48.5q0 -23 -7.5 -43t-10.5 -25h-110l-25 -143h32q40 0 57 -16t17 -48q0 -24 -7.5 -43.5t-10.5 -25.5h-109l-25 -145h-138l25 145h-130l-24 -145h-138zM300 278h131l24 143h-131z" />
    <glyph glyph-name="dollar" unicode="$" horiz-adv-x="655" 
d="M92 201q5 -4 21 -12.5t41 -18t57 -18t70 -11.5v130l-25 5q-38 7 -76 20t-68 35.5t-49 57.5t-19 87q0 42 14.5 79.5t43.5 66.5t74 47.5t105 22.5v66q0 20 11.5 29t31.5 9q15 0 26.5 -3.5t14.5 -4.5v-97q72 -6 112 -21t53 -23q16 -10 31 -27t15 -40q0 -17 -5.5 -32
t-14 -27.5t-17.5 -22t-16 -13.5q-16 17 -57 36.5t-101 27.5v-138l26 -5q53 -11 93.5 -26t67.5 -38.5t41 -56t14 -78.5q0 -94 -63 -148.5t-179 -63.5v-103h-84v103q-53 3 -98 14t-78.5 24t-54 24.5t-24.5 15.5zM281 550q-26 -3 -40.5 -10t-22.5 -16t-10 -19t-2 -19t2 -17
t10 -15t22.5 -13.5t40.5 -12.5v122zM365 141q24 3 39 8.5t23 13t10.5 17t2.5 19.5q0 22 -16.5 35t-58.5 22v-115z" />
    <glyph glyph-name="percent" unicode="%" horiz-adv-x="1030" 
d="M25 537q0 42 16 78.5t44.5 63.5t66.5 42.5t82 15.5t82.5 -15.5t67 -42.5t44.5 -63.5t16 -78.5t-16 -78t-44.5 -63t-67 -42.5t-82.5 -15.5t-82 15.5t-66.5 42.5t-44.5 63t-16 78zM234 462q31 0 52 21.5t21 53.5t-21 54t-52 22t-52 -22t-21 -54t21 -53.5t52 -21.5zM586 182
q0 42 16 78.5t44.5 63.5t66.5 42.5t82 15.5t82.5 -15.5t67 -42.5t44.5 -63.5t16 -78.5t-16 -78t-44.5 -63t-67 -42.5t-82.5 -15.5t-82 15.5t-66.5 42.5t-44.5 63t-16 78zM795 107q31 0 52 21.5t21 53.5t-21 54t-52 22t-52 -22t-21 -54t21 -53.5t52 -21.5zM629 686
q12 21 28 36t51 15q17 0 31.5 -4t25.5 -9t18 -10t9 -6l-411 -708h-150z" />
    <glyph glyph-name="ampersand" unicode="&#x26;" horiz-adv-x="723" 
d="M467 277h-154q-48 0 -70 -22t-22 -53q0 -15 5.5 -28.5t21 -24.5t42.5 -17.5t70 -6.5q48 0 72.5 2t34.5 4v146zM617 423q45 0 63 -17.5t18 -52.5q0 -26 -7.5 -47.5t-11.5 -28.5h-50v-276q-32 -6 -94 -12t-166 -6q-160 0 -237 55t-77 155q0 57 30.5 96t75.5 61
q-40 22 -66 60t-26 92q0 48 19 85.5t52.5 63.5t81 39.5t104.5 13.5q73 0 111 -10t57 -20q45 -23 45 -63q0 -15 -5 -28t-12.5 -23.5t-15 -18t-13.5 -10.5q-6 5 -20.5 11.5t-34 12.5t-43.5 10t-49 4q-33 0 -54.5 -6t-35 -16.5t-19 -24.5t-5.5 -30q0 -30 24.5 -49.5t86.5 -19.5
h274z" />
    <glyph glyph-name="quotesingle" unicode="'" horiz-adv-x="337" 
d="M90 668q0 38 22.5 53.5t59.5 15.5q26 0 47.5 -6t27.5 -8v-301h-157v246z" />
    <glyph glyph-name="parenleft" unicode="(" horiz-adv-x="353" 
d="M338 -132q-73 12 -128 47.5t-91.5 92t-55 131t-18.5 164.5t18.5 164.5t55 130.5t91.5 91.5t128 47.5v-152q-31 -12 -55.5 -33.5t-41.5 -55t-26 -81.5t-9 -112q0 -65 9 -112.5t26 -81.5t41.5 -55.5t55.5 -33.5v-152z" />
    <glyph glyph-name="parenright" unicode=")" horiz-adv-x="353" 
d="M15 20q31 12 55.5 33.5t41.5 55.5t26 81.5t9 112.5q0 64 -9 112t-26 81.5t-41.5 55t-55.5 33.5v152q73 -12 128 -47.5t91.5 -91.5t55 -130.5t18.5 -164.5t-18.5 -164.5t-55.5 -131t-91.5 -92t-127.5 -47.5v152z" />
    <glyph glyph-name="asterisk" unicode="*" horiz-adv-x="553" 
d="M66 329l103 127l-139 41q0 2 -0.5 6.5t-0.5 10.5q0 12 2 28.5t8 32.5q8 19 21 31.5t36 12.5q19 0 42 -10l76 -34l-9 98v7q0 31 22 44t54 13q24 0 44 -6t25 -8l-10 -148l76 34q23 10 42 10q23 0 36 -12.5t21 -31.5q6 -16 8 -32.5t2 -28.5q0 -6 -0.5 -10.5t-0.5 -6.5
l-139 -41l103 -127l-116 -80l-95 140l-95 -140z" />
    <glyph glyph-name="plus" unicode="+" horiz-adv-x="630" 
d="M236 264h-113q-39 0 -55 21t-16 59q0 27 6.5 47.5t8.5 25.5h169v117q0 39 22.5 55t60.5 16q27 0 48 -6.5t27 -8.5v-173h113q39 0 55 -21t16 -59q0 -27 -6.5 -47.5t-8.5 -25.5h-169v-183h-158v183z" />
    <glyph glyph-name="comma" unicode="," horiz-adv-x="337" 
d="M86 107q10 33 27 51t53 18q18 0 34 -5t28 -11.5t20 -14l12 -11.5l-131 -302l-111 42z" />
    <glyph glyph-name="hyphen" unicode="-" horiz-adv-x="337" 
d="M242 348q36 0 50.5 -21.5t14.5 -56.5q0 -25 -6 -45.5t-8 -25.5h-198q-36 0 -50.5 21.5t-14.5 56.5q0 25 6 45.5t8 25.5h198z" />
    <glyph glyph-name="period" unicode="." horiz-adv-x="337" 
d="M169 -17q-20 0 -37 7.5t-30.5 21t-21 31t-7.5 37.5q0 19 7.5 36.5t21 31t30.5 21t37 7.5q19 0 36.5 -7.5t31 -21t21 -31t7.5 -36.5q0 -20 -7.5 -37.5t-21 -31t-31 -21t-36.5 -7.5z" />
    <glyph glyph-name="slash" unicode="/" horiz-adv-x="368" 
d="M208 674q9 30 24.5 46.5t48.5 16.5q17 0 32 -4.5t26 -10.5t18.5 -13t10.5 -11l-215 -698h-153z" />
    <glyph glyph-name="zero" unicode="0" horiz-adv-x="672" 
d="M336 -17q-71 0 -125.5 25t-92 71.5t-56.5 113t-19 150.5t19 150.5t56.5 113.5t92 72t125.5 25q70 0 125 -25t92 -72t56.5 -113.5t19.5 -150.5t-19.5 -150.5t-56.5 -113t-92 -71.5t-125 -25zM336 136q59 0 92 50.5t33 156.5t-33 157t-92 51q-60 0 -93 -51t-33 -157
t33 -156.5t93 -50.5z" />
    <glyph glyph-name="one" unicode="1" horiz-adv-x="478" 
d="M216 491l-121 -94q-8 4 -19.5 11.5t-23 19t-19.5 25.5t-8 31q0 36 19 56.5t54 46.5l59 44q19 14 35 24.5t32 17t32.5 10t36.5 3.5q15 0 30 -2.5t26.5 -6t19 -6.5t9.5 -4v-667h-162v491z" />
    <glyph glyph-name="two" unicode="2" horiz-adv-x="564" 
d="M13 137q7 4 34.5 22l62 42.5l69 50t55.5 44.5q33 29 53.5 51.5t32.5 42.5t16.5 38t4.5 38q0 38 -28 65.5t-85 27.5q-29 0 -51.5 -8t-38.5 -20.5t-26.5 -27t-16.5 -27.5q-9 3 -22.5 10.5t-26 18.5t-22 25.5t-9.5 33.5q0 18 6 33.5t14 26.5q5 7 19 20.5t39.5 27t63 23
t90.5 9.5q64 0 113 -17t82.5 -47t51 -70t17.5 -86q0 -65 -24.5 -113t-51.5 -80q-16 -19 -38.5 -40.5l-45 -41l-42 -35l-28.5 -22.5h235v-152h-503v137z" />
    <glyph glyph-name="three" unicode="3" horiz-adv-x="594" 
d="M81 180q8 -6 24 -15t38.5 -17t51 -13.5t62.5 -5.5q62 0 88 22.5t26 52.5q0 34 -26.5 53t-85.5 19h-69q-4 7 -12 29t-8 48q0 36 20.5 53.5t65.5 17.5h10q54 0 75 19.5t21 47.5q0 13 -5.5 26t-17.5 23.5t-32.5 16.5t-50.5 6q-34 0 -59.5 -9t-43 -21.5t-27.5 -26t-13 -22.5
q-17 3 -32 11t-26 20t-18 26.5t-7 30.5t5.5 31.5t19.5 31.5q7 8 22.5 19.5t41 22.5t62 19t86.5 8q66 0 115 -16t81.5 -42.5t48.5 -62t16 -74.5q0 -56 -29 -95t-68 -60q57 -23 82.5 -65.5t25.5 -92.5q0 -48 -19 -87t-53.5 -67t-83 -43.5t-106.5 -15.5q-59 0 -105.5 9.5
t-80 21.5t-54.5 24.5t-29 18.5z" />
    <glyph glyph-name="four" unicode="4" horiz-adv-x="634" 
d="M359 283v233q-26 -16 -51 -38.5t-45 -47.5q-34 -42 -49.5 -73t-15.5 -48t13.5 -21.5t33.5 -4.5h114zM359 133h-151q-37 0 -69 7t-55.5 22t-37 39.5t-13.5 59.5q0 33 9 66t24 64.5t34.5 60.5t41.5 55q29 36 63 68t70 57t73.5 39.5t74.5 14.5q48 0 69.5 -8.5t26.5 -11.5
v-383h9q45 0 64 -18t19 -54q0 -26 -8 -48.5t-12 -29.5h-72v-133h-160v133z" />
    <glyph glyph-name="five" unicode="5" horiz-adv-x="575" 
d="M73 168q6 -4 22 -10.5t38 -13t49.5 -11.5t56.5 -5q38 0 63 7t39.5 19t20.5 27.5t6 32.5q0 16 -5.5 32t-21.5 28.5t-45.5 20.5t-77.5 8q-20 0 -43.5 -2t-46.5 -5.5t-42.5 -7.5t-30.5 -8l10 311q2 48 25.5 71.5t73.5 23.5h258q45 0 64 -18t19 -54q0 -26 -8 -48.5t-12 -29.5
h-273l-3 -100q11 2 30.5 3t47.5 1q69 0 116 -18t76 -48.5t42 -70.5t13 -83q0 -53 -18.5 -96.5t-53 -74.5t-85.5 -48.5t-115 -17.5q-60 0 -105.5 8.5t-77 19.5t-48.5 20.5t-20 12.5z" />
    <glyph glyph-name="six" unicode="6" horiz-adv-x="620" 
d="M271 659q16 21 37 33t52 12q22 0 40.5 -5.5t32 -12.5t22 -13.5t10.5 -9.5l-141 -193q5 1 12.5 1.5t12.5 0.5q58 0 102 -18.5t74 -49.5t45 -72.5t15 -87.5q0 -58 -20.5 -106t-57 -82.5t-87 -53.5t-110.5 -19t-110 18.5t-85.5 52t-55.5 80.5t-20 103q0 36 9 70t24.5 66.5
t36 64t44.5 63.5zM195 241q0 -50 31.5 -81.5t82.5 -31.5q53 0 83.5 31t30.5 82q0 50 -31 82.5t-83 32.5q-51 0 -82.5 -32.5t-31.5 -82.5z" />
    <glyph glyph-name="seven" unicode="7" horiz-adv-x="560" 
d="M109 0q4 11 19.5 46l37.5 84.5l47.5 107l49.5 112.5l44.5 103l32.5 77h-240q-46 0 -65.5 19.5t-19.5 56.5q0 27 8 49.5t13 30.5h400q43 0 66 -23.5t23 -68.5q0 -15 -5.5 -34t-12.5 -39q-8 -23 -24.5 -62.5l-38 -88l-45 -102l-46 -104l-42 -93.5l-32.5 -71h-170z" />
    <glyph glyph-name="eight" unicode="8" horiz-adv-x="680" 
d="M156 349q-44 27 -65.5 66.5t-21.5 81.5q0 48 19.5 86.5t55 65t85.5 41t111 14.5t111 -14.5t85.5 -41t55 -65t19.5 -86.5q0 -42 -21.5 -81.5t-65.5 -66.5q51 -27 76 -68.5t25 -87.5q0 -48 -20 -87t-57 -66.5t-90 -42t-118 -14.5t-118 14.5t-90 42t-57 66.5t-20 87
q0 46 24.5 87.5t76.5 68.5zM231 492q0 -32 25 -54.5t84 -22.5t84 22.5t25 54.5q0 16 -6 30t-19 24.5t-33.5 17t-50.5 6.5t-50.5 -6.5t-33.5 -17t-19 -24.5t-6 -30zM219 203q0 -35 29 -57.5t92 -22.5t92 22.5t29 57.5q0 34 -29 56.5t-92 22.5t-92 -22.5t-29 -56.5z" />
    <glyph glyph-name="nine" unicode="9" horiz-adv-x="620" 
d="M294 218q-5 -1 -12.5 -1.5t-12.5 -0.5q-58 0 -102 18.5t-74 49.5t-45 72.5t-15 87.5q0 58 20.5 106t57 82.5t87 53.5t110.5 19t110 -18.5t85.5 -52t55.5 -80.5t20 -103q0 -36 -9 -70t-24.5 -66.5t-36 -64t-44.5 -63.5l-144 -195h-193zM309 332q51 0 82.5 32.5t31.5 82.5
t-31.5 81.5t-82.5 31.5q-53 0 -83.5 -31t-30.5 -82q0 -50 31 -82.5t83 -32.5z" />
    <glyph glyph-name="colon" unicode=":" horiz-adv-x="337" 
d="M169 317q-20 0 -37 7.5t-30.5 21t-21 31t-7.5 37.5q0 19 7.5 36.5t21 31t30.5 21t37 7.5q19 0 36.5 -7.5t31 -21t21 -31t7.5 -36.5q0 -20 -7.5 -37.5t-21 -31t-31 -21t-36.5 -7.5zM169 -17q-20 0 -37 7.5t-30.5 21t-21 31t-7.5 37.5q0 19 7.5 36.5t21 31t30.5 21t37 7.5
q19 0 36.5 -7.5t31 -21t21 -31t7.5 -36.5q0 -20 -7.5 -37.5t-21 -31t-31 -21t-36.5 -7.5z" />
    <glyph glyph-name="semicolon" unicode=";" horiz-adv-x="337" 
d="M86 107q10 33 27 51t53 18q18 0 34 -5t28 -11.5t20 -14l12 -11.5l-131 -302l-111 42zM169 317q-20 0 -37 7.5t-30.5 21t-21 31t-7.5 37.5q0 19 7.5 36.5t21 31t30.5 21t37 7.5q19 0 36.5 -7.5t31 -21t21 -31t7.5 -36.5q0 -20 -7.5 -37.5t-21 -31t-31 -21t-36.5 -7.5z" />
    <glyph glyph-name="less" unicode="&#x3c;" horiz-adv-x="630" 
d="M561 605v-166l-278 -96l278 -96v-166l-434 174q-32 13 -45 37t-13 51q0 28 10.5 47.5t23.5 30.5z" />
    <glyph glyph-name="equal" unicode="=" horiz-adv-x="630" 
d="M507 544q39 0 55 -21t16 -59q0 -27 -6.5 -47.5t-8.5 -25.5h-440q-39 0 -55 21t-16 59q0 27 6.5 47.5t8.5 25.5h440zM507 295q39 0 55 -21t16 -59q0 -27 -6.5 -47.5t-8.5 -25.5h-440q-39 0 -55 21t-16 59q0 27 6.5 47.5t8.5 25.5h440z" />
    <glyph glyph-name="greater" unicode="&#x3e;" horiz-adv-x="630" 
d="M69 247l278 96l-278 96v166l434 -174q32 -13 45 -37t13 -51q0 -28 -10.5 -47.5t-23.5 -30.5l-458 -184v166z" />
    <glyph glyph-name="question" unicode="?" horiz-adv-x="542" 
d="M157 243q0 50 19 81t61 55q43 24 71.5 48t28.5 63q0 29 -23 52.5t-78 23.5q-53 0 -87 -22.5t-51 -51.5q-32 7 -54.5 31.5t-22.5 53.5q0 17 5.5 32.5t19.5 31.5q7 8 22 19t39.5 20.5t60 16.5t83.5 7q64 0 111.5 -16t78.5 -43.5t46 -64t15 -76.5t-9.5 -70t-25 -53.5
t-34.5 -40.5t-38 -30q-34 -23 -56 -40.5t-22 -49.5h-160v23zM141 76q0 19 7.5 35.5t21 29t30.5 20t37 7.5q19 0 36.5 -7.5t31 -20t21 -29t7.5 -35.5t-7.5 -36t-21 -29.5t-31 -20t-36.5 -7.5q-20 0 -37 7.5t-30.5 20t-21 29.5t-7.5 36z" />
    <glyph glyph-name="at" unicode="@" horiz-adv-x="988" 
d="M756 -160q-6 -3 -23 -10t-47.5 -13.5t-75 -12t-104.5 -5.5q-103 0 -188.5 33.5t-147 93.5t-96 142.5t-34.5 180.5q0 99 34 182t94.5 144t144 95t181.5 34t181.5 -33.5t144 -94t94.5 -144t34 -183.5q0 -76 -15.5 -130.5t-32.5 -96.5q-14 -2 -46 -4t-77 -4t-100 -3.5
t-116 -1.5q-58 0 -109 4.5t-88.5 21t-59 47.5t-21.5 84q0 75 51 112.5t160 37.5q19 0 35.5 -1t27.5 -2q0 13 -3.5 25t-14 21t-29 14.5t-48.5 5.5q-53 0 -79 -11t-33 -16q-2 1 -7.5 6.5t-11.5 13.5t-10.5 19t-4.5 24q0 42 38 60.5t121 18.5q47 0 87.5 -9t70.5 -31t47 -57.5
t17 -87.5v-191l93 4q3 10 9 46t6 81q0 72 -23 130.5t-64 100.5t-98 65t-126 23t-126 -23.5t-98 -66t-64 -101t-23 -128.5t23.5 -128t67 -100t106.5 -65t143 -23q37 0 68 3.5t54 8.5t38 10t20 8zM558 218q-4 1 -18 3t-33 2q-29 0 -46 -4t-26 -11.5t-11.5 -17t-2.5 -21.5
t3 -22t12 -17.5t25.5 -11.5t43.5 -4q17 0 33 1t20 2v101z" />
    <glyph glyph-name="A" unicode="A" horiz-adv-x="769" 
d="M5 0l51 130.5l64.5 158l72 170.5l73.5 168q19 43 46.5 60t72.5 17q17 0 33.5 -4t29.5 -9.5t21 -10.5t10 -6q15 -25 39.5 -79l53.5 -121.5l60 -141.5l57.5 -140.5l46.5 -118l28 -73.5h-184l-24 64.5l-32 83.5h-291l-28.5 -77l-26.5 -71h-173zM467 299l-23 60.5l-25 65
l-22.5 58t-16.5 39.5q-6 -14 -16 -39.5l-22 -57l-25 -64.5l-24 -62h174z" />
    <glyph glyph-name="B" unicode="B" horiz-adv-x="684" 
d="M70 597q0 22 6 38t15.5 26.5t22 16t25.5 7.5q10 2 23.5 4t34 3.5t50 2.5t71.5 1q93 0 153.5 -15t96 -41.5t50 -62.5t14.5 -78q0 -31 -7.5 -55t-19 -42.5t-25.5 -31.5t-28 -21q16 -6 34 -18t33 -30.5t25 -45t10 -61.5q0 -46 -14 -83.5t-51 -64.5t-102 -41.5t-166 -14.5
q-50 0 -94 1.5t-78 3t-55 3.5t-24 2v597zM378 417q25 0 41.5 5.5t26.5 15t14 21t4 23.5q0 13 -4.5 26t-18 23t-38 16t-63.5 6q-41 0 -71.5 -2.5t-35.5 -3.5v-130h145zM233 140q5 -1 33.5 -3.5t85.5 -2.5q39 0 64 5t40 14t21 22t6 30q0 13 -4 25t-14.5 21.5t-28 15t-45.5 5.5
h-158v-132z" />
    <glyph glyph-name="C" unicode="C" horiz-adv-x="671" 
d="M660 51q-11 -8 -31.5 -19.5t-51.5 -22.5t-73 -19t-95 -8q-75 0 -142 22.5t-117.5 67.5t-80 112t-29.5 156q0 87 28.5 154.5t78 114t116 71t143.5 24.5q41 0 74 -5t58.5 -13t43.5 -17t29 -16q23 -17 33 -35.5t10 -38.5q0 -19 -7.5 -36t-18 -30.5t-21 -23t-17.5 -13.5
q-10 10 -25.5 23.5t-37.5 24.5t-50.5 19t-63.5 8q-44 0 -80 -14.5t-62.5 -42t-41 -66.5t-14.5 -88q0 -50 16 -88t44 -63.5t66.5 -38.5t83.5 -13q56 0 96.5 14t61.5 29l75 -129h2z" />
    <glyph glyph-name="D" unicode="D" horiz-adv-x="751" 
d="M237 148q6 -1 26.5 -2.5t49.5 -1.5q50 0 91 11.5t70.5 36t45.5 62.5t16 90q0 44 -13 81t-39.5 64t-67 42t-95.5 15q-39 0 -60 -1.5t-24 -2.5v-394zM70 597q0 22 6 38t15.5 26.5t22 16t25.5 7.5q19 4 55.5 7.5t107.5 3.5q93 0 168.5 -23t129 -68t82.5 -110.5t29 -150.5
q0 -84 -27 -149.5t-80.5 -111t-133 -69.5t-184.5 -24q-113 0 -162.5 4.5t-53.5 5.5v597z" />
    <glyph glyph-name="E" unicode="E" horiz-adv-x="641" 
d="M70 591q0 95 99 95h342q46 0 65.5 -19.5t19.5 -56.5q0 -27 -8 -49.5t-13 -30.5h-338v-107h261q46 0 65.5 -19.5t19.5 -56.5q0 -27 -8 -49.5t-13 -30.5h-325v-111h354v-156h-521v591z" />
    <glyph glyph-name="F" unicode="F" horiz-adv-x="593" 
d="M70 591q0 95 99 95h319q46 0 65.5 -19.5t19.5 -56.5q0 -27 -8 -49.5t-13 -30.5h-315v-116h225q46 0 65.5 -19.5t19.5 -56.5q0 -27 -8 -49.5t-13 -30.5h-289v-258h-167v591z" />
    <glyph glyph-name="G" unicode="G" horiz-adv-x="720" 
d="M501 252h-61q-46 0 -65.5 18.5t-19.5 55.5q0 27 8 48.5t13 29.5h190q99 0 99 -95v-309q-5 -1 -24.5 -4t-49.5 -6t-67.5 -5.5t-78.5 -2.5q-90 0 -164.5 22.5t-128 67.5t-83 112.5t-29.5 157.5q0 84 28.5 151t79.5 114t121 72t152 25q42 0 74.5 -5t57 -12t41.5 -15.5
t28 -15.5q42 -26 42 -67q0 -19 -7.5 -35.5t-17.5 -29t-21 -22t-18 -14.5q-10 10 -25.5 21.5t-37 21.5t-50 16t-63.5 6q-49 0 -88 -15t-66 -42.5t-41.5 -66.5t-14.5 -87q0 -107 60.5 -157t165.5 -50q18 0 37.5 1t23.5 2v114z" />
    <glyph glyph-name="H" unicode="H" horiz-adv-x="740" 
d="M70 0v612q0 41 24 57.5t63 16.5q29 0 51.5 -7t28.5 -9v-235h266v177q0 41 24 57.5t63 16.5q29 0 51.5 -7t28.5 -9v-670h-167v277h-266v-277h-167z" />
    <glyph glyph-name="I" unicode="I" horiz-adv-x="307" 
d="M70 0v612q0 41 24 57.5t63 16.5q29 0 51.5 -7t28.5 -9v-670h-167z" />
    <glyph glyph-name="J" unicode="J" horiz-adv-x="599" 
d="M123 212l13.5 -19.5t26 -27t40 -24t55.5 -10.5q56 0 83.5 27t27.5 91v363q0 41 24 57.5t63 16.5q29 0 51.5 -7t28.5 -9v-431q0 -57 -16 -104.5t-49 -81.5t-83.5 -52.5t-118.5 -18.5q-63 0 -110 17.5t-79.5 40t-50 44t-21.5 29.5z" />
    <glyph glyph-name="K" unicode="K" horiz-adv-x="700" 
d="M70 0v612q0 41 24 57.5t63 16.5q29 0 51.5 -7t28.5 -9v-255l51.5 56.5l57.5 61.5l57 59l51 49q18 16 42 30.5t60 14.5q23 0 42 -5.5t32.5 -13t22.5 -15.5t13 -13l-23 -23l-42.5 -43l-53.5 -54.5l-57 -58l-51.5 -53.5l-37.5 -41l80 -88.5l73.5 -88l70 -91l70.5 -98.5h-205
l-58 75.5l-65.5 81t-67.5 77.5l-62 65v-299h-167z" />
    <glyph glyph-name="L" unicode="L" horiz-adv-x="559" 
d="M70 0v612q0 41 24 57.5t63 16.5q29 0 51.5 -7t28.5 -9v-514h317v-156h-484z" />
    <glyph glyph-name="M" unicode="M" horiz-adv-x="904" 
d="M99 600q1 25 9.5 42t22 26.5t30.5 13.5t36 4q39 0 66 -11t36 -19l75.5 -157.5t80.5 -161.5l70.5 142l63.5 133q19 43 46.5 58.5t62.5 15.5q38 0 66.5 -10.5t36.5 -16.5l38 -659h-168l-23 410l-37 -76l-36.5 -77l-33 -72.5l-27.5 -61.5h-124q-11 27 -27.5 63l-34.5 75
l-37 77.5l-35 70.5l-22 -409h-169z" />
    <glyph glyph-name="N" unicode="N" horiz-adv-x="739" 
d="M70 599q0 26 8 43t21 26.5t29.5 13.5t33.5 4q35 0 56 -9.5t27 -14.5q5 -5 22.5 -29l42 -59l53 -77.5l55.5 -83l50 -75l36 -55.5v329q0 41 24 57.5t63 16.5q29 0 51 -7t27 -9v-670h-157l-28 45l-44 68l-53.5 81.5l-56 85.5l-52.5 79l-43 63v-422h-165v599z" />
    <glyph glyph-name="O" unicode="O" horiz-adv-x="822" 
d="M40 343q0 76 28.5 142t78.5 114.5t118 76.5t146 28t146 -28t118 -76.5t78.5 -114.5t28.5 -142t-28.5 -142t-78.5 -114.5t-118 -76.5t-146 -28t-146 28t-118 76.5t-78.5 114.5t-28.5 142zM411 138q43 0 79 15.5t62 43.5t40.5 65t14.5 81t-14.5 81.5t-40.5 65t-62 43
t-79 15.5t-79 -15.5t-62 -43t-40.5 -65t-14.5 -81.5t14.5 -81t40.5 -65t62 -43.5t79 -15.5z" />
    <glyph glyph-name="P" unicode="P" horiz-adv-x="668" 
d="M233 364l24.5 -3.5t57.5 -2.5q46 0 74.5 8.5t44.5 22.5t21.5 31.5t5.5 34.5q0 16 -4.5 33t-19.5 31.5t-43.5 24t-76.5 9.5q-35 0 -57 -1.5t-27 -2.5v-185zM70 597q0 22 6 38t15.5 26.5t22 16t25.5 7.5q10 2 23.5 4t34 3.5t50 2.5t71.5 1q90 0 150 -20.5t96.5 -54t52 -77
t15.5 -89.5q0 -53 -17 -97t-53 -75.5t-92.5 -49t-134.5 -17.5q-18 0 -35 1t-31 2t-23.5 2.5t-12.5 1.5v-223h-163v597z" />
    <glyph glyph-name="Q" unicode="Q" horiz-adv-x="822" 
d="M549 10q-27 -12 -64 -18.5t-74 -6.5q-78 0 -146 27.5t-118 75.5t-78.5 113.5t-28.5 141.5t28.5 142t78.5 114.5t118 76.5t146 28t146 -28t118 -76.5t78.5 -114.5t28.5 -142q0 -75 -28.5 -140t-76.5 -110l87 -107l-124 -95zM426 167q-14 18 -26.5 37t-12.5 36
q0 24 12 39.5t29.5 24.5t37.5 12.5t35 3.5l74 -98q13 18 22.5 50.5t9.5 70.5q0 44 -14.5 81.5t-40.5 65t-62 43t-79 15.5t-79 -15.5t-62 -43t-40.5 -65t-14.5 -81.5t14.5 -81.5t40.5 -65.5t62 -44t79 -16h19t19 2z" />
    <glyph glyph-name="R" unicode="R" horiz-adv-x="690" 
d="M70 597q0 22 6 38t15.5 26.5t22 16t25.5 7.5q10 2 23.5 4t34 3.5t50 2.5t71.5 1q90 0 150 -19.5t96.5 -52.5t52 -75.5t15.5 -88.5q0 -61 -25 -109.5t-82 -79.5q15 -24 33 -56l37.5 -67.5l38.5 -73.5l36 -74h-191l-18.5 41.5t-31 66t-36 69.5t-31.5 53q-14 -2 -28.5 -2
h-30.5q-6 0 -16.5 0.5l-21.5 1t-20 1t-12 1.5v-232h-163v597zM233 374q3 0 8.5 -1t15.5 -2t25.5 -1.5t38.5 -0.5q43 0 70.5 7.5t43 20t21 29t5.5 33.5q0 16 -5 32.5t-20.5 30.5t-44.5 23t-77 9q-35 0 -55.5 -1.5t-25.5 -2.5v-176z" />
    <glyph glyph-name="S" unicode="S" horiz-adv-x="682" 
d="M99 196q6 -5 27 -15.5t53 -21t74 -19t91 -8.5q40 0 64 5.5t37 14.5t17 20.5t4 23.5q0 24 -19.5 39.5t-72.5 24.5l-102 18q-40 7 -80 20t-71.5 36t-51.5 59t-20 89q0 46 17 86.5t52 70.5t88.5 47.5t125.5 17.5q52 0 91 -5.5t67 -13.5t45.5 -16t25.5 -13q17 -10 32.5 -27.5
t15.5 -41.5q0 -17 -6 -32.5t-14.5 -28.5t-18.5 -22.5t-17 -14.5q-10 10 -30 22.5t-48 22.5t-64 17t-77 7q-39 0 -62 -6.5t-34.5 -16t-15 -21.5t-3.5 -22q0 -9 2.5 -17t12 -15.5t27 -14t47.5 -12.5l106 -21q56 -11 98.5 -27.5t71.5 -40.5t43.5 -58t14.5 -81
q0 -105 -78.5 -164t-221.5 -59q-65 0 -119.5 11t-95.5 25.5t-66.5 27.5t-30.5 18z" />
    <glyph glyph-name="T" unicode="T" horiz-adv-x="667" 
d="M250 530h-160q-46 0 -65.5 19.5t-19.5 56.5q0 27 8 49.5t13 30.5h551q46 0 65.5 -19.5t19.5 -56.5q0 -27 -8 -49.5t-13 -30.5h-224v-530h-167v530z" />
    <glyph glyph-name="U" unicode="U" horiz-adv-x="760" 
d="M63 612q0 41 24 57.5t63 16.5q29 0 51.5 -7t28.5 -9v-349q0 -45 7.5 -79.5t25 -58t46 -35.5t71.5 -12t71.5 12t46 35.5t25 58t7.5 79.5v291q0 41 24 57.5t63 16.5q29 0 51.5 -7t28.5 -9v-366q0 -152 -82 -237t-235 -85t-235 85t-82 237v308z" />
    <glyph glyph-name="V" unicode="V" horiz-adv-x="722" 
d="M265 0l-48.5 99.5l-48 104.5l-45 100l-38.5 87.5l-28.5 67.5l-15.5 38l-23.5 58.5t-12.5 61.5q0 69 82 69q32 0 53.5 -7.5t26.5 -10.5q17 -49 41 -112l50 -128.5l51 -127.5l45 -108l77 190l88 229q14 38 35 56.5t66 18.5q20 0 37 -5t30 -11t20.5 -12t9.5 -7l-22.5 -56.5
l-40 -98l-52 -123.5l-57.5 -134.5l-57 -129.5l-50 -109h-173z" />
    <glyph glyph-name="W" unicode="W" horiz-adv-x="1010" 
d="M213 0q-14 32 -30.5 75l-34 90.5l-34.5 95.5l-32 90.5l-26.5 76t-17.5 52.5l-23 72.5t-10 61.5q0 34 20.5 53t60.5 19q32 0 53.5 -7.5t26.5 -10.5q10 -41 27 -100l36.5 -122.5l39 -124.5l34.5 -105l28.5 101.5l28 106.5l26 102l22.5 88q8 32 27 52t64 20q29 0 53.5 -9
t29.5 -12l21.5 -93.5l29.5 -121l31.5 -125.5t28.5 -108l32.5 101.5l31.5 106l28 100l22 82.5q11 43 32.5 61t66.5 18q19 0 36.5 -4t30.5 -9.5t21.5 -10.5t10.5 -6q-39 -142 -98 -310t-131 -346h-178q-9 22 -22 64.5t-27 94l-28.5 105.5t-24.5 99l-26.5 -99l-29.5 -105.5
l-28 -94t-22 -64.5h-177z" />
    <glyph glyph-name="X" unicode="X" horiz-adv-x="751" 
d="M10 0l34 44.5l60 78l77.5 100l84.5 109.5l-56.5 67.5l-50.5 59.5l-40 47l-26 30q-20 23 -30.5 42.5t-10.5 37.5q0 33 22.5 51.5t58.5 18.5q26 0 42.5 -5.5t24.5 -10.5l23 -29l38 -47.5l49 -62l57 -71.5l43.5 58.5l37 49.5l27.5 37t15 20q14 18 25 29.5t23 18.5t25.5 10
t31.5 3q20 0 37.5 -5.5t31.5 -12.5t23.5 -15t13.5 -12l-31 -38.5l-55 -69l-70.5 -90l-78.5 -101.5l91 -112.5l82.5 -102l64.5 -80t37 -47.5h-203q-9 10 -26 32l-39.5 50.5l-49.5 62.5l-57 70l-53.5 -69.5l-47 -62l-37.5 -50.5t-25 -33h-193z" />
    <glyph glyph-name="Y" unicode="Y" horiz-adv-x="691" 
d="M252 253l-49 61l-50 64.5l-44.5 58.5l-33.5 45l-22.5 31t-23 35.5t-17.5 36.5t-7 33q0 35 22.5 51.5t54.5 16.5q28 0 47.5 -6.5t24.5 -9.5l39 -59l50.5 -74.5l51.5 -74.5l43 -60l37.5 52l39 58l38 59l34.5 54q6 9 14.5 20t21 20t29.5 15t40 6q18 0 34 -4.5t28.5 -10.5
t20.5 -12t11 -9q-8 -17 -25 -45.5t-40.5 -64l-50.5 -75.5l-54 -78.5l-52.5 -73l-44.5 -60.5v-253h-167v253z" />
    <glyph glyph-name="Z" unicode="Z" horiz-adv-x="644" 
d="M10 143l110 105.5l112 110l98 99t68 72.5h-285q-46 0 -65.5 19.5t-19.5 56.5q0 27 8 49.5t13 30.5h475q47 0 73.5 -21t26.5 -63q0 -38 -22.5 -70t-53.5 -67l-128.5 -138l-170.5 -171h371v-156h-610v143z" />
    <glyph glyph-name="bracketleft" unicode="[" horiz-adv-x="352" 
d="M70 641q0 95 99 95h162q3 -6 9 -29t6 -47q0 -35 -15 -55.5t-50 -20.5h-58v-559h114v-152h-267v768z" />
    <glyph glyph-name="backslash" unicode="\" horiz-adv-x="368" 
d="M215 0l-215 698q3 4 10.5 11t18.5 13t26 10.5t32 4.5q33 0 48.5 -16.5t24.5 -46.5l208 -674h-153z" />
    <glyph glyph-name="bracketright" unicode="]" horiz-adv-x="352" 
d="M15 -127v152h114v559h-58q-35 0 -50 20.5t-15 55.5q0 24 6 47t9 29h162q99 0 99 -95v-768h-267z" />
    <glyph glyph-name="asciicircum" unicode="^" horiz-adv-x="522" 
d="M168 616q21 41 41.5 56t50.5 15t47.5 -10.5t25.5 -18.5l169 -327h-156l-87 175l-88 -175h-151z" />
    <glyph glyph-name="underscore" unicode="_" horiz-adv-x="500" 
d="M0 -70h500v-59h-500v59z" />
    <glyph glyph-name="grave" unicode="`" horiz-adv-x="500" 
d="M122 660q0 3 3.5 15t11.5 26t22 25t36 11q17 0 33.5 -8.5t33.5 -19.5l115 -73l-44 -66z" />
    <glyph glyph-name="a" unicode="a" horiz-adv-x="582" 
d="M527 3q-6 -2 -27 -4.5t-52.5 -5.5t-72 -5t-85.5 -2q-76 0 -126 13.5t-80 36.5t-42 53.5t-12 64.5q0 92 59 131.5t187 39.5q32 0 53.5 -1t35.5 -3q0 35 -28.5 55t-94.5 20q-31 0 -54.5 -3.5t-40 -8.5t-26.5 -10t-14 -8l-8 8t-12 15.5t-11 21.5t-5 26q0 87 178 87
q58 0 109 -10.5t88.5 -36t59 -67.5t21.5 -105v-302zM366 212q-9 2 -26.5 3.5t-52.5 1.5q-30 0 -49 -5t-29.5 -13.5t-14.5 -19.5t-4 -23q0 -9 3 -19t13 -18t30 -13.5t53 -5.5q26 0 48 1.5t29 3.5v107z" />
    <glyph glyph-name="b" unicode="b" horiz-adv-x="632" 
d="M43 666q0 39 23 55t61 16q27 0 48.5 -6.5t27.5 -8.5v-253q18 18 54.5 36.5t92.5 18.5q51 0 96 -19.5t78.5 -54.5t53 -84.5t19.5 -110.5q0 -60 -21 -110t-58 -85t-87.5 -54.5t-109.5 -19.5q-72 0 -131 26t-97 76q-24 32 -37 79t-13 111v388zM317 134q50 0 82.5 33t32.5 87
t-32.5 88.5t-82.5 34.5q-25 0 -46 -9.5t-36.5 -26t-24 -39t-8.5 -48.5q0 -56 32.5 -88t82.5 -32z" />
    <glyph glyph-name="c" unicode="c" horiz-adv-x="518" 
d="M516 44q-11 -7 -29 -17t-43.5 -19t-58.5 -15.5t-73 -6.5q-54 0 -104.5 17t-88.5 50.5t-61 84t-23 117.5q0 64 22.5 114.5t61 84.5t90 52t109.5 18q53 0 99.5 -13.5t69.5 -36.5q11 -11 17.5 -23.5t6.5 -29.5t-6 -31t-15 -25t-18.5 -19.5t-16.5 -12.5q-18 18 -50 33.5
t-76 15.5q-26 0 -49.5 -8t-41 -24t-28 -40t-10.5 -55q0 -33 10.5 -56.5t28 -38.5t41.5 -22t51 -7q23 0 42.5 4.5t34.5 10.5t25 11.5t13 8.5z" />
    <glyph glyph-name="d" unicode="d" horiz-adv-x="632" 
d="M589 278q0 -64 -13 -111t-37 -79q-38 -50 -97 -76t-131 -26q-59 0 -109.5 19.5t-87.5 54.5t-58 85t-21 110q0 61 19.5 110.5t53 84.5t78.5 54.5t96 19.5q56 0 92.5 -18.5t54.5 -36.5v197q0 39 23 55t61 16q27 0 48.5 -6.5t27.5 -8.5v-444zM315 134q50 0 82.5 32t32.5 88
q0 26 -8.5 48.5t-24 39t-36.5 26t-46 9.5q-50 0 -82.5 -34.5t-32.5 -88.5t32.5 -87t82.5 -33z" />
    <glyph glyph-name="e" unicode="e" horiz-adv-x="561" 
d="M206 188q2 -12 10.5 -23.5t24 -21.5t39.5 -16t58 -6q26 0 49 4.5t40 9.5t28 10t13 7l56 -112q-8 -5 -26.5 -14t-46.5 -18t-65.5 -15.5t-82.5 -6.5q-56 0 -105 18t-85.5 52.5t-57.5 84.5t-21 114q0 60 21 110t58 85t87 54.5t108 19.5q54 0 97 -14.5t72.5 -39.5t45 -57
t15.5 -66q0 -37 -13 -66.5t-46.5 -50t-91 -31.5t-146.5 -11h-35zM198 292q67 0 104 5t55 13t22 18t4 20q0 21 -19 36.5t-57 15.5q-27 0 -47 -9.5t-33.5 -24.5t-20.5 -34.5t-8 -39.5z" />
    <glyph glyph-name="f" unicode="f" horiz-adv-x="425" 
d="M60 526q0 55 15.5 95t43.5 65.5t67.5 38t87.5 12.5q42 0 73.5 -6.5t54.5 -20.5q12 -7 23 -20.5t11 -35.5q0 -23 -13.5 -42.5t-29.5 -27.5q-12 11 -37.5 19.5t-52.5 8.5q-38 0 -60 -20t-22 -60v-22h111q45 0 64 -18t19 -54q0 -26 -8 -48.5t-12 -29.5h-174v-360h-161v526z
" />
    <glyph glyph-name="g" unicode="g" horiz-adv-x="632" 
d="M123 -50q3 -2 16 -7t33.5 -10.5t48 -10t59.5 -4.5t59.5 7t47 23.5t30.5 42t11 63.5v11q-5 -5 -16.5 -14t-30 -18t-43.5 -16t-56 -7q-54 0 -99.5 16.5t-78.5 48.5t-51 78.5t-18 105.5t21 107.5t58 83.5t88.5 54.5t113.5 19.5q69 0 127.5 -26t96.5 -76q24 -32 36.5 -75
t12.5 -109v-149q0 -78 -22 -134.5t-61 -93t-92.5 -54t-116.5 -17.5q-44 0 -81 5.5t-65.5 13t-47 15t-24.5 11.5zM200 259q0 -57 32 -85t82 -28q49 0 81.5 31t32.5 82t-32.5 83.5t-81.5 32.5q-25 0 -46 -9t-36 -25t-23.5 -37t-8.5 -45z" />
    <glyph glyph-name="h" unicode="h" horiz-adv-x="617" 
d="M55 666q0 39 23 55t61 16q27 0 48.5 -6.5t27.5 -8.5v-242q19 17 52 31t85 14q45 0 83 -12.5t66.5 -39t44.5 -67t16 -95.5v-311h-161v278q0 51 -22.5 74t-67.5 23t-70 -27t-25 -84v-264h-161v666z" />
    <glyph glyph-name="i" unicode="i" horiz-adv-x="281" 
d="M60 439q0 39 23 55t61 16q27 0 49 -6.5t28 -8.5v-495h-161v439zM51 647q0 38 25.5 64t63.5 26t64 -26t26 -64t-26 -63.5t-64 -25.5t-63.5 25.5t-25.5 63.5z" />
    <glyph glyph-name="j" unicode="j" horiz-adv-x="281" 
d="M-89 -60q13 -7 34 -12t42 -5q29 0 51 15t22 57v444q0 39 23 55t61 16q27 0 49 -6.5t28 -8.5v-487q0 -63 -17 -105t-46 -67t-66.5 -35.5t-78.5 -10.5q-23 0 -46 3.5t-42.5 9t-34 10.5t-19.5 8zM51 647q0 38 25.5 64t63.5 26t64 -26t26 -64t-26 -63.5t-64 -25.5t-63.5 25.5
t-25.5 63.5z" />
    <glyph glyph-name="k" unicode="k" horiz-adv-x="601" 
d="M55 666q0 39 23 55t61 16q27 0 49 -6.5t28 -8.5v-382l38.5 31.5l40 33l37 31t28.5 24.5l26.5 22.5t24 15.5t26.5 9t34 3t37 -6t30 -14.5t22 -18t13 -16.5q-19 -20 -47.5 -45l-59 -49.5l-59 -47l-46.5 -37.5q62 -56 125.5 -128.5t114.5 -147.5h-199q-20 27 -44 55t-49 54
l-49 49.5l-44 43.5v-202h-161v666z" />
    <glyph glyph-name="l" unicode="l" horiz-adv-x="281" 
d="M60 666q0 39 23 55t61 16q27 0 49 -6.5t28 -8.5v-722h-161v666z" />
    <glyph glyph-name="m" unicode="m" horiz-adv-x="929" 
d="M55 327q0 49 17.5 85.5t48 61.5t72 37.5t90.5 12.5q60 0 107 -20t76 -56q29 36 75 56t106 20q48 0 89.5 -12.5t72 -37.5t48 -61.5t17.5 -85.5v-327h-161v281q0 51 -21 73t-59 22q-39 0 -63.5 -26t-24.5 -83v-267h-161v267q0 57 -24 83t-63 26q-38 0 -59.5 -22t-21.5 -73
v-281h-161v327z" />
    <glyph glyph-name="n" unicode="n" horiz-adv-x="604" 
d="M40 309q0 52 20 92.5t55 67.5t81 41t99 14q52 0 98.5 -14t81 -41t54.5 -67.5t20 -92.5v-309h-161v272q0 53 -24 78.5t-69 25.5q-94 0 -94 -104v-272h-161v309z" />
    <glyph glyph-name="o" unicode="o" horiz-adv-x="634" 
d="M35 255q0 58 22 107t60.5 85t89.5 56.5t110 20.5q58 0 109.5 -20.5t90 -56.5t60.5 -85t22 -107t-22 -107t-60.5 -85t-90 -56.5t-109.5 -20.5q-59 0 -110 20.5t-89.5 56.5t-60.5 85t-22 107zM317 130q25 0 46.5 9.5t37.5 26t24.5 39.5t8.5 50t-8.5 50t-24.5 39.5t-37.5 26
t-46.5 9.5q-26 0 -47 -9.5t-37 -26t-24.5 -39.5t-8.5 -50t8.5 -50t24.5 -39.5t37 -26t47 -9.5z" />
    <glyph glyph-name="p" unicode="p" horiz-adv-x="632" 
d="M43 -200v432q0 64 13 111t37 79q38 50 97 76t131 26q59 0 109.5 -19.5t87.5 -54.5t58 -85t21 -110q0 -61 -19.5 -110t-53 -84t-78.5 -54t-96 -19q-56 0 -92.5 17.5t-54.5 35.5v-241h-160zM317 133q50 0 82.5 34.5t32.5 88.5t-32.5 87t-82.5 33t-82.5 -32t-32.5 -88
q0 -26 8.5 -48.5t24 -39t36.5 -26t46 -9.5z" />
    <glyph glyph-name="q" unicode="q" horiz-adv-x="632" 
d="M429 41q-18 -18 -54.5 -35.5t-92.5 -17.5q-51 0 -96 19t-78.5 54t-53 84t-19.5 110q0 60 21 110t58 85t87.5 54.5t109.5 19.5q72 0 131 -26t97 -76q24 -32 37 -79t13 -111v-432h-160v241zM315 133q25 0 46 9.5t36.5 26t24 39t8.5 48.5q0 56 -32.5 88t-82.5 32t-82.5 -33
t-32.5 -87t32.5 -88.5t82.5 -34.5z" />
    <glyph glyph-name="r" unicode="r" horiz-adv-x="438" 
d="M55 320q0 49 16.5 87t45.5 64t70 39.5t90 13.5q60 0 93.5 -13t48.5 -28q9 -10 14 -21t5 -26t-4.5 -28t-11 -23t-12.5 -17t-9 -10q-17 8 -41 15t-53 7q-38 0 -64.5 -22t-26.5 -73v-285h-161v320z" />
    <glyph glyph-name="s" unicode="s" horiz-adv-x="564" 
d="M82 156q8 -6 26.5 -14.5t44 -16t58 -13t68.5 -5.5q41 0 62 7.5t21 26.5q0 20 -17.5 27.5t-54.5 12.5l-52 6q-39 5 -75 14.5t-63.5 28t-43.5 47.5t-16 73q0 37 13.5 68.5t42.5 55t74 37t107 13.5q63 0 108.5 -8t78.5 -25q19 -10 30.5 -24.5t11.5 -35.5q0 -16 -6.5 -28.5
t-15 -21.5t-16 -14t-9.5 -6q-3 3 -16.5 11t-36 15.5t-54 13.5t-71.5 6q-45 0 -62.5 -10.5t-17.5 -27.5t16 -24t48 -12l91 -13q34 -5 65.5 -14.5t56 -27.5t39 -46t14.5 -68q0 -84 -64 -131t-177 -47q-59 0 -104.5 8t-78.5 18.5t-53.5 22t-28.5 17.5z" />
    <glyph glyph-name="t" unicode="t" horiz-adv-x="444" 
d="M55 589q0 39 23 55t61 16q27 0 49 -6.5t28 -8.5v-135h115q45 0 64 -18t19 -54q0 -26 -8 -48.5t-12 -29.5h-178v-157q0 -23 7 -36.5t17.5 -21.5t24 -10.5t27.5 -2.5q28 0 51 8.5t33 14.5l63 -110q-9 -8 -26 -18t-41 -19t-54 -15.5t-63 -6.5q-94 0 -147 49.5t-53 132.5v421
z" />
    <glyph glyph-name="u" unicode="u" horiz-adv-x="620" 
d="M216 238q0 -104 94 -104t94 104v201q0 39 23 55t61 16q27 0 49 -6.5t28 -8.5v-287q0 -56 -19.5 -97.5t-53.5 -69t-81 -41.5t-101 -14t-101 14t-81 41.5t-53.5 69t-19.5 97.5v231q0 39 23 55t61 16q27 0 49 -6.5t28 -8.5v-257z" />
    <glyph glyph-name="v" unicode="v" horiz-adv-x="590" 
d="M211 0q-31 55 -60.5 113l-53.5 108.5l-40 86t-20 45.5l-17.5 45t-9.5 45q0 28 20 47.5t60 19.5q32 0 52 -6.5t23 -8.5l36 -99l36.5 -92.5l31.5 -75l20 -45.5q6 13 19 44.5l28.5 70l31 77l26.5 65.5q6 15 13.5 28t18 22.5t25.5 14.5t37 5q20 0 36 -4t28 -9t19 -9.5t9 -5.5
q-4 -18 -19 -54.5l-35.5 -83.5l-44.5 -98.5l-47 -99.5l-43 -86.5l-31 -59.5h-149z" />
    <glyph glyph-name="w" unicode="w" horiz-adv-x="837" 
d="M173 0q-25 55 -48.5 112l-42.5 105.5l-32.5 84.5t-17.5 48l-13.5 38t-8.5 52t19.5 49t59.5 21q32 0 50 -6t24 -9l25.5 -89.5l24.5 -84.5l22 -73t17 -54q6 18 16 52.5l20.5 72.5l20.5 72.5l15 52.5q9 30 25.5 48t59.5 18q26 0 48 -7.5t27 -10.5l25.5 -89.5l23.5 -83.5
l20.5 -71.5l15.5 -53.5l14 43l17 55l18.5 63l18.5 66q13 46 34 67.5t65 21.5q20 0 36 -4t28 -9t18.5 -9.5t8.5 -5.5q-7 -29 -27 -87t-46.5 -127.5l-55.5 -141t-55 -126.5h-154q-6 16 -16 50l-21.5 73.5l-23 78.5l-20.5 67q-9 -28 -20.5 -68l-23 -79.5l-21.5 -73t-15 -48.5
h-155z" />
    <glyph glyph-name="x" unicode="x" horiz-adv-x="638" 
d="M10 0l24.5 29.5l45.5 55l59.5 72l66.5 80.5l-81 87t-45 50t-24.5 34.5t-10.5 40.5q0 24 19.5 42.5t62.5 18.5q26 0 48 -7t27 -9q2 -3 14.5 -18l29.5 -36l35.5 -43.5l32.5 -38.5l26.5 34.5l28 35l23.5 28.5t14 16q17 20 37 29t47 9q21 0 39 -5t32 -12.5t24 -15t13 -12.5
l-29 -34l-43 -51l-52.5 -63l-57.5 -69l212 -248h-203l-16 18.5l-26 30l-33.5 39l-38.5 44.5l-65 -80l-42 -52h-194z" />
    <glyph glyph-name="y" unicode="y" horiz-adv-x="620" 
d="M114 -55q4 -2 17.5 -6.5t33.5 -9t45.5 -8t52.5 -3.5q77 0 111 33t34 109q-19 -23 -58 -36.5t-78 -13.5q-46 0 -85.5 11.5t-69 35.5t-46 60.5t-16.5 86.5v235q0 39 23 55t61 16q27 0 49 -6.5t28 -8.5v-258q0 -48 22.5 -69t70.5 -21q45 0 70 26t25 80v186q0 39 23 55t61 16
q27 0 49 -6.5t28 -8.5v-424q0 -76 -20 -129.5t-57 -87t-88 -49t-114 -15.5q-44 0 -81 5t-65 11.5t-45 12.5t-20 8z" />
    <glyph glyph-name="z" unicode="z" horiz-adv-x="549" 
d="M19 125l71.5 62.5l81.5 71.5l72.5 64l44.5 40h-187q-45 0 -64 16.5t-19 52.5q0 26 8 48.5t12 29.5h396q35 0 57.5 -19.5t22.5 -57.5q0 -25 -10.5 -45t-35.5 -43q-6 -6 -23 -21.5l-39.5 -36l-48.5 -44l-50 -44.5l-44 -38l-30 -25h283v-136h-498v125z" />
    <glyph glyph-name="braceleft" unicode="{" horiz-adv-x="383" 
d="M273 -127q-76 0 -119.5 42.5t-43.5 121.5v109q0 43 -18.5 61.5t-50.5 18.5h-26v157h26q32 0 50.5 18.5t18.5 61.5v109q0 79 43.5 121.5t119.5 42.5h85q3 -6 9 -29t6 -47q0 -35 -14.5 -55.5t-47.5 -20.5q-29 0 -36 -13.5t-7 -30.5v-103q0 -59 -18.5 -89.5t-41.5 -43.5
q12 -6 22.5 -16.5t19 -26.5t13.5 -37.5t5 -51.5v-103q0 -9 1 -17t5.5 -14t13.5 -9.5t25 -3.5h49v-152h-89z" />
    <glyph glyph-name="bar" unicode="|" horiz-adv-x="284" 
d="M70 674q0 35 20.5 49t55.5 14q25 0 44 -5.5t24 -7.5v-856h-144v806z" />
    <glyph glyph-name="braceright" unicode="}" horiz-adv-x="383" 
d="M21 25h49q16 0 25 3.5t13.5 9.5t5.5 14t1 17v103q0 30 5 51.5t13.5 37.5t19 26.5t22.5 16.5q-23 13 -41.5 43.5t-18.5 89.5v103q0 17 -7 30.5t-36 13.5q-33 0 -47.5 20.5t-14.5 55.5q0 24 6 47t9 29h85q76 0 119.5 -42.5t43.5 -121.5v-109q0 -43 18.5 -61.5t50.5 -18.5
h26v-157h-26q-32 0 -50.5 -18.5t-18.5 -61.5v-109q0 -79 -43.5 -121.5t-119.5 -42.5h-89v152z" />
    <glyph glyph-name="asciitilde" unicode="~" horiz-adv-x="630" 
d="M41 245q0 43 8.5 78.5t27.5 61t50 39.5t75 14q38 0 76 -11.5l73 -21.5q30 -9 44.5 -12.5t28.5 -3.5q17 0 27 10t12 41h125q0 -43 -8.5 -78.5t-27.5 -61t-50 -39.5t-75 -14q-38 0 -76 11.5l-73 21.5q-30 9 -44.5 12.5t-28.5 3.5q-17 0 -27 -10t-12 -41h-125z" />
    <glyph glyph-name="uni00A0" unicode="&#xa0;" horiz-adv-x="246" 
 />
    <glyph glyph-name="exclamdown" unicode="&#xa1;" horiz-adv-x="278" 
d="M59 434h161v-370q0 -39 -23 -55t-61 -16q-27 0 -49 6.5t-28 8.5v426zM43 603q0 19 7.5 36t21 29.5t30.5 20t37 7.5q19 0 36.5 -7.5t31 -20t21 -29.5t7.5 -36t-7.5 -35.5t-21 -29t-31 -20t-36.5 -7.5q-20 0 -37 7.5t-30.5 20t-21 29t-7.5 35.5z" />
    <glyph glyph-name="cent" unicode="&#xa2;" horiz-adv-x="547" 
d="M284 76q-48 6 -91.5 25.5t-76 52.5t-51.5 80.5t-19 108.5q0 58 18.5 104.5t50.5 80t75.5 54.5t93.5 27v83q0 20 11.5 29t31.5 9q15 0 26.5 -3.5t14.5 -4.5v-112q42 -5 76.5 -17.5t53.5 -30.5q11 -11 17.5 -23.5t6.5 -29.5t-6 -31t-15 -25t-18.5 -19.5t-16.5 -12.5
q-15 15 -40 28.5t-58 18.5v-248q36 5 59.5 17t29.5 17l70 -122q-18 -12 -57.5 -30.5t-101.5 -25.5v-112h-84v112zM284 459q-32 -13 -52.5 -42t-20.5 -74q0 -47 20.5 -75t52.5 -40v231z" />
    <glyph glyph-name="sterling" unicode="&#xa3;" horiz-adv-x="612" 
d="M85 445q0 126 73.5 192.5t200.5 66.5q66 0 115.5 -16t74.5 -38q12 -11 19.5 -24t7.5 -31t-7 -33t-17.5 -27t-21.5 -20.5t-20 -13.5q-20 19 -56 36t-88 17q-64 0 -92.5 -31t-28.5 -81v-13h181q45 0 64 -18.5t19 -54.5q0 -26 -8 -49t-12 -30h-244v-125h331v-152h-491v445z
" />
    <glyph glyph-name="currency" unicode="&#xa4;" horiz-adv-x="650" 
d="M144 66l-96 96l66 66q-14 26 -22 54.5t-8 60.5t8 60.5t22 54.5l-66 66l96 96l68 -67q26 13 54 20t59 7q30 0 58.5 -7.5t54.5 -20.5l68 68l96 -96l-66 -66q14 -26 22 -54.5t8 -60.5q0 -31 -8 -60t-22 -55l66 -66l-96 -96l-67 68q-26 -13 -54 -20.5t-60 -7.5q-31 0 -59 7.5
t-54 20.5zM325 224q24 0 45 9.5t37 25.5t25 37.5t9 46.5t-9 46.5t-25 37.5t-37 25.5t-45 9.5t-45.5 -9.5t-37 -25.5t-24.5 -37.5t-9 -46.5t9 -46.5t24.5 -37.5t37 -25.5t45.5 -9.5z" />
    <glyph glyph-name="yen" unicode="&#xa5;" horiz-adv-x="677" 
d="M245 158h-157q-26 0 -37 13t-11 36q0 17 4 29t6 17h195q-14 17 -28.5 36.5l-28.5 39.5h-100q-26 0 -37 13t-11 36q0 17 4 29t6 17h73l-40 58q-32 47 -48.5 75.5t-16.5 57.5q0 37 23 54t55 17q28 0 45.5 -5t23.5 -8l33.5 -54.5l43 -72l46 -77l43.5 -69.5l34.5 57l34 60
l32 57.5l28.5 50.5q6 9 14.5 20t21 20t29.5 15t40 6q18 0 34 -4.5t28.5 -10.5t20.5 -12t11 -9q-7 -15 -20.5 -39.5t-32 -54.5l-39.5 -64l-43 -68h48q27 0 37.5 -13.5t10.5 -35.5q0 -17 -4 -29.5t-6 -16.5h-145l-53 -76h160q27 0 37.5 -13.5t10.5 -35.5q0 -17 -4 -29.5
t-6 -16.5h-198v-158h-167v158z" />
    <glyph glyph-name="brokenbar" unicode="&#xa6;" horiz-adv-x="284" 
d="M70 157h144v-289h-144v289zM70 674q0 35 20.5 49t55.5 14q25 0 44 -5.5t24 -7.5v-278h-144v228z" />
    <glyph glyph-name="section" unicode="&#xa7;" horiz-adv-x="646" 
d="M103 -16q3 -2 20.5 -10t46.5 -17t68 -16t86 -7t78 14t31 46q0 23 -19 39.5t-69 24.5l-94 13q-46 7 -83.5 21.5t-64.5 37t-41.5 52.5t-14.5 67q0 50 23 85.5t60 56.5q-21 11 -36.5 28.5t-26 37.5t-15.5 41t-5 40q0 37 13.5 72.5t44.5 63.5t82.5 45.5t126.5 17.5
q70 0 122 -9.5t84 -26.5q21 -11 33.5 -27t12.5 -39q0 -18 -7 -32t-16 -24t-17.5 -15t-10.5 -6q-4 4 -19 12t-40 16t-58 14t-73 6q-53 0 -80 -17t-27 -47q0 -22 17.5 -36t58.5 -20l117 -17q53 -8 89.5 -23.5t59.5 -37t33 -49t10 -58.5q0 -36 -12 -62.5t-27 -45t-29.5 -28.5
t-19.5 -12q16 -10 32 -22.5t28.5 -30.5t20 -41.5t7.5 -55.5q0 -44 -16.5 -81t-50.5 -64t-86 -42.5t-123 -15.5q-65 0 -117 9t-88.5 20t-56.5 20.5l-22 10.5zM210 274q0 -13 5.5 -27t21 -25.5t44 -19t74.5 -7.5q35 0 60 18.5t25 54.5q0 13 -5.5 27t-21.5 25.5t-44 19t-74 7.5
q-35 0 -60 -18.5t-25 -54.5z" />
    <glyph glyph-name="dieresis" unicode="&#xa8;" horiz-adv-x="500" 
d="M70 642q0 13 6 26t16.5 23t24 16t28.5 6q30 0 51.5 -22t21.5 -49q0 -28 -21.5 -50t-51.5 -22q-15 0 -28.5 6t-24 16t-16.5 23t-6 27zM283 642q0 27 21.5 49t52.5 22t52 -22t21 -49q0 -28 -21 -50t-52 -22t-52.5 22t-21.5 50z" />
    <glyph glyph-name="copyright" unicode="&#xa9;" horiz-adv-x="816" 
d="M40 343q0 76 29 143t79 117t117 79t143 29t143 -29t117 -79t79 -117t29 -143t-29 -143t-79 -117t-117 -79t-143 -29t-143 29t-117 79t-79 117t-29 143zM408 70q55 0 103 21.5t84 58t56.5 86.5t20.5 107t-20.5 107t-56.5 86.5t-84 58t-103 21.5t-103 -21.5t-84 -58
t-56.5 -86.5t-20.5 -107t20.5 -107t56.5 -86.5t84 -58t103 -21.5zM570 186q-6 -5 -18.5 -12.5t-30.5 -14t-42 -11.5t-54 -5q-43 0 -81 12.5t-66.5 37t-45.5 62t-17 87.5q0 49 16.5 86.5t45 63t66.5 38.5t82 13q38 0 72 -10.5t51 -26.5q8 -7 12.5 -15.5t4.5 -22.5
q0 -24 -14.5 -41t-25.5 -23q-13 12 -37 24t-55 12q-43 0 -69 -25.5t-26 -73.5q0 -46 27.5 -70.5t72.5 -24.5q28 0 48.5 8t34.5 18z" />
    <glyph glyph-name="ordfeminine" unicode="&#xaa;" horiz-adv-x="432" 
d="M389 319q-13 -2 -32.5 -4.5t-42.5 -4.5t-48 -3.5t-50 -1.5q-63 0 -102.5 11.5t-61.5 30.5t-30 42.5t-8 46.5q0 29 10 52t33 38.5t59.5 24t89.5 8.5q15 0 32 -1t32 -2q0 29 -22.5 41t-59.5 12q-23 0 -42 -3.5t-32.5 -8t-21 -8.5t-8.5 -5l-6 6t-10 12.5t-9.5 16.5t-4.5 17
q0 16 7.5 26t18.5 18t37.5 16t71.5 8q94 0 147 -39t53 -124v-222zM270 475q-5 1 -21 2t-39 1q-38 0 -56.5 -8t-18.5 -33q0 -21 18.5 -30.5t67.5 -9.5q21 0 31.5 1.5l17.5 2.5v74z" />
    <glyph glyph-name="guillemotleft" unicode="&#xab;" horiz-adv-x="643" 
d="M230 19l-172 175q-11 12 -19.5 28.5t-8.5 34.5t8.5 34t19.5 28l172 176l91 -84l-130 -154l130 -154zM522 19l-172 175q-11 12 -19.5 28.5t-8.5 34.5t8.5 34t19.5 28l172 176l91 -84l-130 -154l130 -154z" />
    <glyph glyph-name="logicalnot" unicode="&#xac;" horiz-adv-x="630" 
d="M507 508q39 0 55 -21t16 -59v-250h-158v177h-297q-39 0 -55 21t-16 59q0 27 6.5 47.5t8.5 25.5h440z" />
    <glyph glyph-name="uni00AD" unicode="&#xad;" horiz-adv-x="337" 
d="M242 348q36 0 50.5 -21.5t14.5 -56.5q0 -25 -6 -45.5t-8 -25.5h-198q-36 0 -50.5 21.5t-14.5 56.5q0 25 6 45.5t8 25.5h198z" />
    <glyph glyph-name="registered" unicode="&#xae;" horiz-adv-x="816" 
d="M246 484q0 26 14.5 37.5t33.5 14.5q10 2 30.5 4t57.5 2q53 0 88 -10.5t56 -28.5t30 -41.5t9 -48.5q0 -32 -12 -57t-44 -42q17 -27 36 -70t34 -82h-122l-7.5 21.5t-13 34.5l-15.5 38t-14 30q-4 -1 -11.5 -1h-13.5h-16t-15 1v-124h-105v322zM351 371q2 0 9.5 -0.5
t29.5 -0.5q40 0 52.5 12.5t12.5 29.5q0 7 -2.5 15.5t-9.5 15.5t-21 11.5t-36 4.5q-17 0 -25 -0.5t-10 -0.5v-87zM40 343q0 76 29 143t79 117t117 79t143 29t143 -29t117 -79t79 -117t29 -143t-29 -143t-79 -117t-117 -79t-143 -29t-143 29t-117 79t-79 117t-29 143zM408 70
q55 0 103 21.5t84 58t56.5 86.5t20.5 107t-20.5 107t-56.5 86.5t-84 58t-103 21.5t-103 -21.5t-84 -58t-56.5 -86.5t-20.5 -107t20.5 -107t56.5 -86.5t84 -58t103 -21.5z" />
    <glyph glyph-name="macron" unicode="&#xaf;" horiz-adv-x="500" 
d="M375 692q27 0 37.5 -13.5t10.5 -35.5q0 -17 -4 -29.5t-6 -16.5h-286q-26 0 -37 13t-11 36q0 17 4 29t6 17h286z" />
    <glyph glyph-name="degree" unicode="&#xb0;" horiz-adv-x="402" 
d="M18 557q0 38 14.5 71t39 57t58 38t71.5 14t71.5 -14t58 -38t39 -57t14.5 -71t-14.5 -70.5t-39 -56.5t-58 -38t-71.5 -14t-71.5 14t-58 38t-39 56.5t-14.5 70.5zM201 483q32 0 53.5 22t21.5 52q0 32 -21.5 54t-53.5 22q-30 0 -52 -22t-22 -54q0 -30 22 -52t52 -22z" />
    <glyph glyph-name="plusminus" unicode="&#xb1;" horiz-adv-x="630" 
d="M236 153v121h-113q-39 0 -55 21t-16 59q0 27 6.5 47.5t8.5 25.5h169v107q0 39 22.5 55t60.5 16q27 0 48 -6.5t27 -8.5v-163h113q39 0 55 -21t16 -59q0 -27 -6.5 -47.5t-8.5 -25.5h-169v-121h113q39 0 55 -21t16 -59q0 -27 -6.5 -47.5t-8.5 -25.5h-440q-39 0 -55 21
t-16 59q0 27 6.5 47.5t8.5 25.5h169z" />
    <glyph glyph-name="twosuperior" unicode="&#xb2;" 
d="M48 387q4 2 22.5 13l43 26l50.5 32t46 32q23 17 43 40t20 46q0 19 -12.5 32.5t-42.5 13.5q-19 0 -36 -8t-29.5 -18.5t-20.5 -21t-10 -14.5q-5 1 -17 4.5t-24 11.5t-21 20.5t-9 32.5q0 22 14.5 42t38.5 34.5t55.5 23t66.5 8.5q51 0 88 -11.5t61.5 -32.5t36.5 -49t12 -61
q0 -36 -18.5 -65t-43 -51.5t-50 -38t-38.5 -22.5h153v-119h-379v100z" />
    <glyph glyph-name="threesuperior" unicode="&#xb3;" 
d="M71 421q2 -1 13.5 -6t31 -11t45.5 -10.5t56 -4.5q35 0 50 9.5t15 25.5q0 13 -12.5 24.5t-52.5 11.5h-47q-2 1 -11.5 13t-9.5 38q0 24 13 35t47 11h7q35 0 47.5 9.5t12.5 25.5q0 12 -12.5 23.5t-52.5 11.5q-26 0 -45 -6t-32.5 -13.5t-21 -14t-8.5 -8.5q-6 1 -15.5 5.5
t-19 11.5t-16.5 17.5t-7 24.5t5.5 26t14.5 21q5 6 16.5 13.5t30.5 15t47 12.5t66 5q55 0 93.5 -12.5t62.5 -31t34.5 -41.5t10.5 -44q0 -34 -17.5 -58t-49.5 -38q74 -28 74 -102q0 -27 -12.5 -51.5t-37 -42.5t-62 -29t-86.5 -11q-45 0 -81.5 6t-63 13t-42 13.5t-18.5 8.5z
" />
    <glyph glyph-name="acute" unicode="&#xb4;" horiz-adv-x="500" 
d="M123 636l115 73q17 11 33.5 19.5t33.5 8.5q22 0 36 -11t22 -25t11.5 -26t3.5 -15l-211 -90z" />
    <glyph glyph-name="mu" unicode="&#xb5;" horiz-adv-x="620" 
d="M55 -200v639q0 39 23 55t61 16q27 0 49 -6.5t28 -8.5v-271q0 -30 10 -50t28 -32t42 -17t52 -5q19 0 34 1.5t22 3.5v314q0 39 23 55t61 16q27 0 49 -6.5t28 -8.5v-495q-11 -2 -58.5 -8t-122.5 -6q-42 0 -72.5 5.5t-50.5 13.5t-31 15.5t-15 12.5v-233h-160z" />
    <glyph glyph-name="paragraph" unicode="&#xb6;" horiz-adv-x="618" 
d="M245 -200v417q-100 10 -154.5 72.5t-54.5 165.5q0 46 15 89.5t49.5 77t89.5 54t136 20.5q64 0 98.5 -3.5t54.5 -7.5q13 -2 25.5 -7.5t22 -16t15.5 -26.5t6 -38v-797h-107v787q-9 1 -22.5 1.5l-27 1t-24.5 0.5h-15v-790h-107z" />
    <glyph glyph-name="periodcentered" unicode="&#xb7;" horiz-adv-x="337" 
d="M169 246q-20 0 -37 7.5t-30.5 21t-21 31t-7.5 37.5q0 19 7.5 36.5t21 31t30.5 21t37 7.5q19 0 36.5 -7.5t31 -21t21 -31t7.5 -36.5q0 -20 -7.5 -37.5t-21 -31t-31 -21t-36.5 -7.5z" />
    <glyph glyph-name="cedilla" unicode="&#xb8;" horiz-adv-x="500" 
d="M145 -114q2 -2 11 -5t22.5 -7t28.5 -6.5t29 -2.5q21 0 29.5 5.5t8.5 17.5q0 14 -19.5 21t-39.5 7l17 59q26 0 53 -4.5t49 -15t36 -27t14 -41.5q0 -45 -36.5 -71.5t-99.5 -26.5q-57 0 -90 11t-42 18z" />
    <glyph glyph-name="onesuperior" unicode="&#xb9;" 
d="M197 574l-70 -46q-3 1 -13 5.5t-21.5 13t-20.5 21t-9 29.5q0 20 11 35t37 32l66 42q26 16 43.5 23.5t42.5 7.5q28 0 48.5 -9t28.5 -15v-426h-143v287z" />
    <glyph glyph-name="ordmasculine" unicode="&#xba;" horiz-adv-x="465" 
d="M23 504q0 42 16 78.5t44.5 63.5t66.5 42.5t82 15.5t82.5 -15.5t67 -42.5t44.5 -63.5t16 -78.5t-16 -78t-44.5 -63t-67 -42.5t-82.5 -15.5t-82 15.5t-66.5 42.5t-44.5 63t-16 78zM232 420q35 0 56.5 24.5t21.5 59.5t-21.5 60t-56.5 25t-56 -25t-21 -60t21 -59.5t56 -24.5z
" />
    <glyph glyph-name="guillemotright" unicode="&#xbb;" horiz-adv-x="643" 
d="M452 257l-130 154l91 84l172 -176q11 -12 19.5 -28t8.5 -34t-8.5 -34.5t-19.5 -28.5l-172 -175l-91 84zM160 257l-130 154l91 84l172 -176q11 -12 19.5 -28t8.5 -34t-8.5 -34.5t-19.5 -28.5l-172 -175l-91 84z" />
    <glyph glyph-name="onequarter" unicode="&#xbc;" horiz-adv-x="1020" 
d="M164 574l-70 -46q-3 1 -13 5.5t-21.5 13t-20.5 21t-9 29.5q0 20 11 35t37 32l66 42q26 16 43.5 23.5t42.5 7.5q28 0 48.5 -9t28.5 -15v-426h-143v287zM596 686q12 21 28 36t51 15q17 0 31.5 -4t25.5 -9t18 -10t9 -6l-411 -708h-150zM782 85h-133q-49 0 -75.5 17.5
t-26.5 62.5q0 41 23.5 83.5t53.5 77.5q22 25 49 48.5t55.5 41.5t56.5 28.5t52 10.5q30 0 49.5 -5t28.5 -10v-252h9q26 0 36 -14.5t10 -29.5q0 -18 -4 -33t-9 -26h-42v-80h-133v80zM782 190v128q-19 -11 -38 -27.5t-29 -28.5q-14 -17 -21.5 -31.5t-7.5 -25.5q0 -9 5.5 -12
t15.5 -3h75z" />
    <glyph glyph-name="onehalf" unicode="&#xbd;" horiz-adv-x="1058" 
d="M164 574l-70 -46q-3 1 -13 5.5t-21.5 13t-20.5 21t-9 29.5q0 20 11 35t37 32l66 42q26 16 43.5 23.5t42.5 7.5q28 0 48.5 -9t28.5 -15v-426h-143v287zM597 686q12 21 28 36t51 15q17 0 31.5 -4t25.5 -9t18 -10t9 -6l-411 -708h-150zM619 105q4 2 22.5 13l43 26l50.5 32
t46 32q23 17 43 40t20 46q0 19 -12.5 32.5t-42.5 13.5q-19 0 -36 -8t-29.5 -18.5t-20.5 -21t-10 -14.5q-5 1 -17 4.5t-24 11.5t-21 20.5t-9 32.5q0 22 14.5 42t38.5 34.5t55.5 23t66.5 8.5q51 0 88 -11.5t61.5 -32.5t36.5 -49t12 -61q0 -36 -18.5 -65t-43 -51.5t-50 -38
t-38.5 -22.5h153v-119h-379v100z" />
    <glyph glyph-name="threequarters" unicode="&#xbe;" horiz-adv-x="1100" 
d="M70 421q2 -1 13.5 -6t31 -11t45.5 -10.5t56 -4.5q35 0 50 9.5t15 25.5q0 13 -12.5 24.5t-52.5 11.5h-47q-2 1 -11.5 13t-9.5 38q0 24 13 35t47 11h7q35 0 47.5 9.5t12.5 25.5q0 12 -12.5 23.5t-52.5 11.5q-26 0 -45 -6t-32.5 -13.5t-21 -14t-8.5 -8.5q-6 1 -15.5 5.5
t-19 11.5t-16.5 17.5t-7 24.5t5.5 26t14.5 21q5 6 16.5 13.5t30.5 15t47 12.5t66 5q55 0 93.5 -12.5t62.5 -31t34.5 -41.5t10.5 -44q0 -34 -17.5 -58t-49.5 -38q74 -28 74 -102q0 -27 -12.5 -51.5t-37 -42.5t-62 -29t-86.5 -11q-45 0 -81.5 6t-63 13t-42 13.5t-18.5 8.5z
M674 686q12 21 28 36t51 15q17 0 31.5 -4t25.5 -9t18 -10t9 -6l-411 -708h-150zM862 85h-133q-49 0 -75.5 17.5t-26.5 62.5q0 41 23.5 83.5t53.5 77.5q22 25 49 48.5t55.5 41.5t56.5 28.5t52 10.5q30 0 49.5 -5t28.5 -10v-252h9q26 0 36 -14.5t10 -29.5q0 -18 -4 -33t-9 -26
h-42v-80h-133v80zM862 190v128q-19 -11 -38 -27.5t-29 -28.5q-14 -17 -21.5 -31.5t-7.5 -25.5q0 -9 5.5 -12t15.5 -3h75z" />
    <glyph glyph-name="questiondown" unicode="&#xbf;" horiz-adv-x="542" 
d="M385 459v-23q0 -50 -19 -81t-61 -55q-43 -24 -71.5 -48t-28.5 -63q0 -29 23 -52.5t78 -23.5q53 0 87 22.5t51 51.5q31 -8 54 -32t23 -53q0 -17 -5.5 -32.5t-19.5 -31.5q-8 -8 -22.5 -19t-39 -21t-60 -16.5t-83.5 -6.5q-65 0 -112 16t-78 43.5t-46 64t-15 76.5t9.5 70
t25 53.5t34.5 40.5t38 30q34 23 56 40.5t22 49.5h160zM209 603q0 19 7.5 36t21 29.5t30.5 20t37 7.5q19 0 36.5 -7.5t31 -20t21 -29.5t7.5 -36t-7.5 -35.5t-21 -29t-31 -20t-36.5 -7.5q-20 0 -37 7.5t-30.5 20t-21 29t-7.5 35.5z" />
    <glyph glyph-name="Agrave" unicode="&#xc0;" horiz-adv-x="769" 
d="M5 0l51 130.5l64.5 158l72 170.5l73.5 168q19 43 46.5 60t72.5 17q17 0 33.5 -4t29.5 -9.5t21 -10.5t10 -6q15 -25 39.5 -79l53.5 -121.5l60 -141.5l57.5 -140.5l46.5 -118l28 -73.5h-184l-24 64.5l-32 83.5h-291l-28.5 -77l-26.5 -71h-173zM467 299l-23 60.5l-25 65
l-22.5 58t-16.5 39.5q-6 -14 -16 -39.5l-22 -57l-25 -64.5l-24 -62h174zM230 828q0 3 3 16.5t11.5 28.5t24 27t40.5 12q18 0 36.5 -7t37.5 -17l135 -68l-35 -73z" />
    <glyph glyph-name="Aacute" unicode="&#xc1;" horiz-adv-x="769" 
d="M5 0l51 130.5l64.5 158l72 170.5l73.5 168q19 43 46.5 60t72.5 17q17 0 33.5 -4t29.5 -9.5t21 -10.5t10 -6q15 -25 39.5 -79l53.5 -121.5l60 -141.5l57.5 -140.5l46.5 -118l28 -73.5h-184l-24 64.5l-32 83.5h-291l-28.5 -77l-26.5 -71h-173zM467 299l-23 60.5l-25 65
l-22.5 58t-16.5 39.5q-6 -14 -16 -39.5l-22 -57l-25 -64.5l-24 -62h174zM279 820l135 68q19 10 37.5 17t36.5 7q25 0 40.5 -12t24 -27t11.5 -28.5t3 -16.5l-254 -81z" />
    <glyph glyph-name="Acircumflex" unicode="&#xc2;" horiz-adv-x="769" 
d="M5 0l51 130.5l64.5 158l72 170.5l73.5 168q19 43 46.5 60t72.5 17q17 0 33.5 -4t29.5 -9.5t21 -10.5t10 -6q15 -25 39.5 -79l53.5 -121.5l60 -141.5l57.5 -140.5l46.5 -118l28 -73.5h-184l-24 64.5l-32 83.5h-291l-28.5 -77l-26.5 -71h-173zM467 299l-23 60.5l-25 65
l-22.5 58t-16.5 39.5q-6 -14 -16 -39.5l-22 -57l-25 -64.5l-24 -62h174zM228 745l-40 63l109 68l41 23.5t46 12.5t47 -12.5t40 -23.5l109 -68l-40 -63l-156 62z" />
    <glyph glyph-name="Atilde" unicode="&#xc3;" horiz-adv-x="769" 
d="M5 0l51 130.5l64.5 158l72 170.5l73.5 168q19 43 46.5 60t72.5 17q17 0 33.5 -4t29.5 -9.5t21 -10.5t10 -6q15 -25 39.5 -79l53.5 -121.5l60 -141.5l57.5 -140.5l46.5 -118l28 -73.5h-184l-24 64.5l-32 83.5h-291l-28.5 -77l-26.5 -71h-173zM467 299l-23 60.5l-25 65
l-22.5 58t-16.5 39.5q-6 -14 -16 -39.5l-22 -57l-25 -64.5l-24 -62h174zM192 769q4 21 13 41.5t23.5 36.5t35 25.5t47.5 9.5q24 0 42.5 -4t31.5 -8l25 -8q11 -3 18.5 -4.5t17.5 -1.5q12 0 21 7.5t14 26.5l89 -18q-5 -21 -13.5 -41.5t-23 -36.5t-34.5 -25.5t-48 -9.5
q-21 0 -38.5 4.5l-37.5 9.5l-24 7q-8 2 -17.5 4t-17.5 2q-11 0 -20 -8t-14 -28z" />
    <glyph glyph-name="Adieresis" unicode="&#xc4;" horiz-adv-x="769" 
d="M5 0l51 130.5l64.5 158l72 170.5l73.5 168q19 43 46.5 60t72.5 17q17 0 33.5 -4t29.5 -9.5t21 -10.5t10 -6q15 -25 39.5 -79l53.5 -121.5l60 -141.5l57.5 -140.5l46.5 -118l28 -73.5h-184l-24 64.5l-32 83.5h-291l-28.5 -77l-26.5 -71h-173zM467 299l-23 60.5l-25 65
l-22.5 58t-16.5 39.5q-6 -14 -16 -39.5l-22 -57l-25 -64.5l-24 -62h174zM425 829q0 28 21.5 50.5t53.5 22.5t53.5 -22.5t21.5 -50.5t-21.5 -50.5t-53.5 -22.5t-53.5 22.5t-21.5 50.5zM193 829q0 14 6 27t16.5 23.5t24.5 16.5t29 6q31 0 53 -22.5t22 -50.5t-22 -50.5
t-53 -22.5q-15 0 -29 6t-24.5 16.5t-16.5 23.5t-6 27z" />
    <glyph glyph-name="Aring" unicode="&#xc5;" horiz-adv-x="769" 
d="M5 0l51 130.5l64.5 158l72 170.5l73.5 168q16 39 42 57q-17 15 -27.5 36.5t-10.5 46.5q0 23 9 43.5t25 36t37 24.5t45 9t44.5 -9t36 -24.5t24.5 -36t9 -43.5q0 -24 -10 -45.5t-27 -36.5q16 -12 30 -36q11 -20 33 -69.5l49.5 -114.5l57.5 -137.5l56.5 -138l46.5 -116.5
t28 -73h-184l-24 64.5l-32 83.5h-291l-28.5 -77l-26.5 -71h-173zM467 299l-23 60.5l-25 65l-22.5 58t-16.5 39.5q-6 -14 -16 -39.5l-22 -57l-25 -64.5l-24 -62h174zM386 721q20 0 31.5 12.5t11.5 33.5q0 20 -11.5 33t-31.5 13q-21 0 -32.5 -13t-11.5 -33q0 -21 11.5 -33.5
t32.5 -12.5z" />
    <glyph glyph-name="AE" unicode="&#xc6;" horiz-adv-x="1087" 
d="M5 0l65 117.5l83 145l94.5 162.5l100.5 169q18 29 34.5 47t33.5 28t36 13.5t41 3.5h464q46 0 65.5 -19.5t19.5 -56.5q0 -27 -8 -49.5t-13 -30.5h-318v-107h241q46 0 65.5 -19.5t19.5 -56.5q0 -27 -8 -49.5t-13 -30.5h-305v-111h334v-156h-501v166h-257l-56.5 -102
l-35.5 -64h-182zM536 317v210h-54l-118 -210h172z" />
    <glyph glyph-name="Ccedilla" unicode="&#xc7;" horiz-adv-x="671" 
d="M660 51q-11 -8 -31.5 -19.5t-51.5 -22.5t-73 -19t-95 -8q-75 0 -142 22.5t-117.5 67.5t-80 112t-29.5 156q0 87 28.5 154.5t78 114t116 71t143.5 24.5q41 0 74 -5t58.5 -13t43.5 -17t29 -16q23 -17 33 -35.5t10 -38.5q0 -19 -7.5 -36t-18 -30.5t-21 -23t-17.5 -13.5
q-10 10 -25.5 23.5t-37.5 24.5t-50.5 19t-63.5 8q-44 0 -80 -14.5t-62.5 -42t-41 -66.5t-14.5 -88q0 -50 16 -88t44 -63.5t66.5 -38.5t83.5 -13q56 0 96.5 14t61.5 29l75 -129h2zM247 -131q2 -2 11 -5t22.5 -7t28.5 -6.5t29 -2.5q21 0 29.5 5.5t8.5 17.5q0 14 -19.5 21
t-39.5 7l17 59q26 0 53 -4.5t49 -15t36 -27t14 -41.5q0 -45 -36.5 -71.5t-99.5 -26.5q-57 0 -90 11t-42 18z" />
    <glyph glyph-name="Egrave" unicode="&#xc8;" horiz-adv-x="641" 
d="M70 591q0 95 99 95h342q46 0 65.5 -19.5t19.5 -56.5q0 -27 -8 -49.5t-13 -30.5h-338v-107h261q46 0 65.5 -19.5t19.5 -56.5q0 -27 -8 -49.5t-13 -30.5h-325v-111h354v-156h-521v591zM176 828q0 3 3 16.5t11.5 28.5t24 27t40.5 12q18 0 36.5 -7t37.5 -17l135 -68l-35 -73z
" />
    <glyph glyph-name="Eacute" unicode="&#xc9;" horiz-adv-x="641" 
d="M70 591q0 95 99 95h342q46 0 65.5 -19.5t19.5 -56.5q0 -27 -8 -49.5t-13 -30.5h-338v-107h261q46 0 65.5 -19.5t19.5 -56.5q0 -27 -8 -49.5t-13 -30.5h-325v-111h354v-156h-521v591zM208 820l135 68q19 10 37.5 17t36.5 7q25 0 40.5 -12t24 -27t11.5 -28.5t3 -16.5
l-254 -81z" />
    <glyph glyph-name="Ecircumflex" unicode="&#xca;" horiz-adv-x="641" 
d="M70 591q0 95 99 95h342q46 0 65.5 -19.5t19.5 -56.5q0 -27 -8 -49.5t-13 -30.5h-338v-107h261q46 0 65.5 -19.5t19.5 -56.5q0 -27 -8 -49.5t-13 -30.5h-325v-111h354v-156h-521v591zM184 745l-40 63l109 68l41 23.5t46 12.5t47 -12.5t40 -23.5l109 -68l-40 -63l-156 62z
" />
    <glyph glyph-name="Edieresis" unicode="&#xcb;" horiz-adv-x="641" 
d="M70 591q0 95 99 95h342q46 0 65.5 -19.5t19.5 -56.5q0 -27 -8 -49.5t-13 -30.5h-338v-107h261q46 0 65.5 -19.5t19.5 -56.5q0 -27 -8 -49.5t-13 -30.5h-325v-111h354v-156h-521v591zM361 829q0 28 21.5 50.5t53.5 22.5t53.5 -22.5t21.5 -50.5t-21.5 -50.5t-53.5 -22.5
t-53.5 22.5t-21.5 50.5zM129 829q0 14 6 27t16.5 23.5t24.5 16.5t29 6q31 0 53 -22.5t22 -50.5t-22 -50.5t-53 -22.5q-15 0 -29 6t-24.5 16.5t-16.5 23.5t-6 27z" />
    <glyph glyph-name="Igrave" unicode="&#xcc;" horiz-adv-x="307" 
d="M70 0v612q0 41 24 57.5t63 16.5q29 0 51.5 -7t28.5 -9v-670h-167zM23 828q0 3 3 16.5t11.5 28.5t24 27t40.5 12q18 0 36.5 -7t37.5 -17l135 -68l-35 -73z" />
    <glyph glyph-name="Iacute" unicode="&#xcd;" horiz-adv-x="307" 
d="M70 0v612q0 41 24 57.5t63 16.5q29 0 51.5 -7t28.5 -9v-670h-167zM15 820l135 68q19 10 37.5 17t36.5 7q25 0 40.5 -12t24 -27t11.5 -28.5t3 -16.5l-254 -81z" />
    <glyph glyph-name="Icircumflex" unicode="&#xce;" horiz-adv-x="307" 
d="M70 0v612q0 41 24 57.5t63 16.5q29 0 51.5 -7t28.5 -9v-670h-167zM3 745l-40 63l109 68l41 23.5t46 12.5t47 -12.5t40 -23.5l109 -68l-40 -63l-156 62z" />
    <glyph glyph-name="Idieresis" unicode="&#xcf;" horiz-adv-x="307" 
d="M70 0v612q0 41 24 57.5t63 16.5q29 0 51.5 -7t28.5 -9v-670h-167zM200 829q0 28 21.5 50.5t53.5 22.5t53.5 -22.5t21.5 -50.5t-21.5 -50.5t-53.5 -22.5t-53.5 22.5t-21.5 50.5zM-32 829q0 14 6 27t16.5 23.5t24.5 16.5t29 6q31 0 53 -22.5t22 -50.5t-22 -50.5t-53 -22.5
q-15 0 -29 6t-24.5 16.5t-16.5 23.5t-6 27z" />
    <glyph glyph-name="Eth" unicode="&#xd0;" horiz-adv-x="779" 
d="M98 288h-25q-33 0 -47 17.5t-14 49.5q0 20 5 35t9 21h72v186q0 22 6 38t15.5 26.5t22 16t25.5 7.5q19 4 55.5 7.5t107.5 3.5q93 0 168.5 -23t129 -68t82.5 -110.5t29 -150.5q0 -84 -27 -149.5t-80.5 -111t-133 -69.5t-184.5 -24q-113 0 -162.5 4.5t-53.5 5.5v288z
M265 148q6 -1 26.5 -2.5t49.5 -1.5q50 0 91 11.5t70.5 36t45.5 62.5t16 90q0 44 -13 81t-39.5 64t-67 42t-95.5 15q-39 0 -60 -1.5t-24 -2.5v-131h118q34 0 47.5 -17.5t13.5 -46.5q0 -22 -5 -37.5t-9 -21.5h-165v-140z" />
    <glyph glyph-name="Ntilde" unicode="&#xd1;" horiz-adv-x="739" 
d="M70 599q0 26 8 43t21 26.5t29.5 13.5t33.5 4q35 0 56 -9.5t27 -14.5q5 -5 22.5 -29l42 -59l53 -77.5l55.5 -83l50 -75l36 -55.5v329q0 41 24 57.5t63 16.5q29 0 51 -7t27 -9v-670h-157l-28 45l-44 68l-53.5 81.5l-56 85.5l-52.5 79l-43 63v-422h-165v599zM186 764
q5 22 14.5 42.5t24.5 37t36.5 26.5t50.5 10q26 0 45.5 -4t32.5 -8q15 -5 32 -9.5t31 -4.5q12 0 21 7.5t14 26.5l96 -18q-5 -22 -14 -43t-24 -37t-36.5 -26t-51.5 -10q-15 0 -30.5 2.5t-30 6.5l-26 7t-17.5 5q-8 2 -18 4t-18 2q-11 0 -20 -8t-14 -28z" />
    <glyph glyph-name="Ograve" unicode="&#xd2;" horiz-adv-x="822" 
d="M40 343q0 76 28.5 142t78.5 114.5t118 76.5t146 28t146 -28t118 -76.5t78.5 -114.5t28.5 -142t-28.5 -142t-78.5 -114.5t-118 -76.5t-146 -28t-146 28t-118 76.5t-78.5 114.5t-28.5 142zM411 138q43 0 79 15.5t62 43.5t40.5 65t14.5 81t-14.5 81.5t-40.5 65t-62 43
t-79 15.5t-79 -15.5t-62 -43t-40.5 -65t-14.5 -81.5t14.5 -81t40.5 -65t62 -43.5t79 -15.5zM267 828q0 3 3 16.5t11.5 28.5t24 27t40.5 12q18 0 36.5 -7t37.5 -17l135 -68l-35 -73z" />
    <glyph glyph-name="Oacute" unicode="&#xd3;" horiz-adv-x="822" 
d="M40 343q0 76 28.5 142t78.5 114.5t118 76.5t146 28t146 -28t118 -76.5t78.5 -114.5t28.5 -142t-28.5 -142t-78.5 -114.5t-118 -76.5t-146 -28t-146 28t-118 76.5t-78.5 114.5t-28.5 142zM411 138q43 0 79 15.5t62 43.5t40.5 65t14.5 81t-14.5 81.5t-40.5 65t-62 43
t-79 15.5t-79 -15.5t-62 -43t-40.5 -65t-14.5 -81.5t14.5 -81t40.5 -65t62 -43.5t79 -15.5zM276 820l135 68q19 10 37.5 17t36.5 7q25 0 40.5 -12t24 -27t11.5 -28.5t3 -16.5l-254 -81z" />
    <glyph glyph-name="Ocircumflex" unicode="&#xd4;" horiz-adv-x="822" 
d="M40 343q0 76 28.5 142t78.5 114.5t118 76.5t146 28t146 -28t118 -76.5t78.5 -114.5t28.5 -142t-28.5 -142t-78.5 -114.5t-118 -76.5t-146 -28t-146 28t-118 76.5t-78.5 114.5t-28.5 142zM411 138q43 0 79 15.5t62 43.5t40.5 65t14.5 81t-14.5 81.5t-40.5 65t-62 43
t-79 15.5t-79 -15.5t-62 -43t-40.5 -65t-14.5 -81.5t14.5 -81t40.5 -65t62 -43.5t79 -15.5zM255 745l-40 63l109 68l41 23.5t46 12.5t47 -12.5t40 -23.5l109 -68l-40 -63l-156 62z" />
    <glyph glyph-name="Otilde" unicode="&#xd5;" horiz-adv-x="822" 
d="M40 343q0 76 28.5 142t78.5 114.5t118 76.5t146 28t146 -28t118 -76.5t78.5 -114.5t28.5 -142t-28.5 -142t-78.5 -114.5t-118 -76.5t-146 -28t-146 28t-118 76.5t-78.5 114.5t-28.5 142zM411 138q43 0 79 15.5t62 43.5t40.5 65t14.5 81t-14.5 81.5t-40.5 65t-62 43
t-79 15.5t-79 -15.5t-62 -43t-40.5 -65t-14.5 -81.5t14.5 -81t40.5 -65t62 -43.5t79 -15.5zM212 764q5 22 14.5 42.5t24.5 37t36.5 26.5t50.5 10q26 0 45.5 -4t32.5 -8q15 -5 32 -9.5t31 -4.5q12 0 21 7.5t14 26.5l96 -18q-5 -22 -14 -43t-24 -37t-36.5 -26t-51.5 -10
q-15 0 -30.5 2.5t-30 6.5l-26 7t-17.5 5q-8 2 -18 4t-18 2q-11 0 -20 -8t-14 -28z" />
    <glyph glyph-name="Odieresis" unicode="&#xd6;" horiz-adv-x="822" 
d="M40 343q0 76 28.5 142t78.5 114.5t118 76.5t146 28t146 -28t118 -76.5t78.5 -114.5t28.5 -142t-28.5 -142t-78.5 -114.5t-118 -76.5t-146 -28t-146 28t-118 76.5t-78.5 114.5t-28.5 142zM411 138q43 0 79 15.5t62 43.5t40.5 65t14.5 81t-14.5 81.5t-40.5 65t-62 43
t-79 15.5t-79 -15.5t-62 -43t-40.5 -65t-14.5 -81.5t14.5 -81t40.5 -65t62 -43.5t79 -15.5zM452 829q0 28 21.5 50.5t53.5 22.5t53.5 -22.5t21.5 -50.5t-21.5 -50.5t-53.5 -22.5t-53.5 22.5t-21.5 50.5zM220 829q0 14 6 27t16.5 23.5t24.5 16.5t29 6q31 0 53 -22.5t22 -50.5
t-22 -50.5t-53 -22.5q-15 0 -29 6t-24.5 16.5t-16.5 23.5t-6 27z" />
    <glyph glyph-name="multiply" unicode="&#xd7;" horiz-adv-x="637" 
d="M208 342l-83 80q-24 24 -24 49q0 28 30 58q20 20 38.5 29.5t23.5 11.5l120 -122l83 85q23 23 48 23q30 0 61 -31q19 -20 29 -39l13 -25l-125 -122l83 -80q13 -12 18 -24t5 -24q0 -15 -8 -29.5t-22 -29.5q-19 -19 -38 -29t-24 -12l-120 123l-82 -86q-23 -23 -49 -23
q-29 0 -60 31q-20 20 -30 38.5t-13 25.5z" />
    <glyph glyph-name="Oslash" unicode="&#xd8;" horiz-adv-x="822" 
d="M196 46q-72 49 -114 126t-42 171q0 76 28.5 142t78.5 114.5t118 76.5t146 28q45 0 91 -11l20 43q12 25 28 37t48 12q17 0 32 -4t26 -9.5t18.5 -10.5t9.5 -7l-55 -117q70 -49 111.5 -125t41.5 -169q0 -76 -28.5 -142t-78.5 -114.5t-118 -76.5t-146 -28q-23 0 -45 2.5
t-43 7.5l-42 -90h-153zM432 547q-2 0 -9 0.5t-12 0.5q-43 0 -79 -15.5t-62 -43t-40.5 -65t-14.5 -81.5q0 -88 53 -144zM411 138q43 0 79 15.5t62 43.5t40.5 65t14.5 81q0 42 -13.5 78t-37.5 63l-163 -346h18z" />
    <glyph glyph-name="Ugrave" unicode="&#xd9;" horiz-adv-x="760" 
d="M63 612q0 41 24 57.5t63 16.5q29 0 51.5 -7t28.5 -9v-349q0 -45 7.5 -79.5t25 -58t46 -35.5t71.5 -12t71.5 12t46 35.5t25 58t7.5 79.5v291q0 41 24 57.5t63 16.5q29 0 51.5 -7t28.5 -9v-366q0 -152 -82 -237t-235 -85t-235 85t-82 237v308zM236 828q0 3 3 16.5
t11.5 28.5t24 27t40.5 12q18 0 36.5 -7t37.5 -17l135 -68l-35 -73z" />
    <glyph glyph-name="Uacute" unicode="&#xda;" horiz-adv-x="760" 
d="M63 612q0 41 24 57.5t63 16.5q29 0 51.5 -7t28.5 -9v-349q0 -45 7.5 -79.5t25 -58t46 -35.5t71.5 -12t71.5 12t46 35.5t25 58t7.5 79.5v291q0 41 24 57.5t63 16.5q29 0 51.5 -7t28.5 -9v-366q0 -152 -82 -237t-235 -85t-235 85t-82 237v308zM258 820l135 68
q19 10 37.5 17t36.5 7q25 0 40.5 -12t24 -27t11.5 -28.5t3 -16.5l-254 -81z" />
    <glyph glyph-name="Ucircumflex" unicode="&#xdb;" horiz-adv-x="760" 
d="M63 612q0 41 24 57.5t63 16.5q29 0 51.5 -7t28.5 -9v-349q0 -45 7.5 -79.5t25 -58t46 -35.5t71.5 -12t71.5 12t46 35.5t25 58t7.5 79.5v291q0 41 24 57.5t63 16.5q29 0 51.5 -7t28.5 -9v-366q0 -152 -82 -237t-235 -85t-235 85t-82 237v308zM231 745l-40 63l109 68
l41 23.5t46 12.5t47 -12.5t40 -23.5l109 -68l-40 -63l-156 62z" />
    <glyph glyph-name="Udieresis" unicode="&#xdc;" horiz-adv-x="760" 
d="M63 612q0 41 24 57.5t63 16.5q29 0 51.5 -7t28.5 -9v-349q0 -45 7.5 -79.5t25 -58t46 -35.5t71.5 -12t71.5 12t46 35.5t25 58t7.5 79.5v291q0 41 24 57.5t63 16.5q29 0 51.5 -7t28.5 -9v-366q0 -152 -82 -237t-235 -85t-235 85t-82 237v308zM435 829q0 28 21.5 50.5
t53.5 22.5t53.5 -22.5t21.5 -50.5t-21.5 -50.5t-53.5 -22.5t-53.5 22.5t-21.5 50.5zM203 829q0 14 6 27t16.5 23.5t24.5 16.5t29 6q31 0 53 -22.5t22 -50.5t-22 -50.5t-53 -22.5q-15 0 -29 6t-24.5 16.5t-16.5 23.5t-6 27z" />
    <glyph glyph-name="Yacute" unicode="&#xdd;" horiz-adv-x="691" 
d="M252 253l-49 61l-50 64.5l-44.5 58.5l-33.5 45l-22.5 31t-23 35.5t-17.5 36.5t-7 33q0 35 22.5 51.5t54.5 16.5q28 0 47.5 -6.5t24.5 -9.5l39 -59l50.5 -74.5l51.5 -74.5l43 -60l37.5 52l39 58l38 59l34.5 54q6 9 14.5 20t21 20t29.5 15t40 6q18 0 34 -4.5t28.5 -10.5
t20.5 -12t11 -9q-8 -17 -25 -45.5t-40.5 -64l-50.5 -75.5l-54 -78.5l-52.5 -73l-44.5 -60.5v-253h-167v253zM235 816l115 73q17 11 33.5 19.5t33.5 8.5q22 0 36 -11t22 -25t11.5 -26t3.5 -15l-211 -90z" />
    <glyph glyph-name="Thorn" unicode="&#xde;" horiz-adv-x="668" 
d="M70 612q0 41 23 57.5t62 16.5q29 0 51 -7t27 -9v-88q17 1 38 1.5t47 0.5q90 0 150 -20.5t96.5 -54t52 -77t15.5 -89.5q0 -53 -17 -97t-53 -75.5t-92.5 -49t-134.5 -17.5q-18 0 -35 1t-31 2t-23.5 2.5t-12.5 1.5v-111h-163v612zM233 252l24.5 -3.5t57.5 -2.5
q46 0 74.5 8.5t44.5 22.5t21.5 31.5t5.5 34.5q0 16 -4.5 33t-19.5 31.5t-43.5 24t-76.5 9.5q-35 0 -57 -1.5t-27 -2.5v-185z" />
    <glyph glyph-name="germandbls" unicode="&#xdf;" horiz-adv-x="643" 
d="M55 0v522q0 39 11.5 77.5t40 69t76 49.5t118.5 19q66 0 111 -16.5t72.5 -43t40 -58.5t12.5 -63q0 -56 -24.5 -92t-53.5 -49q28 -6 55 -19.5t48 -38t33.5 -60.5t12.5 -86q0 -55 -19 -97t-51 -70.5t-75 -43t-91 -14.5q-47 0 -72.5 6t-29.5 8l17 129q5 -2 22.5 -5t35.5 -3
q30 0 49 8t30 21.5t15 31t4 37.5q0 54 -34 82t-88 28h-41v127h17q36 0 59 19.5t23 57.5q0 43 -25 62.5t-56 19.5q-43 0 -63 -24.5t-20 -66.5v-524h-160z" />
    <glyph glyph-name="agrave" unicode="&#xe0;" horiz-adv-x="582" 
d="M527 3q-6 -2 -27 -4.5t-52.5 -5.5t-72 -5t-85.5 -2q-76 0 -126 13.5t-80 36.5t-42 53.5t-12 64.5q0 92 59 131.5t187 39.5q32 0 53.5 -1t35.5 -3q0 35 -28.5 55t-94.5 20q-31 0 -54.5 -3.5t-40 -8.5t-26.5 -10t-14 -8l-8 8t-12 15.5t-11 21.5t-5 26q0 87 178 87
q58 0 109 -10.5t88.5 -36t59 -67.5t21.5 -105v-302zM366 212q-9 2 -26.5 3.5t-52.5 1.5q-30 0 -49 -5t-29.5 -13.5t-14.5 -19.5t-4 -23q0 -9 3 -19t13 -18t30 -13.5t53 -5.5q26 0 48 1.5t29 3.5v107zM172 660q0 3 3.5 15t11.5 26t22 25t36 11q17 0 33.5 -8.5t33.5 -19.5
l115 -73l-44 -66z" />
    <glyph glyph-name="aacute" unicode="&#xe1;" horiz-adv-x="582" 
d="M527 3q-6 -2 -27 -4.5t-52.5 -5.5t-72 -5t-85.5 -2q-76 0 -126 13.5t-80 36.5t-42 53.5t-12 64.5q0 92 59 131.5t187 39.5q32 0 53.5 -1t35.5 -3q0 35 -28.5 55t-94.5 20q-31 0 -54.5 -3.5t-40 -8.5t-26.5 -10t-14 -8l-8 8t-12 15.5t-11 21.5t-5 26q0 87 178 87
q58 0 109 -10.5t88.5 -36t59 -67.5t21.5 -105v-302zM366 212q-9 2 -26.5 3.5t-52.5 1.5q-30 0 -49 -5t-29.5 -13.5t-14.5 -19.5t-4 -23q0 -9 3 -19t13 -18t30 -13.5t53 -5.5q26 0 48 1.5t29 3.5v107zM202 636l115 73q17 11 33.5 19.5t33.5 8.5q22 0 36 -11t22 -25t11.5 -26
t3.5 -15l-211 -90z" />
    <glyph glyph-name="acircumflex" unicode="&#xe2;" horiz-adv-x="582" 
d="M527 3q-6 -2 -27 -4.5t-52.5 -5.5t-72 -5t-85.5 -2q-76 0 -126 13.5t-80 36.5t-42 53.5t-12 64.5q0 92 59 131.5t187 39.5q32 0 53.5 -1t35.5 -3q0 35 -28.5 55t-94.5 20q-31 0 -54.5 -3.5t-40 -8.5t-26.5 -10t-14 -8l-8 8t-12 15.5t-11 21.5t-5 26q0 87 178 87
q58 0 109 -10.5t88.5 -36t59 -67.5t21.5 -105v-302zM366 212q-9 2 -26.5 3.5t-52.5 1.5q-30 0 -49 -5t-29.5 -13.5t-14.5 -19.5t-4 -23q0 -9 3 -19t13 -18t30 -13.5t53 -5.5q26 0 48 1.5t29 3.5v107zM179 570l-50 63l99 68q15 11 36 23.5t43 12.5t43 -12.5t36 -23.5l99 -68
l-50 -63l-128 70z" />
    <glyph glyph-name="atilde" unicode="&#xe3;" horiz-adv-x="582" 
d="M527 3q-6 -2 -27 -4.5t-52.5 -5.5t-72 -5t-85.5 -2q-76 0 -126 13.5t-80 36.5t-42 53.5t-12 64.5q0 92 59 131.5t187 39.5q32 0 53.5 -1t35.5 -3q0 35 -28.5 55t-94.5 20q-31 0 -54.5 -3.5t-40 -8.5t-26.5 -10t-14 -8l-8 8t-12 15.5t-11 21.5t-5 26q0 87 178 87
q58 0 109 -10.5t88.5 -36t59 -67.5t21.5 -105v-302zM366 212q-9 2 -26.5 3.5t-52.5 1.5q-30 0 -49 -5t-29.5 -13.5t-14.5 -19.5t-4 -23q0 -9 3 -19t13 -18t30 -13.5t53 -5.5q26 0 48 1.5t29 3.5v107zM120 589q4 21 13 41.5t23.5 36.5t35 25.5t47.5 9.5q24 0 42.5 -4t31.5 -8
l25 -8q11 -3 18.5 -4.5t17.5 -1.5q12 0 21 7.5t14 26.5l89 -18q-5 -21 -13.5 -41.5t-23 -36.5t-34.5 -25.5t-48 -9.5q-21 0 -38.5 4.5l-37.5 9.5l-24 7q-8 2 -17.5 4t-17.5 2q-11 0 -20 -8t-14 -28z" />
    <glyph glyph-name="adieresis" unicode="&#xe4;" horiz-adv-x="582" 
d="M527 3q-6 -2 -27 -4.5t-52.5 -5.5t-72 -5t-85.5 -2q-76 0 -126 13.5t-80 36.5t-42 53.5t-12 64.5q0 92 59 131.5t187 39.5q32 0 53.5 -1t35.5 -3q0 35 -28.5 55t-94.5 20q-31 0 -54.5 -3.5t-40 -8.5t-26.5 -10t-14 -8l-8 8t-12 15.5t-11 21.5t-5 26q0 87 178 87
q58 0 109 -10.5t88.5 -36t59 -67.5t21.5 -105v-302zM366 212q-9 2 -26.5 3.5t-52.5 1.5q-30 0 -49 -5t-29.5 -13.5t-14.5 -19.5t-4 -23q0 -9 3 -19t13 -18t30 -13.5t53 -5.5q26 0 48 1.5t29 3.5v107zM125 642q0 13 6 26t16.5 23t24 16t28.5 6q30 0 51.5 -22t21.5 -49
q0 -28 -21.5 -50t-51.5 -22q-15 0 -28.5 6t-24 16t-16.5 23t-6 27zM338 642q0 27 21.5 49t52.5 22t52 -22t21 -49q0 -28 -21 -50t-52 -22t-52.5 22t-21.5 50z" />
    <glyph glyph-name="aring" unicode="&#xe5;" horiz-adv-x="582" 
d="M527 3q-6 -2 -27 -4.5t-52.5 -5.5t-72 -5t-85.5 -2q-76 0 -126 13.5t-80 36.5t-42 53.5t-12 64.5q0 92 59 131.5t187 39.5q32 0 53.5 -1t35.5 -3q0 35 -28.5 55t-94.5 20q-31 0 -54.5 -3.5t-40 -8.5t-26.5 -10t-14 -8l-8 8t-12 15.5t-11 21.5t-5 26q0 87 178 87
q58 0 109 -10.5t88.5 -36t59 -67.5t21.5 -105v-302zM366 212q-9 2 -26.5 3.5t-52.5 1.5q-30 0 -49 -5t-29.5 -13.5t-14.5 -19.5t-4 -23q0 -9 3 -19t13 -18t30 -13.5t53 -5.5q26 0 48 1.5t29 3.5v107zM198 666q0 21 8 39t22 32t33 22t40 8t40 -8t33 -22t22 -32t8 -39t-8 -39
t-22 -32t-33 -22t-40 -8t-40 8t-33 22t-22 32t-8 39zM301 622q20 0 31 12t11 32t-11 32t-31 12t-31 -12t-11 -32t11 -32t31 -12z" />
    <glyph glyph-name="ae" unicode="&#xe6;" horiz-adv-x="890" 
d="M853 40q-8 -5 -26.5 -14t-46.5 -18t-65.5 -15.5t-82.5 -6.5q-33 0 -60 5.5t-47.5 13.5t-34.5 15.5t-21 12.5q-2 -2 -14.5 -9.5t-36.5 -15.5t-59.5 -15t-84.5 -7q-70 0 -116.5 13.5t-75 36.5t-40.5 53.5t-12 64.5q0 92 57.5 131.5t176.5 39.5q13 0 29.5 -1t31 -2t26 -2
t14.5 -2q0 38 -28.5 58.5t-94.5 20.5q-31 0 -54.5 -4t-40 -9t-26.5 -10t-14 -8l-8 8t-12 15.5t-11 21.5t-5 26q0 87 178 87q51 0 88 -8.5t62 -20t40 -24t22 -20.5q6 7 20.5 19t37.5 24t54 21t70 9q52 0 93.5 -14.5t70.5 -39.5t44.5 -57t15.5 -66q0 -37 -13 -66.5
t-42.5 -49.5t-78 -31t-119.5 -11q-24 0 -48 1t-31 2q2 -14 10.5 -26.5t24 -22.5t39.5 -16t58 -6q26 0 49 4.5t40 9.5t28 10t13 7zM392 122q-2 4 -6.5 14t-8.5 22.5t-7.5 27t-3.5 26.5q-9 2 -27 3.5t-52 1.5q-30 0 -49 -5t-29.5 -13.5t-14.5 -19.5t-4 -23q0 -9 3 -19
t13 -18.5t30 -14t53 -5.5q45 0 71.5 10.5zM566 294q52 0 81.5 5t44 12.5t17.5 17.5t3 19q0 21 -19 36.5t-57 15.5q-26 0 -46 -9t-33.5 -24t-21 -33.5t-8.5 -37.5v-2h39z" />
    <glyph glyph-name="ccedilla" unicode="&#xe7;" horiz-adv-x="518" 
d="M516 44q-11 -7 -29 -17t-43.5 -19t-58.5 -15.5t-73 -6.5q-54 0 -104.5 17t-88.5 50.5t-61 84t-23 117.5q0 64 22.5 114.5t61 84.5t90 52t109.5 18q53 0 99.5 -13.5t69.5 -36.5q11 -11 17.5 -23.5t6.5 -29.5t-6 -31t-15 -25t-18.5 -19.5t-16.5 -12.5q-18 18 -50 33.5
t-76 15.5q-26 0 -49.5 -8t-41 -24t-28 -40t-10.5 -55q0 -33 10.5 -56.5t28 -38.5t41.5 -22t51 -7q23 0 42.5 4.5t34.5 10.5t25 11.5t13 8.5zM162 -114q2 -2 11 -5t22.5 -7t28.5 -6.5t29 -2.5q21 0 29.5 5.5t8.5 17.5q0 14 -19.5 21t-39.5 7l17 59q26 0 53 -4.5t49 -15
t36 -27t14 -41.5q0 -45 -36.5 -71.5t-99.5 -26.5q-57 0 -90 11t-42 18z" />
    <glyph glyph-name="egrave" unicode="&#xe8;" horiz-adv-x="561" 
d="M206 188q2 -12 10.5 -23.5t24 -21.5t39.5 -16t58 -6q26 0 49 4.5t40 9.5t28 10t13 7l56 -112q-8 -5 -26.5 -14t-46.5 -18t-65.5 -15.5t-82.5 -6.5q-56 0 -105 18t-85.5 52.5t-57.5 84.5t-21 114q0 60 21 110t58 85t87 54.5t108 19.5q54 0 97 -14.5t72.5 -39.5t45 -57
t15.5 -66q0 -37 -13 -66.5t-46.5 -50t-91 -31.5t-146.5 -11h-35zM198 292q67 0 104 5t55 13t22 18t4 20q0 21 -19 36.5t-57 15.5q-27 0 -47 -9.5t-33.5 -24.5t-20.5 -34.5t-8 -39.5zM186 660q0 3 3.5 15t11.5 26t22 25t36 11q17 0 33.5 -8.5t33.5 -19.5l115 -73l-44 -66z
" />
    <glyph glyph-name="eacute" unicode="&#xe9;" horiz-adv-x="561" 
d="M206 188q2 -12 10.5 -23.5t24 -21.5t39.5 -16t58 -6q26 0 49 4.5t40 9.5t28 10t13 7l56 -112q-8 -5 -26.5 -14t-46.5 -18t-65.5 -15.5t-82.5 -6.5q-56 0 -105 18t-85.5 52.5t-57.5 84.5t-21 114q0 60 21 110t58 85t87 54.5t108 19.5q54 0 97 -14.5t72.5 -39.5t45 -57
t15.5 -66q0 -37 -13 -66.5t-46.5 -50t-91 -31.5t-146.5 -11h-35zM198 292q67 0 104 5t55 13t22 18t4 20q0 21 -19 36.5t-57 15.5q-27 0 -47 -9.5t-33.5 -24.5t-20.5 -34.5t-8 -39.5zM211 636l115 73q17 11 33.5 19.5t33.5 8.5q22 0 36 -11t22 -25t11.5 -26t3.5 -15l-211 -90
z" />
    <glyph glyph-name="ecircumflex" unicode="&#xea;" horiz-adv-x="561" 
d="M206 188q2 -12 10.5 -23.5t24 -21.5t39.5 -16t58 -6q26 0 49 4.5t40 9.5t28 10t13 7l56 -112q-8 -5 -26.5 -14t-46.5 -18t-65.5 -15.5t-82.5 -6.5q-56 0 -105 18t-85.5 52.5t-57.5 84.5t-21 114q0 60 21 110t58 85t87 54.5t108 19.5q54 0 97 -14.5t72.5 -39.5t45 -57
t15.5 -66q0 -37 -13 -66.5t-46.5 -50t-91 -31.5t-146.5 -11h-35zM198 292q67 0 104 5t55 13t22 18t4 20q0 21 -19 36.5t-57 15.5q-27 0 -47 -9.5t-33.5 -24.5t-20.5 -34.5t-8 -39.5zM184 570l-50 63l99 68q15 11 36 23.5t43 12.5t43 -12.5t36 -23.5l99 -68l-50 -63l-128 70z
" />
    <glyph glyph-name="edieresis" unicode="&#xeb;" horiz-adv-x="561" 
d="M206 188q2 -12 10.5 -23.5t24 -21.5t39.5 -16t58 -6q26 0 49 4.5t40 9.5t28 10t13 7l56 -112q-8 -5 -26.5 -14t-46.5 -18t-65.5 -15.5t-82.5 -6.5q-56 0 -105 18t-85.5 52.5t-57.5 84.5t-21 114q0 60 21 110t58 85t87 54.5t108 19.5q54 0 97 -14.5t72.5 -39.5t45 -57
t15.5 -66q0 -37 -13 -66.5t-46.5 -50t-91 -31.5t-146.5 -11h-35zM198 292q67 0 104 5t55 13t22 18t4 20q0 21 -19 36.5t-57 15.5q-27 0 -47 -9.5t-33.5 -24.5t-20.5 -34.5t-8 -39.5zM123 642q0 13 6 26t16.5 23t24 16t28.5 6q30 0 51.5 -22t21.5 -49q0 -28 -21.5 -50
t-51.5 -22q-15 0 -28.5 6t-24 16t-16.5 23t-6 27zM336 642q0 27 21.5 49t52.5 22t52 -22t21 -49q0 -28 -21 -50t-52 -22t-52.5 22t-21.5 50z" />
    <glyph glyph-name="igrave" unicode="&#xec;" horiz-adv-x="281" 
d="M60 439q0 39 23 55t61 16q27 0 49 -6.5t28 -8.5v-495h-161v439zM33 660q0 3 3.5 15t11.5 26t22 25t36 11q17 0 33.5 -8.5t33.5 -19.5l115 -73l-44 -66z" />
    <glyph glyph-name="iacute" unicode="&#xed;" horiz-adv-x="281" 
d="M60 439q0 39 23 55t61 16q27 0 49 -6.5t28 -8.5v-495h-161v439zM27 636l115 73q17 11 33.5 19.5t33.5 8.5q22 0 36 -11t22 -25t11.5 -26t3.5 -15l-211 -90z" />
    <glyph glyph-name="icircumflex" unicode="&#xee;" horiz-adv-x="281" 
d="M60 439q0 39 23 55t61 16q27 0 49 -6.5t28 -8.5v-495h-161v439zM18 570l-50 63l99 68q15 11 36 23.5t43 12.5t43 -12.5t36 -23.5l99 -68l-50 -63l-128 70z" />
    <glyph glyph-name="idieresis" unicode="&#xef;" horiz-adv-x="281" 
d="M60 439q0 39 23 55t61 16q27 0 49 -6.5t28 -8.5v-495h-161v439zM-35 642q0 13 6 26t16.5 23t24 16t28.5 6q30 0 51.5 -22t21.5 -49q0 -28 -21.5 -50t-51.5 -22q-15 0 -28.5 6t-24 16t-16.5 23t-6 27zM178 642q0 27 21.5 49t52.5 22t52 -22t21 -49q0 -28 -21 -50t-52 -22
t-52.5 22t-21.5 50z" />
    <glyph glyph-name="eth" unicode="&#xf0;" horiz-adv-x="634" 
d="M144 568l91 47q-15 8 -32 15t-35 13l44 94q79 -24 143 -59l114 59l40 -75l-74 -39q83 -69 123.5 -158t40.5 -186q0 -75 -20.5 -130t-57.5 -91.5t-89 -54t-115 -17.5q-62 0 -114 17t-89.5 48.5t-58 76t-20.5 100.5t20 100t53 75t75.5 47t87.5 16q35 0 60.5 -5t42 -12.5
t26 -15t13.5 -12.5q-2 6 -7.5 20.5t-17 34t-29.5 41.5t-43 44l-131 -68zM200 228q0 -49 31.5 -81t85.5 -32t85.5 32t31.5 81t-31.5 81t-85.5 32t-85.5 -32t-31.5 -81z" />
    <glyph glyph-name="ntilde" unicode="&#xf1;" horiz-adv-x="604" 
d="M40 309q0 52 20 92.5t55 67.5t81 41t99 14q52 0 98.5 -14t81 -41t54.5 -67.5t20 -92.5v-309h-161v272q0 53 -24 78.5t-69 25.5q-94 0 -94 -104v-272h-161v309zM121 589q4 21 13 41.5t23.5 36.5t35 25.5t47.5 9.5q24 0 42.5 -4t31.5 -8l25 -8q11 -3 18.5 -4.5t17.5 -1.5
q12 0 21 7.5t14 26.5l89 -18q-5 -21 -13.5 -41.5t-23 -36.5t-34.5 -25.5t-48 -9.5q-21 0 -38.5 4.5l-37.5 9.5l-24 7q-8 2 -17.5 4t-17.5 2q-11 0 -20 -8t-14 -28z" />
    <glyph glyph-name="ograve" unicode="&#xf2;" horiz-adv-x="634" 
d="M35 255q0 58 22 107t60.5 85t89.5 56.5t110 20.5q58 0 109.5 -20.5t90 -56.5t60.5 -85t22 -107t-22 -107t-60.5 -85t-90 -56.5t-109.5 -20.5q-59 0 -110 20.5t-89.5 56.5t-60.5 85t-22 107zM317 130q25 0 46.5 9.5t37.5 26t24.5 39.5t8.5 50t-8.5 50t-24.5 39.5t-37.5 26
t-46.5 9.5q-26 0 -47 -9.5t-37 -26t-24.5 -39.5t-8.5 -50t8.5 -50t24.5 -39.5t37 -26t47 -9.5zM180 660q0 3 3.5 15t11.5 26t22 25t36 11q17 0 33.5 -8.5t33.5 -19.5l115 -73l-44 -66z" />
    <glyph glyph-name="oacute" unicode="&#xf3;" horiz-adv-x="634" 
d="M35 255q0 58 22 107t60.5 85t89.5 56.5t110 20.5q58 0 109.5 -20.5t90 -56.5t60.5 -85t22 -107t-22 -107t-60.5 -85t-90 -56.5t-109.5 -20.5q-59 0 -110 20.5t-89.5 56.5t-60.5 85t-22 107zM317 130q25 0 46.5 9.5t37.5 26t24.5 39.5t8.5 50t-8.5 50t-24.5 39.5t-37.5 26
t-46.5 9.5q-26 0 -47 -9.5t-37 -26t-24.5 -39.5t-8.5 -50t8.5 -50t24.5 -39.5t37 -26t47 -9.5zM205 636l115 73q17 11 33.5 19.5t33.5 8.5q22 0 36 -11t22 -25t11.5 -26t3.5 -15l-211 -90z" />
    <glyph glyph-name="ocircumflex" unicode="&#xf4;" horiz-adv-x="634" 
d="M35 255q0 58 22 107t60.5 85t89.5 56.5t110 20.5q58 0 109.5 -20.5t90 -56.5t60.5 -85t22 -107t-22 -107t-60.5 -85t-90 -56.5t-109.5 -20.5q-59 0 -110 20.5t-89.5 56.5t-60.5 85t-22 107zM317 130q25 0 46.5 9.5t37.5 26t24.5 39.5t8.5 50t-8.5 50t-24.5 39.5t-37.5 26
t-46.5 9.5q-26 0 -47 -9.5t-37 -26t-24.5 -39.5t-8.5 -50t8.5 -50t24.5 -39.5t37 -26t47 -9.5zM190 570l-50 63l99 68q15 11 36 23.5t43 12.5t43 -12.5t36 -23.5l99 -68l-50 -63l-128 70z" />
    <glyph glyph-name="otilde" unicode="&#xf5;" horiz-adv-x="634" 
d="M35 255q0 58 22 107t60.5 85t89.5 56.5t110 20.5q58 0 109.5 -20.5t90 -56.5t60.5 -85t22 -107t-22 -107t-60.5 -85t-90 -56.5t-109.5 -20.5q-59 0 -110 20.5t-89.5 56.5t-60.5 85t-22 107zM317 130q25 0 46.5 9.5t37.5 26t24.5 39.5t8.5 50t-8.5 50t-24.5 39.5t-37.5 26
t-46.5 9.5q-26 0 -47 -9.5t-37 -26t-24.5 -39.5t-8.5 -50t8.5 -50t24.5 -39.5t37 -26t47 -9.5zM128 589q4 21 13 41.5t23.5 36.5t35 25.5t47.5 9.5q24 0 42.5 -4t31.5 -8l25 -8q11 -3 18.5 -4.5t17.5 -1.5q12 0 21 7.5t14 26.5l89 -18q-5 -21 -13.5 -41.5t-23 -36.5
t-34.5 -25.5t-48 -9.5q-21 0 -38.5 4.5l-37.5 9.5l-24 7q-8 2 -17.5 4t-17.5 2q-11 0 -20 -8t-14 -28z" />
    <glyph glyph-name="odieresis" unicode="&#xf6;" horiz-adv-x="634" 
d="M35 255q0 58 22 107t60.5 85t89.5 56.5t110 20.5q58 0 109.5 -20.5t90 -56.5t60.5 -85t22 -107t-22 -107t-60.5 -85t-90 -56.5t-109.5 -20.5q-59 0 -110 20.5t-89.5 56.5t-60.5 85t-22 107zM317 130q25 0 46.5 9.5t37.5 26t24.5 39.5t8.5 50t-8.5 50t-24.5 39.5t-37.5 26
t-46.5 9.5q-26 0 -47 -9.5t-37 -26t-24.5 -39.5t-8.5 -50t8.5 -50t24.5 -39.5t37 -26t47 -9.5zM137 642q0 13 6 26t16.5 23t24 16t28.5 6q30 0 51.5 -22t21.5 -49q0 -28 -21.5 -50t-51.5 -22q-15 0 -28.5 6t-24 16t-16.5 23t-6 27zM350 642q0 27 21.5 49t52.5 22t52 -22
t21 -49q0 -28 -21 -50t-52 -22t-52.5 22t-21.5 50z" />
    <glyph glyph-name="divide" unicode="&#xf7;" horiz-adv-x="630" 
d="M507 417q39 0 55 -21t16 -59q0 -27 -6.5 -47.5t-8.5 -25.5h-440q-39 0 -55 21t-16 59q0 27 6.5 47.5t8.5 25.5h440zM226 546q0 38 25.5 64t63.5 26t64 -26t26 -64t-26 -63.5t-64 -25.5t-63.5 25.5t-25.5 63.5zM226 134q0 38 25.5 64t63.5 26t64 -26t26 -64t-26 -63.5
t-64 -25.5t-63.5 25.5t-25.5 63.5z" />
    <glyph glyph-name="oslash" unicode="&#xf8;" horiz-adv-x="634" 
d="M157 31q-56 36 -89 94t-33 130q0 58 22 107t60.5 85t89.5 56.5t110 20.5q20 0 39 -2.5t37 -7.5l19 40q8 17 19.5 25t32.5 8q23 0 39 -9.5t19 -11.5l-44 -89q55 -36 88 -93.5t33 -128.5q0 -58 -22 -107t-60.5 -85t-90 -56.5t-109.5 -20.5q-39 0 -75 9l-35 -71h-102z
M328 382q-3 1 -11 1q-26 0 -48.5 -9.5t-38.5 -27t-25 -41t-9 -50.5q0 -51 29 -86zM317 127q26 0 48.5 9.5t38.5 27t25 41t9 50.5q0 49 -28 83l-103 -211h10z" />
    <glyph glyph-name="ugrave" unicode="&#xf9;" horiz-adv-x="620" 
d="M216 238q0 -104 94 -104t94 104v201q0 39 23 55t61 16q27 0 49 -6.5t28 -8.5v-287q0 -56 -19.5 -97.5t-53.5 -69t-81 -41.5t-101 -14t-101 14t-81 41.5t-53.5 69t-19.5 97.5v231q0 39 23 55t61 16q27 0 49 -6.5t28 -8.5v-257zM156 660q0 3 3.5 15t11.5 26t22 25t36 11
q17 0 33.5 -8.5t33.5 -19.5l115 -73l-44 -66z" />
    <glyph glyph-name="uacute" unicode="&#xfa;" horiz-adv-x="620" 
d="M216 238q0 -104 94 -104t94 104v201q0 39 23 55t61 16q27 0 49 -6.5t28 -8.5v-287q0 -56 -19.5 -97.5t-53.5 -69t-81 -41.5t-101 -14t-101 14t-81 41.5t-53.5 69t-19.5 97.5v231q0 39 23 55t61 16q27 0 49 -6.5t28 -8.5v-257zM221 636l115 73q17 11 33.5 19.5t33.5 8.5
q22 0 36 -11t22 -25t11.5 -26t3.5 -15l-211 -90z" />
    <glyph glyph-name="ucircumflex" unicode="&#xfb;" horiz-adv-x="620" 
d="M216 238q0 -104 94 -104t94 104v201q0 39 23 55t61 16q27 0 49 -6.5t28 -8.5v-287q0 -56 -19.5 -97.5t-53.5 -69t-81 -41.5t-101 -14t-101 14t-81 41.5t-53.5 69t-19.5 97.5v231q0 39 23 55t61 16q27 0 49 -6.5t28 -8.5v-257zM182 570l-50 63l99 68q15 11 36 23.5
t43 12.5t43 -12.5t36 -23.5l99 -68l-50 -63l-128 70z" />
    <glyph glyph-name="udieresis" unicode="&#xfc;" horiz-adv-x="620" 
d="M216 238q0 -104 94 -104t94 104v201q0 39 23 55t61 16q27 0 49 -6.5t28 -8.5v-287q0 -56 -19.5 -97.5t-53.5 -69t-81 -41.5t-101 -14t-101 14t-81 41.5t-53.5 69t-19.5 97.5v231q0 39 23 55t61 16q27 0 49 -6.5t28 -8.5v-257zM130 642q0 13 6 26t16.5 23t24 16t28.5 6
q30 0 51.5 -22t21.5 -49q0 -28 -21.5 -50t-51.5 -22q-15 0 -28.5 6t-24 16t-16.5 23t-6 27zM343 642q0 27 21.5 49t52.5 22t52 -22t21 -49q0 -28 -21 -50t-52 -22t-52.5 22t-21.5 50z" />
    <glyph glyph-name="yacute" unicode="&#xfd;" horiz-adv-x="620" 
d="M114 -55q4 -2 17.5 -6.5t33.5 -9t45.5 -8t52.5 -3.5q77 0 111 33t34 109q-19 -23 -58 -36.5t-78 -13.5q-46 0 -85.5 11.5t-69 35.5t-46 60.5t-16.5 86.5v235q0 39 23 55t61 16q27 0 49 -6.5t28 -8.5v-258q0 -48 22.5 -69t70.5 -21q45 0 70 26t25 80v186q0 39 23 55t61 16
q27 0 49 -6.5t28 -8.5v-424q0 -76 -20 -129.5t-57 -87t-88 -49t-114 -15.5q-44 0 -81 5t-65 11.5t-45 12.5t-20 8zM223 636l115 73q17 11 33.5 19.5t33.5 8.5q22 0 36 -11t22 -25t11.5 -26t3.5 -15l-211 -90z" />
    <glyph glyph-name="thorn" unicode="&#xfe;" horiz-adv-x="632" 
d="M43 -200v866q0 39 23.5 55t61.5 16q27 0 48.5 -6.5t27.5 -8.5v-250q18 18 54.5 35t91.5 17q51 0 96 -19t78.5 -54t53 -84t19.5 -110q0 -62 -19.5 -111.5t-53 -84.5t-78.5 -54t-96 -19q-56 0 -92.5 17.5t-54.5 35.5v-241h-160zM317 133q50 0 82.5 34.5t32.5 88.5t-32.5 87
t-82.5 33t-82.5 -32t-32.5 -88q0 -26 8.5 -48.5t24 -39t36.5 -26t46 -9.5z" />
    <glyph glyph-name="ydieresis" unicode="&#xff;" horiz-adv-x="620" 
d="M114 -55q4 -2 17.5 -6.5t33.5 -9t45.5 -8t52.5 -3.5q77 0 111 33t34 109q-19 -23 -58 -36.5t-78 -13.5q-46 0 -85.5 11.5t-69 35.5t-46 60.5t-16.5 86.5v235q0 39 23 55t61 16q27 0 49 -6.5t28 -8.5v-258q0 -48 22.5 -69t70.5 -21q45 0 70 26t25 80v186q0 39 23 55t61 16
q27 0 49 -6.5t28 -8.5v-424q0 -76 -20 -129.5t-57 -87t-88 -49t-114 -15.5q-44 0 -81 5t-65 11.5t-45 12.5t-20 8zM137 642q0 13 6 26t16.5 23t24 16t28.5 6q30 0 51.5 -22t21.5 -49q0 -28 -21.5 -50t-51.5 -22q-15 0 -28.5 6t-24 16t-16.5 23t-6 27zM350 642q0 27 21.5 49
t52.5 22t52 -22t21 -49q0 -28 -21 -50t-52 -22t-52.5 22t-21.5 50z" />
    <glyph glyph-name="Amacron" unicode="&#x100;" horiz-adv-x="769" 
d="M5 0l51 130.5l64.5 158l72 170.5l73.5 168q19 43 46.5 60t72.5 17q17 0 33.5 -4t29.5 -9.5t21 -10.5t10 -6q15 -25 39.5 -79l53.5 -121.5l60 -141.5l57.5 -140.5l46.5 -118l28 -73.5h-184l-24 64.5l-32 83.5h-291l-28.5 -77l-26.5 -71h-173zM467 299l-23 60.5l-25 65
l-22.5 58t-16.5 39.5q-6 -14 -16 -39.5l-22 -57l-25 -64.5l-24 -62h174zM530 866q32 0 42 -15t10 -40q0 -18 -3.5 -30t-5.5 -17h-333q-29 0 -41 14t-12 36q0 20 2.5 31.5t5.5 20.5h335z" />
    <glyph glyph-name="amacron" unicode="&#x101;" horiz-adv-x="582" 
d="M527 3q-6 -2 -27 -4.5t-52.5 -5.5t-72 -5t-85.5 -2q-76 0 -126 13.5t-80 36.5t-42 53.5t-12 64.5q0 92 59 131.5t187 39.5q32 0 53.5 -1t35.5 -3q0 35 -28.5 55t-94.5 20q-31 0 -54.5 -3.5t-40 -8.5t-26.5 -10t-14 -8l-8 8t-12 15.5t-11 21.5t-5 26q0 87 178 87
q58 0 109 -10.5t88.5 -36t59 -67.5t21.5 -105v-302zM366 212q-9 2 -26.5 3.5t-52.5 1.5q-30 0 -49 -5t-29.5 -13.5t-14.5 -19.5t-4 -23q0 -9 3 -19t13 -18t30 -13.5t53 -5.5q26 0 48 1.5t29 3.5v107zM406 692q27 0 37.5 -13.5t10.5 -35.5q0 -17 -4 -29.5t-6 -16.5h-286
q-26 0 -37 13t-11 36q0 17 4 29t6 17h286z" />
    <glyph glyph-name="Abreve" unicode="&#x102;" horiz-adv-x="769" 
d="M5 0l51 130.5l64.5 158l72 170.5l73.5 168q19 43 46.5 60t72.5 17q17 0 33.5 -4t29.5 -9.5t21 -10.5t10 -6q15 -25 39.5 -79l53.5 -121.5l60 -141.5l57.5 -140.5l46.5 -118l28 -73.5h-184l-24 64.5l-32 83.5h-291l-28.5 -77l-26.5 -71h-173zM467 299l-23 60.5l-25 65
l-22.5 58t-16.5 39.5q-6 -14 -16 -39.5l-22 -57l-25 -64.5l-24 -62h174zM301 907q21 -68 85 -68q66 0 85 67l83 -9q-1 -22 -9 -48t-27.5 -48.5t-51.5 -38t-80 -15.5q-49 0 -81 15.5t-51.5 38t-27.5 48.5t-9 48z" />
    <glyph glyph-name="abreve" unicode="&#x103;" horiz-adv-x="582" 
d="M527 3q-6 -2 -27 -4.5t-52.5 -5.5t-72 -5t-85.5 -2q-76 0 -126 13.5t-80 36.5t-42 53.5t-12 64.5q0 92 59 131.5t187 39.5q32 0 53.5 -1t35.5 -3q0 35 -28.5 55t-94.5 20q-31 0 -54.5 -3.5t-40 -8.5t-26.5 -10t-14 -8l-8 8t-12 15.5t-11 21.5t-5 26q0 87 178 87
q58 0 109 -10.5t88.5 -36t59 -67.5t21.5 -105v-302zM366 212q-9 2 -26.5 3.5t-52.5 1.5q-30 0 -49 -5t-29.5 -13.5t-14.5 -19.5t-4 -23q0 -9 3 -19t13 -18t30 -13.5t53 -5.5q26 0 48 1.5t29 3.5v107zM205 730q9 -35 27 -51.5t49 -16.5t49 16.5t27 51.5l75 -10
q-1 -21 -8.5 -46.5t-24.5 -48t-46 -37.5t-72 -15q-44 0 -72.5 15t-46 37.5t-24.5 48t-8 46.5z" />
    <glyph glyph-name="Aogonek" unicode="&#x104;" horiz-adv-x="769" 
d="M5 0l51 130.5l64.5 158l72 170.5l73.5 168q19 43 46.5 60t72.5 17q17 0 33.5 -4t29.5 -9.5t21 -10.5t10 -6q15 -25 39.5 -79l53.5 -121.5l60 -141.5l57.5 -140.5l46.5 -118l28 -73.5h-61q-10 -2 -25.5 -6.5t-30 -13.5t-25 -21.5t-10.5 -28.5q0 -18 13 -24t27 -6
q27 0 45 8t22 10l31 -67q-14 -8 -45 -18.5t-78 -10.5q-52 0 -85 20.5t-33 65.5q0 22 8.5 39t20 28.5t23.5 18t18 8.5l-24 64l-31 82h-291l-28.5 -77l-26.5 -71h-173zM467 299l-23 60.5l-25 65l-22.5 58t-16.5 39.5q-6 -14 -16 -39.5l-22 -57l-25 -64.5l-24 -62h174z" />
    <glyph glyph-name="aogonek" unicode="&#x105;" horiz-adv-x="582" 
d="M527 3q-5 -2 -23.5 -4l-46.5 -5q-11 -4 -23 -9.5t-22 -14t-16.5 -19t-6.5 -23.5q0 -20 14 -26.5t29 -6.5q28 0 45 8l21 10l29 -64q-14 -8 -44 -18t-77 -10q-51 0 -83.5 19.5t-32.5 64.5q0 32 15 51.5t31 30.5q-11 -1 -23 -1h-23q-76 0 -126 13.5t-80 36.5t-42 53.5
t-12 64.5q0 92 59 131.5t187 39.5q32 0 53.5 -1t35.5 -3q0 35 -28.5 55t-94.5 20q-31 0 -54.5 -3.5t-40 -8.5t-26.5 -10t-14 -8l-8 8t-12 15.5t-11 21.5t-5 26q0 87 178 87q58 0 109 -10.5t88.5 -36t59 -67.5t21.5 -105v-302zM366 212q-9 2 -26.5 3.5t-52.5 1.5
q-30 0 -49 -5t-29.5 -13.5t-14.5 -19.5t-4 -23q0 -9 3 -19t13 -18t30 -13.5t53 -5.5q26 0 48 1.5t29 3.5v107z" />
    <glyph glyph-name="Cacute" unicode="&#x106;" horiz-adv-x="671" 
d="M660 51q-11 -8 -31.5 -19.5t-51.5 -22.5t-73 -19t-95 -8q-75 0 -142 22.5t-117.5 67.5t-80 112t-29.5 156q0 87 28.5 154.5t78 114t116 71t143.5 24.5q41 0 74 -5t58.5 -13t43.5 -17t29 -16q23 -17 33 -35.5t10 -38.5q0 -19 -7.5 -36t-18 -30.5t-21 -23t-17.5 -13.5
q-10 10 -25.5 23.5t-37.5 24.5t-50.5 19t-63.5 8q-44 0 -80 -14.5t-62.5 -42t-41 -66.5t-14.5 -88q0 -50 16 -88t44 -63.5t66.5 -38.5t83.5 -13q56 0 96.5 14t61.5 29l75 -129h2zM267 820l135 68q19 10 37.5 17t36.5 7q25 0 40.5 -12t24 -27t11.5 -28.5t3 -16.5l-254 -81z
" />
    <glyph glyph-name="cacute" unicode="&#x107;" horiz-adv-x="518" 
d="M516 44q-11 -7 -29 -17t-43.5 -19t-58.5 -15.5t-73 -6.5q-54 0 -104.5 17t-88.5 50.5t-61 84t-23 117.5q0 64 22.5 114.5t61 84.5t90 52t109.5 18q53 0 99.5 -13.5t69.5 -36.5q11 -11 17.5 -23.5t6.5 -29.5t-6 -31t-15 -25t-18.5 -19.5t-16.5 -12.5q-18 18 -50 33.5
t-76 15.5q-26 0 -49.5 -8t-41 -24t-28 -40t-10.5 -55q0 -33 10.5 -56.5t28 -38.5t41.5 -22t51 -7q23 0 42.5 4.5t34.5 10.5t25 11.5t13 8.5zM200 636l115 73q17 11 33.5 19.5t33.5 8.5q22 0 36 -11t22 -25t11.5 -26t3.5 -15l-211 -90z" />
    <glyph glyph-name="Ccircumflex" unicode="&#x108;" horiz-adv-x="671" 
d="M660 51q-11 -8 -31.5 -19.5t-51.5 -22.5t-73 -19t-95 -8q-75 0 -142 22.5t-117.5 67.5t-80 112t-29.5 156q0 87 28.5 154.5t78 114t116 71t143.5 24.5q41 0 74 -5t58.5 -13t43.5 -17t29 -16q23 -17 33 -35.5t10 -38.5q0 -19 -7.5 -36t-18 -30.5t-21 -23t-17.5 -13.5
q-10 10 -25.5 23.5t-37.5 24.5t-50.5 19t-63.5 8q-44 0 -80 -14.5t-62.5 -42t-41 -66.5t-14.5 -88q0 -50 16 -88t44 -63.5t66.5 -38.5t83.5 -13q56 0 96.5 14t61.5 29l75 -129h2zM256 745l-40 63l109 68l41 23.5t46 12.5t47 -12.5t40 -23.5l109 -68l-40 -63l-156 62z" />
    <glyph glyph-name="ccircumflex" unicode="&#x109;" horiz-adv-x="518" 
d="M516 44q-11 -7 -29 -17t-43.5 -19t-58.5 -15.5t-73 -6.5q-54 0 -104.5 17t-88.5 50.5t-61 84t-23 117.5q0 64 22.5 114.5t61 84.5t90 52t109.5 18q53 0 99.5 -13.5t69.5 -36.5q11 -11 17.5 -23.5t6.5 -29.5t-6 -31t-15 -25t-18.5 -19.5t-16.5 -12.5q-18 18 -50 33.5
t-76 15.5q-26 0 -49.5 -8t-41 -24t-28 -40t-10.5 -55q0 -33 10.5 -56.5t28 -38.5t41.5 -22t51 -7q23 0 42.5 4.5t34.5 10.5t25 11.5t13 8.5zM181 570l-50 63l99 68q15 11 36 23.5t43 12.5t43 -12.5t36 -23.5l99 -68l-50 -63l-128 70z" />
    <glyph glyph-name="Cdotaccent" unicode="&#x10a;" horiz-adv-x="671" 
d="M660 51q-11 -8 -31.5 -19.5t-51.5 -22.5t-73 -19t-95 -8q-75 0 -142 22.5t-117.5 67.5t-80 112t-29.5 156q0 87 28.5 154.5t78 114t116 71t143.5 24.5q41 0 74 -5t58.5 -13t43.5 -17t29 -16q23 -17 33 -35.5t10 -38.5q0 -19 -7.5 -36t-18 -30.5t-21 -23t-17.5 -13.5
q-10 10 -25.5 23.5t-37.5 24.5t-50.5 19t-63.5 8q-44 0 -80 -14.5t-62.5 -42t-41 -66.5t-14.5 -88q0 -50 16 -88t44 -63.5t66.5 -38.5t83.5 -13q56 0 96.5 14t61.5 29l75 -129h2zM333 829q0 14 6 27t16.5 23.5t24.5 16.5t29 6q31 0 53 -22.5t22 -50.5t-22 -50.5t-53 -22.5
q-15 0 -29 6t-24.5 16.5t-16.5 23.5t-6 27z" />
    <glyph glyph-name="cdotaccent" unicode="&#x10b;" horiz-adv-x="518" 
d="M516 44q-11 -7 -29 -17t-43.5 -19t-58.5 -15.5t-73 -6.5q-54 0 -104.5 17t-88.5 50.5t-61 84t-23 117.5q0 64 22.5 114.5t61 84.5t90 52t109.5 18q53 0 99.5 -13.5t69.5 -36.5q11 -11 17.5 -23.5t6.5 -29.5t-6 -31t-15 -25t-18.5 -19.5t-16.5 -12.5q-18 18 -50 33.5
t-76 15.5q-26 0 -49.5 -8t-41 -24t-28 -40t-10.5 -55q0 -33 10.5 -56.5t28 -38.5t41.5 -22t51 -7q23 0 42.5 4.5t34.5 10.5t25 11.5t13 8.5zM245 642q0 13 6 25.5t16 22t23 15t27 5.5t27 -5.5t22.5 -15t15 -22t5.5 -25.5q0 -27 -20.5 -48t-49.5 -21q-14 0 -27 5.5t-23 15.5
t-16 22t-6 26z" />
    <glyph glyph-name="Ccaron" unicode="&#x10c;" horiz-adv-x="671" 
d="M660 51q-11 -8 -31.5 -19.5t-51.5 -22.5t-73 -19t-95 -8q-75 0 -142 22.5t-117.5 67.5t-80 112t-29.5 156q0 87 28.5 154.5t78 114t116 71t143.5 24.5q41 0 74 -5t58.5 -13t43.5 -17t29 -16q23 -17 33 -35.5t10 -38.5q0 -19 -7.5 -36t-18 -30.5t-21 -23t-17.5 -13.5
q-10 10 -25.5 23.5t-37.5 24.5t-50.5 19t-63.5 8q-44 0 -80 -14.5t-62.5 -42t-41 -66.5t-14.5 -88q0 -50 16 -88t44 -63.5t66.5 -38.5t83.5 -13q56 0 96.5 14t61.5 29l75 -129h2zM251 913l156 -62l157 62l39 -63l-109 -68q-17 -11 -40 -23.5t-47 -12.5t-46 12.5l-41 23.5
l-109 68z" />
    <glyph glyph-name="ccaron" unicode="&#x10d;" horiz-adv-x="518" 
d="M516 44q-11 -7 -29 -17t-43.5 -19t-58.5 -15.5t-73 -6.5q-54 0 -104.5 17t-88.5 50.5t-61 84t-23 117.5q0 64 22.5 114.5t61 84.5t90 52t109.5 18q53 0 99.5 -13.5t69.5 -36.5q11 -11 17.5 -23.5t6.5 -29.5t-6 -31t-15 -25t-18.5 -19.5t-16.5 -12.5q-18 18 -50 33.5
t-76 15.5q-26 0 -49.5 -8t-41 -24t-28 -40t-10.5 -55q0 -33 10.5 -56.5t28 -38.5t41.5 -22t51 -7q23 0 42.5 4.5t34.5 10.5t25 11.5t13 8.5zM134 674l46 63l130 -70l130 70l46 -63l-97 -68q-15 -11 -36 -23.5t-43 -12.5t-43 12.5t-36 23.5z" />
    <glyph glyph-name="Dcaron" unicode="&#x10e;" horiz-adv-x="751" 
d="M237 148q6 -1 26.5 -2.5t49.5 -1.5q50 0 91 11.5t70.5 36t45.5 62.5t16 90q0 44 -13 81t-39.5 64t-67 42t-95.5 15q-39 0 -60 -1.5t-24 -2.5v-394zM70 597q0 22 6 38t15.5 26.5t22 16t25.5 7.5q19 4 55.5 7.5t107.5 3.5q93 0 168.5 -23t129 -68t82.5 -110.5t29 -150.5
q0 -84 -27 -149.5t-80.5 -111t-133 -69.5t-184.5 -24q-113 0 -162.5 4.5t-53.5 5.5v597zM171 913l156 -62l157 62l39 -63l-109 -68q-17 -11 -40 -23.5t-47 -12.5t-46 12.5l-41 23.5l-109 68z" />
    <glyph glyph-name="dcaron" unicode="&#x10f;" horiz-adv-x="812" 
d="M589 278q0 -64 -13 -111t-37 -79q-38 -50 -97 -76t-131 -26q-59 0 -109.5 19.5t-87.5 54.5t-58 85t-21 110q0 61 19.5 110.5t53 84.5t78.5 54.5t96 19.5q56 0 92.5 -18.5t54.5 -36.5v197q0 39 23 55t61 16q27 0 48.5 -6.5t27.5 -8.5v-444zM315 134q50 0 82.5 32t32.5 88
q0 26 -8.5 48.5t-24 39t-36.5 26t-46 9.5q-50 0 -82.5 -34.5t-32.5 -88.5t32.5 -87t82.5 -33zM677 668q0 38 22.5 53.5t59.5 15.5q13 0 19.5 -2t9.5 -4t4.5 -4.5t4.5 -3.5l-19 -220h-101v165z" />
    <glyph glyph-name="Dcroat" unicode="&#x110;" horiz-adv-x="779" 
d="M98 288h-25q-33 0 -47 17.5t-14 49.5q0 20 5 35t9 21h72v186q0 22 6 38t15.5 26.5t22 16t25.5 7.5q19 4 55.5 7.5t107.5 3.5q93 0 168.5 -23t129 -68t82.5 -110.5t29 -150.5q0 -84 -27 -149.5t-80.5 -111t-133 -69.5t-184.5 -24q-113 0 -162.5 4.5t-53.5 5.5v288z
M265 148q6 -1 26.5 -2.5t49.5 -1.5q50 0 91 11.5t70.5 36t45.5 62.5t16 90q0 44 -13 81t-39.5 64t-67 42t-95.5 15q-39 0 -60 -1.5t-24 -2.5v-131h118q34 0 47.5 -17.5t13.5 -46.5q0 -22 -5 -37.5t-9 -21.5h-165v-140z" />
    <glyph glyph-name="dcroat" unicode="&#x111;" horiz-adv-x="632" 
d="M200 244q0 -54 32.5 -82t82.5 -28t82.5 30t32.5 86q0 52 -33 79.5t-83 27.5t-82 -29.5t-32 -83.5zM589 274q0 -64 -13 -109t-37 -77q-38 -50 -97 -76t-131 -26q-59 0 -109.5 18t-87.5 51.5t-58 81.5t-21 108q0 61 19.5 109t53 81.5t78.5 51t96 17.5q56 0 92.5 -18.5
t54.5 -36.5v106h-97q-29 0 -41 14t-12 36q0 20 2.5 31.5t5.5 20.5h142v9q0 39 23 55t61 16q27 0 48.5 -6.5t27.5 -8.5v-65h43q32 0 42 -15t10 -40q0 -18 -3.5 -30t-5.5 -17h-86v-281z" />
    <glyph glyph-name="Emacron" unicode="&#x112;" horiz-adv-x="641" 
d="M70 591q0 95 99 95h342q46 0 65.5 -19.5t19.5 -56.5q0 -27 -8 -49.5t-13 -30.5h-338v-107h261q46 0 65.5 -19.5t19.5 -56.5q0 -27 -8 -49.5t-13 -30.5h-325v-111h354v-156h-521v591zM473 866q32 0 42 -15t10 -40q0 -18 -3.5 -30t-5.5 -17h-333q-29 0 -41 14t-12 36
q0 20 2.5 31.5t5.5 20.5h335z" />
    <glyph glyph-name="emacron" unicode="&#x113;" horiz-adv-x="561" 
d="M206 188q2 -12 10.5 -23.5t24 -21.5t39.5 -16t58 -6q26 0 49 4.5t40 9.5t28 10t13 7l56 -112q-8 -5 -26.5 -14t-46.5 -18t-65.5 -15.5t-82.5 -6.5q-56 0 -105 18t-85.5 52.5t-57.5 84.5t-21 114q0 60 21 110t58 85t87 54.5t108 19.5q54 0 97 -14.5t72.5 -39.5t45 -57
t15.5 -66q0 -37 -13 -66.5t-46.5 -50t-91 -31.5t-146.5 -11h-35zM198 292q67 0 104 5t55 13t22 18t4 20q0 21 -19 36.5t-57 15.5q-27 0 -47 -9.5t-33.5 -24.5t-20.5 -34.5t-8 -39.5zM426 692q27 0 37.5 -13.5t10.5 -35.5q0 -17 -4 -29.5t-6 -16.5h-286q-26 0 -37 13t-11 36
q0 17 4 29t6 17h286z" />
    <glyph glyph-name="Ebreve" unicode="&#x114;" horiz-adv-x="641" 
d="M70 591q0 95 99 95h342q46 0 65.5 -19.5t19.5 -56.5q0 -27 -8 -49.5t-13 -30.5h-338v-107h261q46 0 65.5 -19.5t19.5 -56.5q0 -27 -8 -49.5t-13 -30.5h-325v-111h354v-156h-521v591zM250 907q21 -68 85 -68q66 0 85 67l83 -9q-1 -22 -9 -48t-27.5 -48.5t-51.5 -38
t-80 -15.5q-49 0 -81 15.5t-51.5 38t-27.5 48.5t-9 48z" />
    <glyph glyph-name="ebreve" unicode="&#x115;" horiz-adv-x="561" 
d="M206 188q2 -12 10.5 -23.5t24 -21.5t39.5 -16t58 -6q26 0 49 4.5t40 9.5t28 10t13 7l56 -112q-8 -5 -26.5 -14t-46.5 -18t-65.5 -15.5t-82.5 -6.5q-56 0 -105 18t-85.5 52.5t-57.5 84.5t-21 114q0 60 21 110t58 85t87 54.5t108 19.5q54 0 97 -14.5t72.5 -39.5t45 -57
t15.5 -66q0 -37 -13 -66.5t-46.5 -50t-91 -31.5t-146.5 -11h-35zM198 292q67 0 104 5t55 13t22 18t4 20q0 21 -19 36.5t-57 15.5q-27 0 -47 -9.5t-33.5 -24.5t-20.5 -34.5t-8 -39.5zM233 730q9 -35 27 -51.5t49 -16.5t49 16.5t27 51.5l75 -10q-1 -21 -8.5 -46.5t-24.5 -48
t-46 -37.5t-72 -15q-44 0 -72.5 15t-46 37.5t-24.5 48t-8 46.5z" />
    <glyph glyph-name="Edotaccent" unicode="&#x116;" horiz-adv-x="641" 
d="M70 591q0 95 99 95h342q46 0 65.5 -19.5t19.5 -56.5q0 -27 -8 -49.5t-13 -30.5h-338v-107h261q46 0 65.5 -19.5t19.5 -56.5q0 -27 -8 -49.5t-13 -30.5h-325v-111h354v-156h-521v591zM265 829q0 14 6 27t16.5 23.5t24.5 16.5t29 6q31 0 53 -22.5t22 -50.5t-22 -50.5
t-53 -22.5q-15 0 -29 6t-24.5 16.5t-16.5 23.5t-6 27z" />
    <glyph glyph-name="edotaccent" unicode="&#x117;" horiz-adv-x="561" 
d="M206 188q2 -12 10.5 -23.5t24 -21.5t39.5 -16t58 -6q26 0 49 4.5t40 9.5t28 10t13 7l56 -112q-8 -5 -26.5 -14t-46.5 -18t-65.5 -15.5t-82.5 -6.5q-56 0 -105 18t-85.5 52.5t-57.5 84.5t-21 114q0 60 21 110t58 85t87 54.5t108 19.5q54 0 97 -14.5t72.5 -39.5t45 -57
t15.5 -66q0 -37 -13 -66.5t-46.5 -50t-91 -31.5t-146.5 -11h-35zM198 292q67 0 104 5t55 13t22 18t4 20q0 21 -19 36.5t-57 15.5q-27 0 -47 -9.5t-33.5 -24.5t-20.5 -34.5t-8 -39.5zM238 642q0 13 6 25.5t16 22t23 15t27 5.5t27 -5.5t22.5 -15t15 -22t5.5 -25.5
q0 -27 -20.5 -48t-49.5 -21q-14 0 -27 5.5t-23 15.5t-16 22t-6 26z" />
    <glyph glyph-name="Eogonek" unicode="&#x118;" horiz-adv-x="641" 
d="M70 591q0 95 99 95h342q46 0 65.5 -19.5t19.5 -56.5q0 -27 -8 -49.5t-13 -30.5h-338v-107h261q46 0 65.5 -19.5t19.5 -56.5q0 -27 -8 -49.5t-13 -30.5h-325v-111h354v-156h-47q-10 -2 -25.5 -6.5t-30 -13.5t-25 -21.5t-10.5 -28.5q0 -18 13 -24t27 -6q27 0 45 8t22 10
l31 -67q-14 -8 -45 -18.5t-78 -10.5q-52 0 -85 20.5t-33 65.5q0 21 7 36.5t17 26.5t21 18t19 11h-344v591z" />
    <glyph glyph-name="eogonek" unicode="&#x119;" horiz-adv-x="561" 
d="M206 188q2 -12 10.5 -23.5t24 -21.5t39.5 -16t58 -6q26 0 49 4.5t40 9.5t28 10t13 7l56 -112q-12 -8 -45.5 -22.5t-86.5 -23.5q-12 -4 -23.5 -9.5t-21.5 -14t-16 -19t-6 -23.5q0 -20 14 -26.5t29 -6.5q28 0 45 8l21 10l29 -64q-14 -8 -44 -18t-77 -10q-51 0 -83.5 19.5
t-32.5 64.5q0 32 15.5 51.5t31.5 30.5q-51 5 -94.5 25t-76 54t-50.5 81.5t-18 107.5t21 110t58 85t87 54.5t108 19.5q54 0 97 -14.5t72.5 -39.5t45 -57t15.5 -66q0 -37 -13 -66.5t-46.5 -50t-91 -31.5t-146.5 -11h-35zM198 292q67 0 104 5t55 13t22 18t4 20q0 21 -19 36.5
t-57 15.5q-27 0 -47 -9.5t-33.5 -24.5t-20.5 -34.5t-8 -39.5z" />
    <glyph glyph-name="Ecaron" unicode="&#x11a;" horiz-adv-x="641" 
d="M70 591q0 95 99 95h342q46 0 65.5 -19.5t19.5 -56.5q0 -27 -8 -49.5t-13 -30.5h-338v-107h261q46 0 65.5 -19.5t19.5 -56.5q0 -27 -8 -49.5t-13 -30.5h-325v-111h354v-156h-521v591zM186 913l156 -62l157 62l39 -63l-109 -68q-17 -11 -40 -23.5t-47 -12.5t-46 12.5
l-41 23.5l-109 68z" />
    <glyph glyph-name="ecaron" unicode="&#x11b;" horiz-adv-x="561" 
d="M206 188q2 -12 10.5 -23.5t24 -21.5t39.5 -16t58 -6q26 0 49 4.5t40 9.5t28 10t13 7l56 -112q-8 -5 -26.5 -14t-46.5 -18t-65.5 -15.5t-82.5 -6.5q-56 0 -105 18t-85.5 52.5t-57.5 84.5t-21 114q0 60 21 110t58 85t87 54.5t108 19.5q54 0 97 -14.5t72.5 -39.5t45 -57
t15.5 -66q0 -37 -13 -66.5t-46.5 -50t-91 -31.5t-146.5 -11h-35zM198 292q67 0 104 5t55 13t22 18t4 20q0 21 -19 36.5t-57 15.5q-27 0 -47 -9.5t-33.5 -24.5t-20.5 -34.5t-8 -39.5zM128 674l46 63l130 -70l130 70l46 -63l-97 -68q-15 -11 -36 -23.5t-43 -12.5t-43 12.5
t-36 23.5z" />
    <glyph glyph-name="Gcircumflex" unicode="&#x11c;" horiz-adv-x="720" 
d="M501 252h-61q-46 0 -65.5 18.5t-19.5 55.5q0 27 8 48.5t13 29.5h190q99 0 99 -95v-309q-5 -1 -24.5 -4t-49.5 -6t-67.5 -5.5t-78.5 -2.5q-90 0 -164.5 22.5t-128 67.5t-83 112.5t-29.5 157.5q0 84 28.5 151t79.5 114t121 72t152 25q42 0 74.5 -5t57 -12t41.5 -15.5
t28 -15.5q42 -26 42 -67q0 -19 -7.5 -35.5t-17.5 -29t-21 -22t-18 -14.5q-10 10 -25.5 21.5t-37 21.5t-50 16t-63.5 6q-49 0 -88 -15t-66 -42.5t-41.5 -66.5t-14.5 -87q0 -107 60.5 -157t165.5 -50q18 0 37.5 1t23.5 2v114zM254 745l-40 63l109 68l41 23.5t46 12.5t47 -12.5
t40 -23.5l109 -68l-40 -63l-156 62z" />
    <glyph glyph-name="gcircumflex" unicode="&#x11d;" horiz-adv-x="632" 
d="M123 -50q3 -2 16 -7t33.5 -10.5t48 -10t59.5 -4.5t59.5 7t47 23.5t30.5 42t11 63.5v11q-5 -5 -16.5 -14t-30 -18t-43.5 -16t-56 -7q-54 0 -99.5 16.5t-78.5 48.5t-51 78.5t-18 105.5t21 107.5t58 83.5t88.5 54.5t113.5 19.5q69 0 127.5 -26t96.5 -76q24 -32 36.5 -75
t12.5 -109v-149q0 -78 -22 -134.5t-61 -93t-92.5 -54t-116.5 -17.5q-44 0 -81 5.5t-65.5 13t-47 15t-24.5 11.5zM200 259q0 -57 32 -85t82 -28q49 0 81.5 31t32.5 82t-32.5 83.5t-81.5 32.5q-25 0 -46 -9t-36 -25t-23.5 -37t-8.5 -45zM191 570l-50 63l99 68q15 11 36 23.5
t43 12.5t43 -12.5t36 -23.5l99 -68l-50 -63l-128 70z" />
    <glyph glyph-name="Gbreve" unicode="&#x11e;" horiz-adv-x="720" 
d="M501 252h-61q-46 0 -65.5 18.5t-19.5 55.5q0 27 8 48.5t13 29.5h190q99 0 99 -95v-309q-5 -1 -24.5 -4t-49.5 -6t-67.5 -5.5t-78.5 -2.5q-90 0 -164.5 22.5t-128 67.5t-83 112.5t-29.5 157.5q0 84 28.5 151t79.5 114t121 72t152 25q42 0 74.5 -5t57 -12t41.5 -15.5
t28 -15.5q42 -26 42 -67q0 -19 -7.5 -35.5t-17.5 -29t-21 -22t-18 -14.5q-10 10 -25.5 21.5t-37 21.5t-50 16t-63.5 6q-49 0 -88 -15t-66 -42.5t-41.5 -66.5t-14.5 -87q0 -107 60.5 -157t165.5 -50q18 0 37.5 1t23.5 2v114zM324 907q21 -68 85 -68q66 0 85 67l83 -9
q-1 -22 -9 -48t-27.5 -48.5t-51.5 -38t-80 -15.5q-49 0 -81 15.5t-51.5 38t-27.5 48.5t-9 48z" />
    <glyph glyph-name="gbreve" unicode="&#x11f;" horiz-adv-x="632" 
d="M123 -50q3 -2 16 -7t33.5 -10.5t48 -10t59.5 -4.5t59.5 7t47 23.5t30.5 42t11 63.5v11q-5 -5 -16.5 -14t-30 -18t-43.5 -16t-56 -7q-54 0 -99.5 16.5t-78.5 48.5t-51 78.5t-18 105.5t21 107.5t58 83.5t88.5 54.5t113.5 19.5q69 0 127.5 -26t96.5 -76q24 -32 36.5 -75
t12.5 -109v-149q0 -78 -22 -134.5t-61 -93t-92.5 -54t-116.5 -17.5q-44 0 -81 5.5t-65.5 13t-47 15t-24.5 11.5zM200 259q0 -57 32 -85t82 -28q49 0 81.5 31t32.5 82t-32.5 83.5t-81.5 32.5q-25 0 -46 -9t-36 -25t-23.5 -37t-8.5 -45zM244 730q9 -35 27 -51.5t49 -16.5
t49 16.5t27 51.5l75 -10q-1 -21 -8.5 -46.5t-24.5 -48t-46 -37.5t-72 -15q-44 0 -72.5 15t-46 37.5t-24.5 48t-8 46.5z" />
    <glyph glyph-name="Gdotaccent" unicode="&#x120;" horiz-adv-x="720" 
d="M501 252h-61q-46 0 -65.5 18.5t-19.5 55.5q0 27 8 48.5t13 29.5h190q99 0 99 -95v-309q-5 -1 -24.5 -4t-49.5 -6t-67.5 -5.5t-78.5 -2.5q-90 0 -164.5 22.5t-128 67.5t-83 112.5t-29.5 157.5q0 84 28.5 151t79.5 114t121 72t152 25q42 0 74.5 -5t57 -12t41.5 -15.5
t28 -15.5q42 -26 42 -67q0 -19 -7.5 -35.5t-17.5 -29t-21 -22t-18 -14.5q-10 10 -25.5 21.5t-37 21.5t-50 16t-63.5 6q-49 0 -88 -15t-66 -42.5t-41.5 -66.5t-14.5 -87q0 -107 60.5 -157t165.5 -50q18 0 37.5 1t23.5 2v114zM341 829q0 14 6 27t16.5 23.5t24.5 16.5t29 6
q31 0 53 -22.5t22 -50.5t-22 -50.5t-53 -22.5q-15 0 -29 6t-24.5 16.5t-16.5 23.5t-6 27z" />
    <glyph glyph-name="gdotaccent" unicode="&#x121;" horiz-adv-x="632" 
d="M123 -50q3 -2 16 -7t33.5 -10.5t48 -10t59.5 -4.5t59.5 7t47 23.5t30.5 42t11 63.5v11q-5 -5 -16.5 -14t-30 -18t-43.5 -16t-56 -7q-54 0 -99.5 16.5t-78.5 48.5t-51 78.5t-18 105.5t21 107.5t58 83.5t88.5 54.5t113.5 19.5q69 0 127.5 -26t96.5 -76q24 -32 36.5 -75
t12.5 -109v-149q0 -78 -22 -134.5t-61 -93t-92.5 -54t-116.5 -17.5q-44 0 -81 5.5t-65.5 13t-47 15t-24.5 11.5zM200 259q0 -57 32 -85t82 -28q49 0 81.5 31t32.5 82t-32.5 83.5t-81.5 32.5q-25 0 -46 -9t-36 -25t-23.5 -37t-8.5 -45zM249 642q0 13 6 25.5t16 22t23 15
t27 5.5t27 -5.5t22.5 -15t15 -22t5.5 -25.5q0 -27 -20.5 -48t-49.5 -21q-14 0 -27 5.5t-23 15.5t-16 22t-6 26z" />
    <glyph glyph-name="Gcommaaccent" unicode="&#x122;" horiz-adv-x="720" 
d="M501 252h-61q-46 0 -65.5 18.5t-19.5 55.5q0 27 8 48.5t13 29.5h190q99 0 99 -95v-309q-5 -1 -24.5 -4t-49.5 -6t-67.5 -5.5t-78.5 -2.5q-90 0 -164.5 22.5t-128 67.5t-83 112.5t-29.5 157.5q0 84 28.5 151t79.5 114t121 72t152 25q42 0 74.5 -5t57 -12t41.5 -15.5
t28 -15.5q42 -26 42 -67q0 -19 -7.5 -35.5t-17.5 -29t-21 -22t-18 -14.5q-10 10 -25.5 21.5t-37 21.5t-50 16t-63.5 6q-49 0 -88 -15t-66 -42.5t-41.5 -66.5t-14.5 -87q0 -107 60.5 -157t165.5 -50q18 0 37.5 1t23.5 2v114zM343 -135q4 35 21 59.5t54 24.5q23 0 40.5 -8
t23.5 -13l-65 -203l-88 14z" />
    <glyph glyph-name="gcommaaccent" unicode="&#x123;" horiz-adv-x="632" 
d="M123 -50q3 -2 16 -7t33.5 -10.5t48 -10t59.5 -4.5t59.5 7t47 23.5t30.5 42t11 63.5v11q-5 -5 -16.5 -14t-30 -18t-43.5 -16t-56 -7q-54 0 -99.5 16.5t-78.5 48.5t-51 78.5t-18 105.5t21 107.5t58 83.5t88.5 54.5t113.5 19.5q69 0 127.5 -26t96.5 -76q24 -32 36.5 -75
t12.5 -109v-149q0 -78 -22 -134.5t-61 -93t-92.5 -54t-116.5 -17.5q-44 0 -81 5.5t-65.5 13t-47 15t-24.5 11.5zM200 259q0 -57 32 -85t82 -28q49 0 81.5 31t32.5 82t-32.5 83.5t-81.5 32.5q-25 0 -46 -9t-36 -25t-23.5 -37t-8.5 -45zM318 795l88 -14l-14 -126
q-4 -35 -21 -59.5t-54 -24.5q-23 0 -40.5 8t-23.5 13z" />
    <glyph glyph-name="Hcircumflex" unicode="&#x124;" horiz-adv-x="740" 
d="M70 0v612q0 41 24 57.5t63 16.5q29 0 51.5 -7t28.5 -9v-235h266v177q0 41 24 57.5t63 16.5q29 0 51.5 -7t28.5 -9v-670h-167v277h-266v-277h-167zM227 745l-40 63l109 68l41 23.5t46 12.5t47 -12.5t40 -23.5l109 -68l-40 -63l-156 62z" />
    <glyph glyph-name="hcircumflex" unicode="&#x125;" horiz-adv-x="617" 
d="M55 666q0 39 23 55t61 16q27 0 48.5 -6.5t27.5 -8.5v-242q19 17 52 31t85 14q45 0 83 -12.5t66.5 -39t44.5 -67t16 -95.5v-311h-161v278q0 51 -22.5 74t-67.5 23t-70 -27t-25 -84v-264h-161v666zM111 796l-50 63l99 68q15 11 36 23.5t43 12.5t43 -12.5t36 -23.5l99 -68
l-50 -63l-128 70z" />
    <glyph glyph-name="Hbar" unicode="&#x126;" horiz-adv-x="768" 
d="M84 0v489h-31q-29 0 -41 14t-12 36q0 20 2.5 31.5t5.5 20.5h76v21q0 41 24 57.5t63 16.5q29 0 51.5 -7t28.5 -9v-79h266v21q0 41 24 57.5t63 16.5q29 0 51.5 -7t28.5 -9v-79h32q32 0 42 -15t10 -40q0 -18 -3.5 -30t-5.5 -17h-75v-489h-167v267h-266v-267h-167zM251 415
h266v74h-266v-74z" />
    <glyph glyph-name="hbar" unicode="&#x127;" horiz-adv-x="617" 
d="M55 555h-41q-29 0 -41 14t-12 36q0 20 2.5 31.5t5.5 20.5h86v9q0 39 23 55t61 16q27 0 48.5 -6.5t27.5 -8.5v-65h99q32 0 42 -15t10 -40q0 -18 -3.5 -30t-5.5 -17h-142v-105q19 17 52 31t85 14q45 0 83 -12.5t66.5 -39t44.5 -67t16 -95.5v-281h-161v248q0 51 -22.5 74
t-67.5 23t-70 -27t-25 -84v-234h-161v555z" />
    <glyph glyph-name="Itilde" unicode="&#x128;" horiz-adv-x="307" 
d="M70 0v612q0 41 24 57.5t63 16.5q29 0 51.5 -7t28.5 -9v-670h-167zM-40 764q5 22 14.5 42.5t24.5 37t36.5 26.5t50.5 10q26 0 45.5 -4t32.5 -8q15 -5 32 -9.5t31 -4.5q12 0 21 7.5t14 26.5l96 -18q-5 -22 -14 -43t-24 -37t-36.5 -26t-51.5 -10q-15 0 -30.5 2.5t-30 6.5
l-26 7t-17.5 5q-8 2 -18 4t-18 2q-11 0 -20 -8t-14 -28z" />
    <glyph glyph-name="itilde" unicode="&#x129;" horiz-adv-x="281" 
d="M60 439q0 39 23 55t61 16q27 0 49 -6.5t28 -8.5v-495h-161v439zM-43 589q4 21 13 41.5t23.5 36.5t35 25.5t47.5 9.5q24 0 42.5 -4t31.5 -8l25 -8q11 -3 18.5 -4.5t17.5 -1.5q12 0 21 7.5t14 26.5l89 -18q-5 -21 -13.5 -41.5t-23 -36.5t-34.5 -25.5t-48 -9.5
q-21 0 -38.5 4.5l-37.5 9.5l-24 7q-8 2 -17.5 4t-17.5 2q-11 0 -20 -8t-14 -28z" />
    <glyph glyph-name="Imacron" unicode="&#x12a;" horiz-adv-x="307" 
d="M70 0v612q0 41 24 57.5t63 16.5q29 0 51.5 -7t28.5 -9v-670h-167zM304 866q32 0 42 -15t10 -40q0 -18 -3.5 -30t-5.5 -17h-333q-29 0 -41 14t-12 36q0 20 2.5 31.5t5.5 20.5h335z" />
    <glyph glyph-name="imacron" unicode="&#x12b;" horiz-adv-x="281" 
d="M60 439q0 39 23 55t61 16q27 0 49 -6.5t28 -8.5v-495h-161v439zM271 692q27 0 37.5 -13.5t10.5 -35.5q0 -17 -4 -29.5t-6 -16.5h-286q-26 0 -37 13t-11 36q0 17 4 29t6 17h286z" />
    <glyph glyph-name="Ibreve" unicode="&#x12c;" horiz-adv-x="307" 
d="M70 0v612q0 41 24 57.5t63 16.5q29 0 51.5 -7t28.5 -9v-670h-167zM74 907q21 -68 85 -68q66 0 85 67l83 -9q-1 -22 -9 -48t-27.5 -48.5t-51.5 -38t-80 -15.5q-49 0 -81 15.5t-51.5 38t-27.5 48.5t-9 48z" />
    <glyph glyph-name="ibreve" unicode="&#x12d;" horiz-adv-x="281" 
d="M60 439q0 39 23 55t61 16q27 0 49 -6.5t28 -8.5v-495h-161v439zM70 730q9 -35 27 -51.5t49 -16.5t49 16.5t27 51.5l75 -10q-1 -21 -8.5 -46.5t-24.5 -48t-46 -37.5t-72 -15q-44 0 -72.5 15t-46 37.5t-24.5 48t-8 46.5z" />
    <glyph glyph-name="Iogonek" unicode="&#x12e;" horiz-adv-x="307" 
d="M214 0q-10 -2 -25.5 -6.5t-30 -13.5t-25 -21.5t-10.5 -28.5q0 -18 13 -24t27 -6q27 0 45 8t22 10l31 -67q-14 -8 -45 -18.5t-78 -10.5q-52 0 -85 20.5t-33 65.5q0 21 7 36.5t17 26.5t21 18t19 11h-14v612q0 41 24 57.5t63 16.5q29 0 51.5 -7t28.5 -9v-670h-23z" />
    <glyph glyph-name="iogonek" unicode="&#x12f;" horiz-adv-x="281" 
d="M60 439q0 39 23 55t61 16q27 0 49 -6.5t28 -8.5v-495h-20q-11 -2 -27 -6.5t-31 -13.5t-25.5 -22t-10.5 -30q0 -20 14 -26.5t29 -6.5q28 0 45 8l21 10l29 -64q-14 -8 -44 -18t-77 -10q-51 0 -83.5 19.5t-32.5 64.5q0 25 10 43t23 29t24.5 16.5t14.5 6.5h-20v439zM51 647
q0 38 25.5 64t63.5 26t64 -26t26 -64t-26 -63.5t-64 -25.5t-63.5 25.5t-25.5 63.5z" />
    <glyph glyph-name="Idotaccent" unicode="&#x130;" horiz-adv-x="307" 
d="M70 0v612q0 41 24 57.5t63 16.5q29 0 51.5 -7t28.5 -9v-670h-167zM92 829q0 14 6 27t16.5 23.5t24.5 16.5t29 6q31 0 53 -22.5t22 -50.5t-22 -50.5t-53 -22.5q-15 0 -29 6t-24.5 16.5t-16.5 23.5t-6 27z" />
    <glyph glyph-name="dotlessi" unicode="&#x131;" horiz-adv-x="281" 
d="M60 439q0 39 23 55t61 16q27 0 49 -6.5t28 -8.5v-495h-161v439z" />
    <glyph glyph-name="IJ" unicode="&#x132;" horiz-adv-x="913" 
d="M70 0v612q0 41 24 57.5t63 16.5q29 0 51.5 -7t28.5 -9v-670h-167zM437 212l13.5 -19.5t26 -27t40 -24t55.5 -10.5q56 0 83.5 27t27.5 91v363q0 41 24 57.5t63 16.5q29 0 51.5 -7t28.5 -9v-431q0 -57 -16 -104.5t-49 -81.5t-83.5 -52.5t-118.5 -18.5q-63 0 -110 17.5
t-79.5 40t-50 44t-21.5 29.5z" />
    <glyph glyph-name="ij" unicode="&#x133;" horiz-adv-x="567" 
d="M60 439q0 39 23 55t61 16q27 0 49 -6.5t28 -8.5v-495h-161v439zM51 647q0 38 25.5 64t63.5 26t64 -26t26 -64t-26 -63.5t-64 -25.5t-63.5 25.5t-25.5 63.5zM197 -60q13 -7 34 -12t42 -5q29 0 51 15t22 57v444q0 39 23 55t61 16q27 0 49 -6.5t28 -8.5v-487q0 -63 -17 -105
t-46 -67t-66.5 -35.5t-78.5 -10.5q-23 0 -46 3.5t-42.5 9t-34 10.5t-19.5 8zM337 647q0 38 25.5 64t63.5 26t64 -26t26 -64t-26 -63.5t-64 -25.5t-63.5 25.5t-25.5 63.5z" />
    <glyph glyph-name="Jcircumflex" unicode="&#x134;" horiz-adv-x="599" 
d="M123 212l13.5 -19.5t26 -27t40 -24t55.5 -10.5q56 0 83.5 27t27.5 91v363q0 41 24 57.5t63 16.5q29 0 51.5 -7t28.5 -9v-431q0 -57 -16 -104.5t-49 -81.5t-83.5 -52.5t-118.5 -18.5q-63 0 -110 17.5t-79.5 40t-50 44t-21.5 29.5zM294 745l-40 63l109 68l41 23.5t46 12.5
t47 -12.5t40 -23.5l109 -68l-40 -63l-156 62z" />
    <glyph glyph-name="jcircumflex" unicode="&#x135;" horiz-adv-x="281" 
d="M-89 -60q13 -7 34 -12t42 -5q29 0 51 15t22 57v444q0 39 23 55t61 16q27 0 49 -6.5t28 -8.5v-487q0 -63 -17 -105t-46 -67t-66.5 -35.5t-78.5 -10.5q-23 0 -46 3.5t-42.5 9t-34 10.5t-19.5 8zM19 570l-50 63l99 68q15 11 36 23.5t43 12.5t43 -12.5t36 -23.5l99 -68
l-50 -63l-128 70z" />
    <glyph glyph-name="Kcommaaccent" unicode="&#x136;" horiz-adv-x="700" 
d="M70 0v612q0 41 24 57.5t63 16.5q29 0 51.5 -7t28.5 -9v-255l51.5 56.5l57.5 61.5l57 59l51 49q18 16 42 30.5t60 14.5q23 0 42 -5.5t32.5 -13t22.5 -15.5t13 -13l-23 -23l-42.5 -43l-53.5 -54.5l-57 -58l-51.5 -53.5l-37.5 -41l80 -88.5l73.5 -88l70 -91l70.5 -98.5h-205
l-58 75.5l-65.5 81t-67.5 77.5l-62 65v-299h-167zM297 -135q4 35 21 59.5t54 24.5q23 0 40.5 -8t23.5 -13l-65 -203l-88 14z" />
    <glyph glyph-name="kcommaaccent" unicode="&#x137;" horiz-adv-x="601" 
d="M55 666q0 39 23 55t61 16q27 0 49 -6.5t28 -8.5v-382l38.5 31.5l40 33l37 31t28.5 24.5l26.5 22.5t24 15.5t26.5 9t34 3t37 -6t30 -14.5t22 -18t13 -16.5q-19 -20 -47.5 -45l-59 -49.5l-59 -47l-46.5 -37.5q62 -56 125.5 -128.5t114.5 -147.5h-199q-20 27 -44 55t-49 54
l-49 49.5l-44 43.5v-202h-161v666zM231 -135q4 35 21 59.5t54 24.5q23 0 40.5 -8t23.5 -13l-65 -203l-88 14z" />
    <glyph glyph-name="kgreenlandic" unicode="&#x138;" horiz-adv-x="601" 
d="M55 439q0 39 23 55t61 16q27 0 49 -6.5t28 -8.5v-176q18 15 38.5 35l40 40.5l37 38t28.5 27.5l26.5 22.5t24 15.5t26.5 9t34 3t37 -6t30 -14.5t22 -18t13 -16.5l-47.5 -48l-59 -57l-59 -54.5l-46.5 -40.5q64 -52 123 -112t117 -143h-199q-50 55 -95 99.5t-91 81.5v-181
h-161v439z" />
    <glyph glyph-name="Lacute" unicode="&#x139;" horiz-adv-x="559" 
d="M70 0v612q0 41 24 57.5t63 16.5q29 0 51.5 -7t28.5 -9v-514h317v-156h-484zM70 820l135 68q19 10 37.5 17t36.5 7q25 0 40.5 -12t24 -27t11.5 -28.5t3 -16.5l-254 -81z" />
    <glyph glyph-name="lacute" unicode="&#x13a;" horiz-adv-x="281" 
d="M60 666q0 39 23 55t61 16q27 0 49 -6.5t28 -8.5v-722h-161v666zM31 862l115 73q17 11 33.5 19.5t33.5 8.5q22 0 36 -11t22 -25t11.5 -26t3.5 -15l-211 -90z" />
    <glyph glyph-name="Lcommaaccent" unicode="&#x13b;" horiz-adv-x="559" 
d="M70 0v612q0 41 24 57.5t63 16.5q29 0 51.5 -7t28.5 -9v-514h317v-156h-484zM237 -135q4 35 21 59.5t54 24.5q23 0 40.5 -8t23.5 -13l-65 -203l-88 14z" />
    <glyph glyph-name="lcommaaccent" unicode="&#x13c;" horiz-adv-x="281" 
d="M60 666q0 39 23 55t61 16q27 0 49 -6.5t28 -8.5v-722h-161v666zM65 -135q4 35 21 59.5t54 24.5q23 0 40.5 -8t23.5 -13l-65 -203l-88 14z" />
    <glyph glyph-name="Lcaron" unicode="&#x13d;" horiz-adv-x="559" 
d="M70 0v612q0 41 24 57.5t63 16.5q29 0 51.5 -7t28.5 -9v-514h317v-156h-484zM345 623q0 38 22.5 53.5t59.5 15.5q13 0 19.5 -2t9.5 -4t4.5 -4.5t4.5 -3.5l-19 -220h-101v165z" />
    <glyph glyph-name="lcaron" unicode="&#x13e;" horiz-adv-x="424" 
d="M60 666q0 39 23 55t61 16q27 0 49 -6.5t28 -8.5v-722h-161v666zM311 668q0 38 22.5 53.5t59.5 15.5q13 0 19.5 -2t9.5 -4t4.5 -4.5t4.5 -3.5l-19 -220h-101v165z" />
    <glyph glyph-name="Ldot" unicode="&#x13f;" horiz-adv-x="559" 
d="M70 0v612q0 41 24 57.5t63 16.5q29 0 51.5 -7t28.5 -9v-514h317v-156h-484zM356 426q0 14 6 27t16.5 23.5t24.5 16.5t29 6q31 0 53 -22.5t22 -50.5t-22 -50.5t-53 -22.5q-15 0 -29 6t-24.5 16.5t-16.5 23.5t-6 27z" />
    <glyph glyph-name="ldot" unicode="&#x140;" horiz-adv-x="448" 
d="M60 666q0 39 23 55t61 16q27 0 49 -6.5t28 -8.5v-722h-161v666zM297 403q0 13 6 25.5t16 22t23 15t27 5.5t27 -5.5t22.5 -15t15 -22t5.5 -25.5q0 -27 -20.5 -48t-49.5 -21q-14 0 -27 5.5t-23 15.5t-16 22t-6 26z" />
    <glyph glyph-name="Lslash" unicode="&#x141;" horiz-adv-x="559" 
d="M70 0v243l-66 -42v40q0 15 1 31.5t4.5 32.5t12 29.5t23.5 23.5l25 16v238q0 41 24 57.5t63 16.5q29 0 51.5 -7t28.5 -9v-199l143 92v-47q0 -31 -5.5 -61t-35.5 -50l-102 -65v-184h317v-156h-484z" />
    <glyph glyph-name="lslash" unicode="&#x142;" horiz-adv-x="281" 
d="M60 272l-56 -40v77q0 15 0.5 26.5t4.5 21t11.5 18t21.5 18.5l18 13v260q0 39 23 55t61 16q27 0 49 -6.5t28 -8.5v-221l56 40v-77q0 -15 -0.5 -26t-4.5 -20.5t-11.5 -18t-21.5 -18.5l-18 -13v-368h-161v272z" />
    <glyph glyph-name="Nacute" unicode="&#x143;" horiz-adv-x="739" 
d="M70 599q0 26 8 43t21 26.5t29.5 13.5t33.5 4q35 0 56 -9.5t27 -14.5q5 -5 22.5 -29l42 -59l53 -77.5l55.5 -83l50 -75l36 -55.5v329q0 41 24 57.5t63 16.5q29 0 51 -7t27 -9v-670h-157l-28 45l-44 68l-53.5 81.5l-56 85.5l-52.5 79l-43 63v-422h-165v599zM249 820l135 68
q19 10 37.5 17t36.5 7q25 0 40.5 -12t24 -27t11.5 -28.5t3 -16.5l-254 -81z" />
    <glyph glyph-name="nacute" unicode="&#x144;" horiz-adv-x="604" 
d="M40 309q0 52 20 92.5t55 67.5t81 41t99 14q52 0 98.5 -14t81 -41t54.5 -67.5t20 -92.5v-309h-161v272q0 53 -24 78.5t-69 25.5q-94 0 -94 -104v-272h-161v309zM180 636l115 73q17 11 33.5 19.5t33.5 8.5q22 0 36 -11t22 -25t11.5 -26t3.5 -15l-211 -90z" />
    <glyph glyph-name="Ncommaaccent" unicode="&#x145;" horiz-adv-x="739" 
d="M70 599q0 26 8 43t21 26.5t29.5 13.5t33.5 4q35 0 56 -9.5t27 -14.5q5 -5 22.5 -29l42 -59l53 -77.5l55.5 -83l50 -75l36 -55.5v329q0 41 24 57.5t63 16.5q29 0 51 -7t27 -9v-670h-157l-28 45l-44 68l-53.5 81.5l-56 85.5l-52.5 79l-43 63v-422h-165v599zM310 -135
q4 35 21 59.5t54 24.5q23 0 40.5 -8t23.5 -13l-65 -203l-88 14z" />
    <glyph glyph-name="ncommaaccent" unicode="&#x146;" horiz-adv-x="604" 
d="M40 309q0 52 20 92.5t55 67.5t81 41t99 14q52 0 98.5 -14t81 -41t54.5 -67.5t20 -92.5v-309h-161v272q0 53 -24 78.5t-69 25.5q-94 0 -94 -104v-272h-161v309zM226 -135q4 35 21 59.5t54 24.5q23 0 40.5 -8t23.5 -13l-65 -203l-88 14z" />
    <glyph glyph-name="Ncaron" unicode="&#x147;" horiz-adv-x="739" 
d="M70 599q0 26 8 43t21 26.5t29.5 13.5t33.5 4q35 0 56 -9.5t27 -14.5q5 -5 22.5 -29l42 -59l53 -77.5l55.5 -83l50 -75l36 -55.5v329q0 41 24 57.5t63 16.5q29 0 51 -7t27 -9v-670h-157l-28 45l-44 68l-53.5 81.5l-56 85.5l-52.5 79l-43 63v-422h-165v599zM236 913
l156 -62l157 62l39 -63l-109 -68q-17 -11 -40 -23.5t-47 -12.5t-46 12.5l-41 23.5l-109 68z" />
    <glyph glyph-name="ncaron" unicode="&#x148;" horiz-adv-x="604" 
d="M40 309q0 52 20 92.5t55 67.5t81 41t99 14q52 0 98.5 -14t81 -41t54.5 -67.5t20 -92.5v-309h-161v272q0 53 -24 78.5t-69 25.5q-94 0 -94 -104v-272h-161v309zM123 674l46 63l130 -70l130 70l46 -63l-97 -68q-15 -11 -36 -23.5t-43 -12.5t-43 12.5t-36 23.5z" />
    <glyph glyph-name="napostrophe" unicode="&#x149;" horiz-adv-x="691" 
d="M126 309q0 52 20 92.5t55 67.5t81 41t99 14q52 0 98.5 -14t81 -41t54.5 -67.5t20 -92.5v-309h-161v272q0 53 -24 78.5t-69 25.5q-94 0 -94 -104v-272h-161v309zM80 678q8 28 22.5 43t44.5 15q31 0 51.5 -13.5t26.5 -21.5l-103 -236l-92 35z" />
    <glyph glyph-name="Eng" unicode="&#x14a;" horiz-adv-x="739" 
d="M70 599q0 26 8 43t21 26.5t29.5 13.5t33.5 4q35 0 56 -9.5t27 -14.5q5 -5 22.5 -29l42 -59l53 -77.5l55.5 -83l50 -75l36 -55.5v329q0 41 24 57.5t63 16.5q29 0 51 -7t27 -9v-662q0 -63 -17 -105t-46 -67t-66.5 -35.5t-78.5 -10.5q-23 0 -46 3.5t-42.5 9t-34 10.5
t-19.5 8l40 119q13 -7 34 -12t42 -5q15 0 28 3.5t23 14t16 28t6 46.5q-9 15 -28 43.5l-43.5 65.5l-52 78.5l-55 82l-52 76l-42.5 61.5v-422h-165v599z" />
    <glyph glyph-name="eng" unicode="&#x14b;" horiz-adv-x="619" 
d="M254 -60q13 -7 34 -12t42 -5q29 0 51 15t22 57v277q0 53 -24 78.5t-69 25.5q-94 0 -94 -104v-272h-161v309q0 52 20 92.5t55 67.5t81 41t99 14q52 0 98.5 -14t81 -41t54.5 -67.5t20 -92.5v-301q0 -63 -17 -105t-46 -67t-66.5 -35.5t-78.5 -10.5q-23 0 -46 3.5t-42.5 9
t-34 10.5t-19.5 8z" />
    <glyph glyph-name="Omacron" unicode="&#x14c;" horiz-adv-x="822" 
d="M40 343q0 76 28.5 142t78.5 114.5t118 76.5t146 28t146 -28t118 -76.5t78.5 -114.5t28.5 -142t-28.5 -142t-78.5 -114.5t-118 -76.5t-146 -28t-146 28t-118 76.5t-78.5 114.5t-28.5 142zM411 138q43 0 79 15.5t62 43.5t40.5 65t14.5 81t-14.5 81.5t-40.5 65t-62 43
t-79 15.5t-79 -15.5t-62 -43t-40.5 -65t-14.5 -81.5t14.5 -81t40.5 -65t62 -43.5t79 -15.5zM556 866q32 0 42 -15t10 -40q0 -18 -3.5 -30t-5.5 -17h-333q-29 0 -41 14t-12 36q0 20 2.5 31.5t5.5 20.5h335z" />
    <glyph glyph-name="omacron" unicode="&#x14d;" horiz-adv-x="634" 
d="M35 255q0 58 22 107t60.5 85t89.5 56.5t110 20.5q58 0 109.5 -20.5t90 -56.5t60.5 -85t22 -107t-22 -107t-60.5 -85t-90 -56.5t-109.5 -20.5q-59 0 -110 20.5t-89.5 56.5t-60.5 85t-22 107zM317 130q25 0 46.5 9.5t37.5 26t24.5 39.5t8.5 50t-8.5 50t-24.5 39.5t-37.5 26
t-46.5 9.5q-26 0 -47 -9.5t-37 -26t-24.5 -39.5t-8.5 -50t8.5 -50t24.5 -39.5t37 -26t47 -9.5zM442 692q27 0 37.5 -13.5t10.5 -35.5q0 -17 -4 -29.5t-6 -16.5h-286q-26 0 -37 13t-11 36q0 17 4 29t6 17h286z" />
    <glyph glyph-name="Obreve" unicode="&#x14e;" horiz-adv-x="822" 
d="M40 343q0 76 28.5 142t78.5 114.5t118 76.5t146 28t146 -28t118 -76.5t78.5 -114.5t28.5 -142t-28.5 -142t-78.5 -114.5t-118 -76.5t-146 -28t-146 28t-118 76.5t-78.5 114.5t-28.5 142zM411 138q43 0 79 15.5t62 43.5t40.5 65t14.5 81t-14.5 81.5t-40.5 65t-62 43
t-79 15.5t-79 -15.5t-62 -43t-40.5 -65t-14.5 -81.5t14.5 -81t40.5 -65t62 -43.5t79 -15.5zM327 907q21 -68 85 -68q66 0 85 67l83 -9q-1 -22 -9 -48t-27.5 -48.5t-51.5 -38t-80 -15.5q-49 0 -81 15.5t-51.5 38t-27.5 48.5t-9 48z" />
    <glyph glyph-name="obreve" unicode="&#x14f;" horiz-adv-x="634" 
d="M35 255q0 58 22 107t60.5 85t89.5 56.5t110 20.5q58 0 109.5 -20.5t90 -56.5t60.5 -85t22 -107t-22 -107t-60.5 -85t-90 -56.5t-109.5 -20.5q-59 0 -110 20.5t-89.5 56.5t-60.5 85t-22 107zM317 130q25 0 46.5 9.5t37.5 26t24.5 39.5t8.5 50t-8.5 50t-24.5 39.5t-37.5 26
t-46.5 9.5q-26 0 -47 -9.5t-37 -26t-24.5 -39.5t-8.5 -50t8.5 -50t24.5 -39.5t37 -26t47 -9.5zM241 730q9 -35 27 -51.5t49 -16.5t49 16.5t27 51.5l75 -10q-1 -21 -8.5 -46.5t-24.5 -48t-46 -37.5t-72 -15q-44 0 -72.5 15t-46 37.5t-24.5 48t-8 46.5z" />
    <glyph glyph-name="Ohungarumlaut" unicode="&#x150;" horiz-adv-x="822" 
d="M40 343q0 76 28.5 142t78.5 114.5t118 76.5t146 28t146 -28t118 -76.5t78.5 -114.5t28.5 -142t-28.5 -142t-78.5 -114.5t-118 -76.5t-146 -28t-146 28t-118 76.5t-78.5 114.5t-28.5 142zM411 138q43 0 79 15.5t62 43.5t40.5 65t14.5 81t-14.5 81.5t-40.5 65t-62 43
t-79 15.5t-79 -15.5t-62 -43t-40.5 -65t-14.5 -81.5t14.5 -81t40.5 -65t62 -43.5t79 -15.5zM205 823l108 75q34 24 72 24q23 0 36 -11t19.5 -24t8 -24.5t1.5 -14.5l-206 -91zM480 823l108 75q34 24 72 24q23 0 36 -11t19.5 -24t8 -24.5t1.5 -14.5l-206 -91z" />
    <glyph glyph-name="ohungarumlaut" unicode="&#x151;" horiz-adv-x="634" 
d="M35 255q0 58 22 107t60.5 85t89.5 56.5t110 20.5q58 0 109.5 -20.5t90 -56.5t60.5 -85t22 -107t-22 -107t-60.5 -85t-90 -56.5t-109.5 -20.5q-59 0 -110 20.5t-89.5 56.5t-60.5 85t-22 107zM317 130q25 0 46.5 9.5t37.5 26t24.5 39.5t8.5 50t-8.5 50t-24.5 39.5t-37.5 26
t-46.5 9.5q-26 0 -47 -9.5t-37 -26t-24.5 -39.5t-8.5 -50t8.5 -50t24.5 -39.5t37 -26t47 -9.5zM363 631l93 78q16 14 30.5 21t31.5 7q23 0 35 -10.5t18 -23.5q7 -15 8 -33l-169 -100zM124 631l93 78q16 14 30.5 21t31.5 7q23 0 35 -10.5t18 -23.5q7 -15 8 -33l-169 -100z
" />
    <glyph glyph-name="OE" unicode="&#x152;" horiz-adv-x="1168" 
d="M607 69q-13 -17 -34.5 -32t-49 -26.5t-60 -18t-67.5 -6.5q-73 0 -137.5 26t-113 73t-77 112.5t-28.5 145.5t28.5 145.5t77 112.5t113 73t137.5 26q49 0 87.5 -11t66 -25.5t42.5 -29t17 -21.5q0 11 5.5 24t16 24t27 18t39.5 7h341q46 0 65.5 -19.5t19.5 -56.5
q0 -27 -8 -49.5t-13 -30.5h-331v-107h254q46 0 65.5 -19.5t19.5 -56.5q0 -27 -8 -49.5t-13 -30.5h-318v-111h347v-156h-511v69zM411 142q43 0 79 15t62 42t40.5 63.5t14.5 80.5t-14.5 81t-40.5 63.5t-62 41.5t-79 15t-79 -14.5t-62 -40.5t-40.5 -63t-14.5 -83
q0 -45 14.5 -82.5t40.5 -63.5t62 -40.5t79 -14.5z" />
    <glyph glyph-name="oe" unicode="&#x153;" horiz-adv-x="958" 
d="M603 188q2 -12 10.5 -23.5t24 -21.5t39.5 -16t58 -6q26 0 49 4.5t40 9.5t28 10t13 7l56 -112q-8 -5 -26.5 -14t-46.5 -18t-65.5 -15.5t-82.5 -6.5q-57 0 -109 21.5t-82 58.5q-33 -37 -85.5 -58.5t-115.5 -21.5q-55 0 -104.5 20t-87 55.5t-59.5 85t-22 108.5
q0 60 22 109.5t60 85t88 55t107 19.5q61 0 115 -23t84 -61q32 41 84 62.5t110 21.5q54 0 97 -14.5t72.5 -39.5t45 -57t15.5 -66q0 -37 -13 -66.5t-46.5 -50t-91 -31.5t-146.5 -11h-35zM317 130q25 0 46.5 9.5t37.5 26t24.5 39.5t8.5 50t-8.5 50t-24.5 39.5t-37.5 26
t-46.5 9.5q-26 0 -47 -9.5t-37 -26t-24.5 -39.5t-8.5 -50t8.5 -50t24.5 -39.5t37 -26t47 -9.5zM595 292q67 0 104 5t55 13t22 18t4 20q0 21 -19 36.5t-57 15.5q-27 0 -47 -9.5t-33.5 -24.5t-20.5 -34.5t-8 -39.5z" />
    <glyph glyph-name="Racute" unicode="&#x154;" horiz-adv-x="690" 
d="M70 597q0 22 6 38t15.5 26.5t22 16t25.5 7.5q10 2 23.5 4t34 3.5t50 2.5t71.5 1q90 0 150 -19.5t96.5 -52.5t52 -75.5t15.5 -88.5q0 -61 -25 -109.5t-82 -79.5q15 -24 33 -56l37.5 -67.5l38.5 -73.5l36 -74h-191l-18.5 41.5t-31 66t-36 69.5t-31.5 53q-14 -2 -28.5 -2
h-30.5q-6 0 -16.5 0.5l-21.5 1t-20 1t-12 1.5v-232h-163v597zM233 374q3 0 8.5 -1t15.5 -2t25.5 -1.5t38.5 -0.5q43 0 70.5 7.5t43 20t21 29t5.5 33.5q0 16 -5 32.5t-20.5 30.5t-44.5 23t-77 9q-35 0 -55.5 -1.5t-25.5 -2.5v-176zM210 820l135 68q19 10 37.5 17t36.5 7
q25 0 40.5 -12t24 -27t11.5 -28.5t3 -16.5l-254 -81z" />
    <glyph glyph-name="racute" unicode="&#x155;" horiz-adv-x="438" 
d="M55 320q0 49 16.5 87t45.5 64t70 39.5t90 13.5q60 0 93.5 -13t48.5 -28q9 -10 14 -21t5 -26t-4.5 -28t-11 -23t-12.5 -17t-9 -10q-17 8 -41 15t-53 7q-38 0 -64.5 -22t-26.5 -73v-285h-161v320zM133 636l115 73q17 11 33.5 19.5t33.5 8.5q22 0 36 -11t22 -25t11.5 -26
t3.5 -15l-211 -90z" />
    <glyph glyph-name="Rcommaaccent" unicode="&#x156;" horiz-adv-x="690" 
d="M70 597q0 22 6 38t15.5 26.5t22 16t25.5 7.5q10 2 23.5 4t34 3.5t50 2.5t71.5 1q90 0 150 -19.5t96.5 -52.5t52 -75.5t15.5 -88.5q0 -61 -25 -109.5t-82 -79.5q15 -24 33 -56l37.5 -67.5l38.5 -73.5l36 -74h-191l-18.5 41.5t-31 66t-36 69.5t-31.5 53q-14 -2 -28.5 -2
h-30.5q-6 0 -16.5 0.5l-21.5 1t-20 1t-12 1.5v-232h-163v597zM233 374q3 0 8.5 -1t15.5 -2t25.5 -1.5t38.5 -0.5q43 0 70.5 7.5t43 20t21 29t5.5 33.5q0 16 -5 32.5t-20.5 30.5t-44.5 23t-77 9q-35 0 -55.5 -1.5t-25.5 -2.5v-176zM284 -135q4 35 21 59.5t54 24.5
q23 0 40.5 -8t23.5 -13l-65 -203l-88 14z" />
    <glyph glyph-name="rcommaaccent" unicode="&#x157;" horiz-adv-x="438" 
d="M55 320q0 49 16.5 87t45.5 64t70 39.5t90 13.5q60 0 93.5 -13t48.5 -28q9 -10 14 -21t5 -26t-4.5 -28t-11 -23t-12.5 -17t-9 -10q-17 8 -41 15t-53 7q-38 0 -64.5 -22t-26.5 -73v-285h-161v320zM69 -135q4 35 21 59.5t54 24.5q23 0 40.5 -8t23.5 -13l-65 -203l-88 14z
" />
    <glyph glyph-name="Rcaron" unicode="&#x158;" horiz-adv-x="690" 
d="M70 597q0 22 6 38t15.5 26.5t22 16t25.5 7.5q10 2 23.5 4t34 3.5t50 2.5t71.5 1q90 0 150 -19.5t96.5 -52.5t52 -75.5t15.5 -88.5q0 -61 -25 -109.5t-82 -79.5q15 -24 33 -56l37.5 -67.5l38.5 -73.5l36 -74h-191l-18.5 41.5t-31 66t-36 69.5t-31.5 53q-14 -2 -28.5 -2
h-30.5q-6 0 -16.5 0.5l-21.5 1t-20 1t-12 1.5v-232h-163v597zM233 374q3 0 8.5 -1t15.5 -2t25.5 -1.5t38.5 -0.5q43 0 70.5 7.5t43 20t21 29t5.5 33.5q0 16 -5 32.5t-20.5 30.5t-44.5 23t-77 9q-35 0 -55.5 -1.5t-25.5 -2.5v-176zM186 913l156 -62l157 62l39 -63l-109 -68
q-17 -11 -40 -23.5t-47 -12.5t-46 12.5l-41 23.5l-109 68z" />
    <glyph glyph-name="rcaron" unicode="&#x159;" horiz-adv-x="438" 
d="M55 320q0 49 16.5 87t45.5 64t70 39.5t90 13.5q60 0 93.5 -13t48.5 -28q9 -10 14 -21t5 -26t-4.5 -28t-11 -23t-12.5 -17t-9 -10q-17 8 -41 15t-53 7q-38 0 -64.5 -22t-26.5 -73v-285h-161v320zM94 674l46 63l130 -70l130 70l46 -63l-97 -68q-15 -11 -36 -23.5t-43 -12.5
t-43 12.5t-36 23.5z" />
    <glyph glyph-name="Sacute" unicode="&#x15a;" horiz-adv-x="682" 
d="M99 196q6 -5 27 -15.5t53 -21t74 -19t91 -8.5q40 0 64 5.5t37 14.5t17 20.5t4 23.5q0 24 -19.5 39.5t-72.5 24.5l-102 18q-40 7 -80 20t-71.5 36t-51.5 59t-20 89q0 46 17 86.5t52 70.5t88.5 47.5t125.5 17.5q52 0 91 -5.5t67 -13.5t45.5 -16t25.5 -13q17 -10 32.5 -27.5
t15.5 -41.5q0 -17 -6 -32.5t-14.5 -28.5t-18.5 -22.5t-17 -14.5q-10 10 -30 22.5t-48 22.5t-64 17t-77 7q-39 0 -62 -6.5t-34.5 -16t-15 -21.5t-3.5 -22q0 -9 2.5 -17t12 -15.5t27 -14t47.5 -12.5l106 -21q56 -11 98.5 -27.5t71.5 -40.5t43.5 -58t14.5 -81
q0 -105 -78.5 -164t-221.5 -59q-65 0 -119.5 11t-95.5 25.5t-66.5 27.5t-30.5 18zM217 820l135 68q19 10 37.5 17t36.5 7q25 0 40.5 -12t24 -27t11.5 -28.5t3 -16.5l-254 -81z" />
    <glyph glyph-name="sacute" unicode="&#x15b;" horiz-adv-x="564" 
d="M82 156q8 -6 26.5 -14.5t44 -16t58 -13t68.5 -5.5q41 0 62 7.5t21 26.5q0 20 -17.5 27.5t-54.5 12.5l-52 6q-39 5 -75 14.5t-63.5 28t-43.5 47.5t-16 73q0 37 13.5 68.5t42.5 55t74 37t107 13.5q63 0 108.5 -8t78.5 -25q19 -10 30.5 -24.5t11.5 -35.5q0 -16 -6.5 -28.5
t-15 -21.5t-16 -14t-9.5 -6q-3 3 -16.5 11t-36 15.5t-54 13.5t-71.5 6q-45 0 -62.5 -10.5t-17.5 -27.5t16 -24t48 -12l91 -13q34 -5 65.5 -14.5t56 -27.5t39 -46t14.5 -68q0 -84 -64 -131t-177 -47q-59 0 -104.5 8t-78.5 18.5t-53.5 22t-28.5 17.5zM182 636l115 73
q17 11 33.5 19.5t33.5 8.5q22 0 36 -11t22 -25t11.5 -26t3.5 -15l-211 -90z" />
    <glyph glyph-name="Scircumflex" unicode="&#x15c;" horiz-adv-x="682" 
d="M99 196q6 -5 27 -15.5t53 -21t74 -19t91 -8.5q40 0 64 5.5t37 14.5t17 20.5t4 23.5q0 24 -19.5 39.5t-72.5 24.5l-102 18q-40 7 -80 20t-71.5 36t-51.5 59t-20 89q0 46 17 86.5t52 70.5t88.5 47.5t125.5 17.5q52 0 91 -5.5t67 -13.5t45.5 -16t25.5 -13q17 -10 32.5 -27.5
t15.5 -41.5q0 -17 -6 -32.5t-14.5 -28.5t-18.5 -22.5t-17 -14.5q-10 10 -30 22.5t-48 22.5t-64 17t-77 7q-39 0 -62 -6.5t-34.5 -16t-15 -21.5t-3.5 -22q0 -9 2.5 -17t12 -15.5t27 -14t47.5 -12.5l106 -21q56 -11 98.5 -27.5t71.5 -40.5t43.5 -58t14.5 -81
q0 -105 -78.5 -164t-221.5 -59q-65 0 -119.5 11t-95.5 25.5t-66.5 27.5t-30.5 18zM197 745l-40 63l109 68l41 23.5t46 12.5t47 -12.5t40 -23.5l109 -68l-40 -63l-156 62z" />
    <glyph glyph-name="scircumflex" unicode="&#x15d;" horiz-adv-x="564" 
d="M82 156q8 -6 26.5 -14.5t44 -16t58 -13t68.5 -5.5q41 0 62 7.5t21 26.5q0 20 -17.5 27.5t-54.5 12.5l-52 6q-39 5 -75 14.5t-63.5 28t-43.5 47.5t-16 73q0 37 13.5 68.5t42.5 55t74 37t107 13.5q63 0 108.5 -8t78.5 -25q19 -10 30.5 -24.5t11.5 -35.5q0 -16 -6.5 -28.5
t-15 -21.5t-16 -14t-9.5 -6q-3 3 -16.5 11t-36 15.5t-54 13.5t-71.5 6q-45 0 -62.5 -10.5t-17.5 -27.5t16 -24t48 -12l91 -13q34 -5 65.5 -14.5t56 -27.5t39 -46t14.5 -68q0 -84 -64 -131t-177 -47q-59 0 -104.5 8t-78.5 18.5t-53.5 22t-28.5 17.5zM159 570l-50 63l99 68
q15 11 36 23.5t43 12.5t43 -12.5t36 -23.5l99 -68l-50 -63l-128 70z" />
    <glyph glyph-name="Scedilla" unicode="&#x15e;" horiz-adv-x="682" 
d="M99 196q6 -5 27 -15.5t53 -21t74 -19t91 -8.5q40 0 64 5.5t37 14.5t17 20.5t4 23.5q0 24 -19.5 39.5t-72.5 24.5l-102 18q-40 7 -80 20t-71.5 36t-51.5 59t-20 89q0 46 17 86.5t52 70.5t88.5 47.5t125.5 17.5q52 0 91 -5.5t67 -13.5t45.5 -16t25.5 -13q17 -10 32.5 -27.5
t15.5 -41.5q0 -17 -6 -32.5t-14.5 -28.5t-18.5 -22.5t-17 -14.5q-10 10 -30 22.5t-48 22.5t-64 17t-77 7q-39 0 -62 -6.5t-34.5 -16t-15 -21.5t-3.5 -22q0 -9 2.5 -17t12 -15.5t27 -14t47.5 -12.5l106 -21q56 -11 98.5 -27.5t71.5 -40.5t43.5 -58t14.5 -81
q0 -105 -78.5 -164t-221.5 -59q-65 0 -119.5 11t-95.5 25.5t-66.5 27.5t-30.5 18zM207 -131q2 -2 11 -5t22.5 -7t28.5 -6.5t29 -2.5q21 0 29.5 5.5t8.5 17.5q0 14 -19.5 21t-39.5 7l17 59q26 0 53 -4.5t49 -15t36 -27t14 -41.5q0 -45 -36.5 -71.5t-99.5 -26.5q-57 0 -90 11
t-42 18z" />
    <glyph glyph-name="scedilla" unicode="&#x15f;" horiz-adv-x="564" 
d="M82 156q8 -6 26.5 -14.5t44 -16t58 -13t68.5 -5.5q41 0 62 7.5t21 26.5q0 20 -17.5 27.5t-54.5 12.5l-52 6q-39 5 -75 14.5t-63.5 28t-43.5 47.5t-16 73q0 37 13.5 68.5t42.5 55t74 37t107 13.5q63 0 108.5 -8t78.5 -25q19 -10 30.5 -24.5t11.5 -35.5q0 -16 -6.5 -28.5
t-15 -21.5t-16 -14t-9.5 -6q-3 3 -16.5 11t-36 15.5t-54 13.5t-71.5 6q-45 0 -62.5 -10.5t-17.5 -27.5t16 -24t48 -12l91 -13q34 -5 65.5 -14.5t56 -27.5t39 -46t14.5 -68q0 -84 -64 -131t-177 -47q-59 0 -104.5 8t-78.5 18.5t-53.5 22t-28.5 17.5zM153 -114q2 -2 11 -5
t22.5 -7t28.5 -6.5t29 -2.5q21 0 29.5 5.5t8.5 17.5q0 14 -19.5 21t-39.5 7l17 59q26 0 53 -4.5t49 -15t36 -27t14 -41.5q0 -45 -36.5 -71.5t-99.5 -26.5q-57 0 -90 11t-42 18z" />
    <glyph glyph-name="Scaron" unicode="&#x160;" horiz-adv-x="682" 
d="M99 196q6 -5 27 -15.5t53 -21t74 -19t91 -8.5q40 0 64 5.5t37 14.5t17 20.5t4 23.5q0 24 -19.5 39.5t-72.5 24.5l-102 18q-40 7 -80 20t-71.5 36t-51.5 59t-20 89q0 46 17 86.5t52 70.5t88.5 47.5t125.5 17.5q52 0 91 -5.5t67 -13.5t45.5 -16t25.5 -13q17 -10 32.5 -27.5
t15.5 -41.5q0 -17 -6 -32.5t-14.5 -28.5t-18.5 -22.5t-17 -14.5q-10 10 -30 22.5t-48 22.5t-64 17t-77 7q-39 0 -62 -6.5t-34.5 -16t-15 -21.5t-3.5 -22q0 -9 2.5 -17t12 -15.5t27 -14t47.5 -12.5l106 -21q56 -11 98.5 -27.5t71.5 -40.5t43.5 -58t14.5 -81
q0 -105 -78.5 -164t-221.5 -59q-65 0 -119.5 11t-95.5 25.5t-66.5 27.5t-30.5 18zM191 854l46 63l130 -70l130 70l46 -63l-97 -68q-15 -11 -36 -23.5t-43 -12.5t-43 12.5t-36 23.5z" />
    <glyph glyph-name="scaron" unicode="&#x161;" horiz-adv-x="564" 
d="M82 156q8 -6 26.5 -14.5t44 -16t58 -13t68.5 -5.5q41 0 62 7.5t21 26.5q0 20 -17.5 27.5t-54.5 12.5l-52 6q-39 5 -75 14.5t-63.5 28t-43.5 47.5t-16 73q0 37 13.5 68.5t42.5 55t74 37t107 13.5q63 0 108.5 -8t78.5 -25q19 -10 30.5 -24.5t11.5 -35.5q0 -16 -6.5 -28.5
t-15 -21.5t-16 -14t-9.5 -6q-3 3 -16.5 11t-36 15.5t-54 13.5t-71.5 6q-45 0 -62.5 -10.5t-17.5 -27.5t16 -24t48 -12l91 -13q34 -5 65.5 -14.5t56 -27.5t39 -46t14.5 -68q0 -84 -64 -131t-177 -47q-59 0 -104.5 8t-78.5 18.5t-53.5 22t-28.5 17.5zM121 674l46 63l130 -70
l130 70l46 -63l-97 -68q-15 -11 -36 -23.5t-43 -12.5t-43 12.5t-36 23.5z" />
    <glyph glyph-name="Tcommaaccent" unicode="&#x162;" horiz-adv-x="667" 
d="M250 530h-160q-46 0 -65.5 19.5t-19.5 56.5q0 27 8 49.5t13 30.5h551q46 0 65.5 -19.5t19.5 -56.5q0 -27 -8 -49.5t-13 -30.5h-224v-530h-167v530zM254 -135q4 35 21 59.5t54 24.5q23 0 40.5 -8t23.5 -13l-65 -203l-88 14z" />
    <glyph glyph-name="tcommaaccent" unicode="&#x163;" horiz-adv-x="444" 
d="M55 589q0 39 23 55t61 16q27 0 49 -6.5t28 -8.5v-135h115q45 0 64 -18t19 -54q0 -26 -8 -48.5t-12 -29.5h-178v-157q0 -23 7 -36.5t17.5 -21.5t24 -10.5t27.5 -2.5q28 0 51 8.5t33 14.5l63 -110q-9 -8 -26 -18t-41 -19t-54 -15.5t-63 -6.5q-94 0 -147 49.5t-53 132.5v421
zM175 -135q4 35 21 59.5t54 24.5q23 0 40.5 -8t23.5 -13l-65 -203l-88 14z" />
    <glyph glyph-name="Tcaron" unicode="&#x164;" horiz-adv-x="667" 
d="M250 530h-160q-46 0 -65.5 19.5t-19.5 56.5q0 27 8 49.5t13 30.5h551q46 0 65.5 -19.5t19.5 -56.5q0 -27 -8 -49.5t-13 -30.5h-224v-530h-167v530zM182 913l156 -62l157 62l39 -63l-109 -68q-17 -11 -40 -23.5t-47 -12.5t-46 12.5l-41 23.5l-109 68z" />
    <glyph glyph-name="tcaron" unicode="&#x165;" horiz-adv-x="444" 
d="M55 589q0 39 23 55t61 16q27 0 49 -6.5t28 -8.5v-135h115q45 0 64 -18t19 -54q0 -26 -8 -48.5t-12 -29.5h-178v-157q0 -23 7 -36.5t17.5 -21.5t24 -10.5t27.5 -2.5q28 0 51 8.5t33 14.5l63 -110q-9 -8 -26 -18t-41 -19t-54 -15.5t-63 -6.5q-94 0 -147 49.5t-53 132.5v421
zM281 685q0 29 20 40.5t53 11.5q11 0 17 -1.5t8.5 -3t4 -3t4.5 -2.5l-17 -166h-90v124z" />
    <glyph glyph-name="Tbar" unicode="&#x166;" horiz-adv-x="667" 
d="M250 242h-113q-33 0 -47 19.5t-14 51.5q0 20 5 37t9 23h160v157h-160q-46 0 -65.5 19.5t-19.5 56.5q0 27 8 49.5t13 30.5h551q46 0 65.5 -19.5t19.5 -56.5q0 -27 -8 -49.5t-13 -30.5h-224v-157h122q34 0 47.5 -19.5t13.5 -48.5q0 -22 -5 -39.5t-9 -23.5h-169v-242h-167
v242z" />
    <glyph glyph-name="tbar" unicode="&#x167;" horiz-adv-x="444" 
d="M55 589q0 39 23 55t61 16q27 0 49 -6.5t28 -8.5v-135h124q74 0 74 -60q0 -21 -8 -40t-12 -24h-178v-65h130q67 0 67 -55q0 -23 -7.5 -38.5t-11.5 -20.5h-178q2 -37 26 -56t50 -19q28 0 51 8.5t33 14.5l63 -110q-9 -8 -26 -18t-41 -19t-54 -15.5t-63 -6.5q-94 0 -147 49.5
t-53 132.5v421z" />
    <glyph glyph-name="Utilde" unicode="&#x168;" horiz-adv-x="760" 
d="M63 612q0 41 24 57.5t63 16.5q29 0 51.5 -7t28.5 -9v-349q0 -45 7.5 -79.5t25 -58t46 -35.5t71.5 -12t71.5 12t46 35.5t25 58t7.5 79.5v291q0 41 24 57.5t63 16.5q29 0 51.5 -7t28.5 -9v-366q0 -152 -82 -237t-235 -85t-235 85t-82 237v308zM185 764q5 22 14.5 42.5
t24.5 37t36.5 26.5t50.5 10q26 0 45.5 -4t32.5 -8q15 -5 32 -9.5t31 -4.5q12 0 21 7.5t14 26.5l96 -18q-5 -22 -14 -43t-24 -37t-36.5 -26t-51.5 -10q-15 0 -30.5 2.5t-30 6.5l-26 7t-17.5 5q-8 2 -18 4t-18 2q-11 0 -20 -8t-14 -28z" />
    <glyph glyph-name="utilde" unicode="&#x169;" horiz-adv-x="620" 
d="M216 238q0 -104 94 -104t94 104v201q0 39 23 55t61 16q27 0 49 -6.5t28 -8.5v-287q0 -56 -19.5 -97.5t-53.5 -69t-81 -41.5t-101 -14t-101 14t-81 41.5t-53.5 69t-19.5 97.5v231q0 39 23 55t61 16q27 0 49 -6.5t28 -8.5v-257zM144 589q4 21 13 41.5t23.5 36.5t35 25.5
t47.5 9.5q24 0 42.5 -4t31.5 -8l25 -8q11 -3 18.5 -4.5t17.5 -1.5q12 0 21 7.5t14 26.5l89 -18q-5 -21 -13.5 -41.5t-23 -36.5t-34.5 -25.5t-48 -9.5q-21 0 -38.5 4.5l-37.5 9.5l-24 7q-8 2 -17.5 4t-17.5 2q-11 0 -20 -8t-14 -28z" />
    <glyph glyph-name="Umacron" unicode="&#x16a;" horiz-adv-x="760" 
d="M63 612q0 41 24 57.5t63 16.5q29 0 51.5 -7t28.5 -9v-349q0 -45 7.5 -79.5t25 -58t46 -35.5t71.5 -12t71.5 12t46 35.5t25 58t7.5 79.5v291q0 41 24 57.5t63 16.5q29 0 51.5 -7t28.5 -9v-366q0 -152 -82 -237t-235 -85t-235 85t-82 237v308zM534 866q32 0 42 -15t10 -40
q0 -18 -3.5 -30t-5.5 -17h-333q-29 0 -41 14t-12 36q0 20 2.5 31.5t5.5 20.5h335z" />
    <glyph glyph-name="umacron" unicode="&#x16b;" horiz-adv-x="620" 
d="M216 238q0 -104 94 -104t94 104v201q0 39 23 55t61 16q27 0 49 -6.5t28 -8.5v-287q0 -56 -19.5 -97.5t-53.5 -69t-81 -41.5t-101 -14t-101 14t-81 41.5t-53.5 69t-19.5 97.5v231q0 39 23 55t61 16q27 0 49 -6.5t28 -8.5v-257zM449 692q27 0 37.5 -13.5t10.5 -35.5
q0 -17 -4 -29.5t-6 -16.5h-286q-26 0 -37 13t-11 36q0 17 4 29t6 17h286z" />
    <glyph glyph-name="Ubreve" unicode="&#x16c;" horiz-adv-x="760" 
d="M63 612q0 41 24 57.5t63 16.5q29 0 51.5 -7t28.5 -9v-349q0 -45 7.5 -79.5t25 -58t46 -35.5t71.5 -12t71.5 12t46 35.5t25 58t7.5 79.5v291q0 41 24 57.5t63 16.5q29 0 51.5 -7t28.5 -9v-366q0 -152 -82 -237t-235 -85t-235 85t-82 237v308zM315 907q21 -68 85 -68
q66 0 85 67l83 -9q-1 -22 -9 -48t-27.5 -48.5t-51.5 -38t-80 -15.5q-49 0 -81 15.5t-51.5 38t-27.5 48.5t-9 48z" />
    <glyph glyph-name="ubreve" unicode="&#x16d;" horiz-adv-x="620" 
d="M216 238q0 -104 94 -104t94 104v201q0 39 23 55t61 16q27 0 49 -6.5t28 -8.5v-287q0 -56 -19.5 -97.5t-53.5 -69t-81 -41.5t-101 -14t-101 14t-81 41.5t-53.5 69t-19.5 97.5v231q0 39 23 55t61 16q27 0 49 -6.5t28 -8.5v-257zM252 730q9 -35 27 -51.5t49 -16.5t49 16.5
t27 51.5l75 -10q-1 -21 -8.5 -46.5t-24.5 -48t-46 -37.5t-72 -15q-44 0 -72.5 15t-46 37.5t-24.5 48t-8 46.5z" />
    <glyph glyph-name="Uring" unicode="&#x16e;" horiz-adv-x="760" 
d="M63 612q0 41 24 57.5t63 16.5q29 0 51.5 -7t28.5 -9v-349q0 -45 7.5 -79.5t25 -58t46 -35.5t71.5 -12t71.5 12t46 35.5t25 58t7.5 79.5v291q0 41 24 57.5t63 16.5q29 0 51.5 -7t28.5 -9v-366q0 -152 -82 -237t-235 -85t-235 85t-82 237v308zM282 840q0 23 9 43.5t25 36
t37 24.5t45 9t44.5 -9t36 -24.5t24.5 -36t9 -43.5t-9 -43.5t-24.5 -35.5t-36 -24t-44.5 -9t-45 9t-37 24t-25 35.5t-9 43.5zM398 794q20 0 31.5 12.5t11.5 33.5q0 20 -11.5 33t-31.5 13q-21 0 -32.5 -13t-11.5 -33q0 -21 11.5 -33.5t32.5 -12.5z" />
    <glyph glyph-name="uring" unicode="&#x16f;" horiz-adv-x="620" 
d="M216 238q0 -104 94 -104t94 104v201q0 39 23 55t61 16q27 0 49 -6.5t28 -8.5v-287q0 -56 -19.5 -97.5t-53.5 -69t-81 -41.5t-101 -14t-101 14t-81 41.5t-53.5 69t-19.5 97.5v231q0 39 23 55t61 16q27 0 49 -6.5t28 -8.5v-257zM222 666q0 21 8 39t22 32t33 22t40 8t40 -8
t33 -22t22 -32t8 -39t-8 -39t-22 -32t-33 -22t-40 -8t-40 8t-33 22t-22 32t-8 39zM325 622q20 0 31 12t11 32t-11 32t-31 12t-31 -12t-11 -32t11 -32t31 -12z" />
    <glyph glyph-name="Uhungarumlaut" unicode="&#x170;" horiz-adv-x="760" 
d="M63 612q0 41 24 57.5t63 16.5q29 0 51.5 -7t28.5 -9v-349q0 -45 7.5 -79.5t25 -58t46 -35.5t71.5 -12t71.5 12t46 35.5t25 58t7.5 79.5v291q0 41 24 57.5t63 16.5q29 0 51.5 -7t28.5 -9v-366q0 -152 -82 -237t-235 -85t-235 85t-82 237v308zM179 823l108 75q34 24 72 24
q23 0 36 -11t19.5 -24t8 -24.5t1.5 -14.5l-206 -91zM454 823l108 75q34 24 72 24q23 0 36 -11t19.5 -24t8 -24.5t1.5 -14.5l-206 -91z" />
    <glyph glyph-name="uhungarumlaut" unicode="&#x171;" horiz-adv-x="620" 
d="M216 238q0 -104 94 -104t94 104v201q0 39 23 55t61 16q27 0 49 -6.5t28 -8.5v-287q0 -56 -19.5 -97.5t-53.5 -69t-81 -41.5t-101 -14t-101 14t-81 41.5t-53.5 69t-19.5 97.5v231q0 39 23 55t61 16q27 0 49 -6.5t28 -8.5v-257zM364 631l93 78q16 14 30.5 21t31.5 7
q23 0 35 -10.5t18 -23.5q7 -15 8 -33l-169 -100zM125 631l93 78q16 14 30.5 21t31.5 7q23 0 35 -10.5t18 -23.5q7 -15 8 -33l-169 -100z" />
    <glyph glyph-name="Uogonek" unicode="&#x172;" horiz-adv-x="760" 
d="M63 612q0 41 24 57.5t63 16.5q29 0 51.5 -7t28.5 -9v-349q0 -45 7.5 -79.5t25 -58t46 -35.5t71.5 -12t71.5 12t46 35.5t25 58t7.5 79.5v291q0 41 24 57.5t63 16.5q29 0 51.5 -7t28.5 -9v-366q0 -137 -66 -219t-191 -99q-18 -8 -32 -22t-14 -34q0 -18 13 -24t27 -6
q27 0 45 8t22 10l31 -67q-14 -8 -45 -18.5t-78 -10.5q-52 0 -85 20.5t-33 65.5q0 28 12.5 47t26.5 30q-130 14 -198.5 96.5t-68.5 222.5v308z" />
    <glyph glyph-name="uogonek" unicode="&#x173;" horiz-adv-x="620" 
d="M216 238q0 -104 94 -104t94 104v201q0 39 23 55t61 16q27 0 49 -6.5t28 -8.5v-287q0 -47 -14 -84t-39.5 -64t-60 -44t-76.5 -24q-22 -8 -42 -23.5t-20 -40.5q0 -20 14 -26.5t29 -6.5q28 0 45 8l21 10l29 -64q-14 -8 -44 -18t-77 -10q-51 0 -83.5 19.5t-32.5 64.5
q0 33 16.5 53t32.5 31q-45 5 -83.5 21.5t-66 44t-43 65.5t-15.5 88v231q0 39 23 55t61 16q27 0 49 -6.5t28 -8.5v-257z" />
    <glyph glyph-name="Wcircumflex" unicode="&#x174;" horiz-adv-x="1010" 
d="M213 0q-14 32 -30.5 75l-34 90.5l-34.5 95.5l-32 90.5l-26.5 76t-17.5 52.5l-23 72.5t-10 61.5q0 34 20.5 53t60.5 19q32 0 53.5 -7.5t26.5 -10.5q10 -41 27 -100l36.5 -122.5l39 -124.5l34.5 -105l28.5 101.5l28 106.5l26 102l22.5 88q8 32 27 52t64 20q29 0 53.5 -9
t29.5 -12l21.5 -93.5l29.5 -121l31.5 -125.5t28.5 -108l32.5 101.5l31.5 106l28 100l22 82.5q11 43 32.5 61t66.5 18q19 0 36.5 -4t30.5 -9.5t21.5 -10.5t10.5 -6q-39 -142 -98 -310t-131 -346h-178q-9 22 -22 64.5t-27 94l-28.5 105.5t-24.5 99l-26.5 -99l-29.5 -105.5
l-28 -94t-22 -64.5h-177zM349 745l-40 63l109 68l41 23.5t46 12.5t47 -12.5t40 -23.5l109 -68l-40 -63l-156 62z" />
    <glyph glyph-name="wcircumflex" unicode="&#x175;" horiz-adv-x="837" 
d="M173 0q-25 55 -48.5 112l-42.5 105.5l-32.5 84.5t-17.5 48l-13.5 38t-8.5 52t19.5 49t59.5 21q32 0 50 -6t24 -9l25.5 -89.5l24.5 -84.5l22 -73t17 -54q6 18 16 52.5l20.5 72.5l20.5 72.5l15 52.5q9 30 25.5 48t59.5 18q26 0 48 -7.5t27 -10.5l25.5 -89.5l23.5 -83.5
l20.5 -71.5l15.5 -53.5l14 43l17 55l18.5 63l18.5 66q13 46 34 67.5t65 21.5q20 0 36 -4t28 -9t18.5 -9.5t8.5 -5.5q-7 -29 -27 -87t-46.5 -127.5l-55.5 -141t-55 -126.5h-154q-6 16 -16 50l-21.5 73.5l-23 78.5l-20.5 67q-9 -28 -20.5 -68l-23 -79.5l-21.5 -73t-15 -48.5
h-155zM287 570l-50 63l99 68q15 11 36 23.5t43 12.5t43 -12.5t36 -23.5l99 -68l-50 -63l-128 70z" />
    <glyph glyph-name="Ycircumflex" unicode="&#x176;" horiz-adv-x="691" 
d="M252 253l-49 61l-50 64.5l-44.5 58.5l-33.5 45l-22.5 31t-23 35.5t-17.5 36.5t-7 33q0 35 22.5 51.5t54.5 16.5q28 0 47.5 -6.5t24.5 -9.5l39 -59l50.5 -74.5l51.5 -74.5l43 -60l37.5 52l39 58l38 59l34.5 54q6 9 14.5 20t21 20t29.5 15t40 6q18 0 34 -4.5t28.5 -10.5
t20.5 -12t11 -9q-8 -17 -25 -45.5t-40.5 -64l-50.5 -75.5l-54 -78.5l-52.5 -73l-44.5 -60.5v-253h-167v253zM188 745l-40 63l109 68l41 23.5t46 12.5t47 -12.5t40 -23.5l109 -68l-40 -63l-156 62z" />
    <glyph glyph-name="ycircumflex" unicode="&#x177;" horiz-adv-x="620" 
d="M114 -55q4 -2 17.5 -6.5t33.5 -9t45.5 -8t52.5 -3.5q77 0 111 33t34 109q-19 -23 -58 -36.5t-78 -13.5q-46 0 -85.5 11.5t-69 35.5t-46 60.5t-16.5 86.5v235q0 39 23 55t61 16q27 0 49 -6.5t28 -8.5v-258q0 -48 22.5 -69t70.5 -21q45 0 70 26t25 80v186q0 39 23 55t61 16
q27 0 49 -6.5t28 -8.5v-424q0 -76 -20 -129.5t-57 -87t-88 -49t-114 -15.5q-44 0 -81 5t-65 11.5t-45 12.5t-20 8zM193 570l-50 63l99 68q15 11 36 23.5t43 12.5t43 -12.5t36 -23.5l99 -68l-50 -63l-128 70z" />
    <glyph glyph-name="Ydieresis" unicode="&#x178;" horiz-adv-x="691" 
d="M252 253l-49 61l-50 64.5l-44.5 58.5l-33.5 45l-22.5 31t-23 35.5t-17.5 36.5t-7 33q0 35 22.5 51.5t54.5 16.5q28 0 47.5 -6.5t24.5 -9.5l39 -59l50.5 -74.5l51.5 -74.5l43 -60l37.5 52l39 58l38 59l34.5 54q6 9 14.5 20t21 20t29.5 15t40 6q18 0 34 -4.5t28.5 -10.5
t20.5 -12t11 -9q-8 -17 -25 -45.5t-40.5 -64l-50.5 -75.5l-54 -78.5l-52.5 -73l-44.5 -60.5v-253h-167v253zM168 822q0 13 6 26t16.5 23t24 16t28.5 6q30 0 51.5 -22t21.5 -49q0 -28 -21.5 -50t-51.5 -22q-15 0 -28.5 6t-24 16t-16.5 23t-6 27zM381 822q0 27 21.5 49
t52.5 22t52 -22t21 -49q0 -28 -21 -50t-52 -22t-52.5 22t-21.5 50z" />
    <glyph glyph-name="Zacute" unicode="&#x179;" horiz-adv-x="644" 
d="M10 143l110 105.5l112 110l98 99t68 72.5h-285q-46 0 -65.5 19.5t-19.5 56.5q0 27 8 49.5t13 30.5h475q47 0 73.5 -21t26.5 -63q0 -38 -22.5 -70t-53.5 -67l-128.5 -138l-170.5 -171h371v-156h-610v143zM226 820l135 68q19 10 37.5 17t36.5 7q25 0 40.5 -12t24 -27
t11.5 -28.5t3 -16.5l-254 -81z" />
    <glyph glyph-name="zacute" unicode="&#x17a;" horiz-adv-x="549" 
d="M19 125l71.5 62.5l81.5 71.5l72.5 64l44.5 40h-187q-45 0 -64 16.5t-19 52.5q0 26 8 48.5t12 29.5h396q35 0 57.5 -19.5t22.5 -57.5q0 -25 -10.5 -45t-35.5 -43q-6 -6 -23 -21.5l-39.5 -36l-48.5 -44l-50 -44.5l-44 -38l-30 -25h283v-136h-498v125zM179 636l115 73
q17 11 33.5 19.5t33.5 8.5q22 0 36 -11t22 -25t11.5 -26t3.5 -15l-211 -90z" />
    <glyph glyph-name="Zdotaccent" unicode="&#x17b;" horiz-adv-x="644" 
d="M10 143l110 105.5l112 110l98 99t68 72.5h-285q-46 0 -65.5 19.5t-19.5 56.5q0 27 8 49.5t13 30.5h475q47 0 73.5 -21t26.5 -63q0 -38 -22.5 -70t-53.5 -67l-128.5 -138l-170.5 -171h371v-156h-610v143zM263 829q0 14 6 27t16.5 23.5t24.5 16.5t29 6q31 0 53 -22.5
t22 -50.5t-22 -50.5t-53 -22.5q-15 0 -29 6t-24.5 16.5t-16.5 23.5t-6 27z" />
    <glyph glyph-name="zdotaccent" unicode="&#x17c;" horiz-adv-x="549" 
d="M19 125l71.5 62.5l81.5 71.5l72.5 64l44.5 40h-187q-45 0 -64 16.5t-19 52.5q0 26 8 48.5t12 29.5h396q35 0 57.5 -19.5t22.5 -57.5q0 -25 -10.5 -45t-35.5 -43q-6 -6 -23 -21.5l-39.5 -36l-48.5 -44l-50 -44.5l-44 -38l-30 -25h283v-136h-498v125zM203 642q0 13 6 25.5
t16 22t23 15t27 5.5t27 -5.5t22.5 -15t15 -22t5.5 -25.5q0 -27 -20.5 -48t-49.5 -21q-14 0 -27 5.5t-23 15.5t-16 22t-6 26z" />
    <glyph glyph-name="Zcaron" unicode="&#x17d;" horiz-adv-x="644" 
d="M10 143l110 105.5l112 110l98 99t68 72.5h-285q-46 0 -65.5 19.5t-19.5 56.5q0 27 8 49.5t13 30.5h475q47 0 73.5 -21t26.5 -63q0 -38 -22.5 -70t-53.5 -67l-128.5 -138l-170.5 -171h371v-156h-610v143zM154 854l46 63l130 -70l130 70l46 -63l-97 -68q-15 -11 -36 -23.5
t-43 -12.5t-43 12.5t-36 23.5z" />
    <glyph glyph-name="zcaron" unicode="&#x17e;" horiz-adv-x="549" 
d="M19 125l71.5 62.5l81.5 71.5l72.5 64l44.5 40h-187q-45 0 -64 16.5t-19 52.5q0 26 8 48.5t12 29.5h396q35 0 57.5 -19.5t22.5 -57.5q0 -25 -10.5 -45t-35.5 -43q-6 -6 -23 -21.5l-39.5 -36l-48.5 -44l-50 -44.5l-44 -38l-30 -25h283v-136h-498v125zM104 674l46 63
l130 -70l130 70l46 -63l-97 -68q-15 -11 -36 -23.5t-43 -12.5t-43 12.5t-36 23.5z" />
    <glyph glyph-name="longs" unicode="&#x17f;" horiz-adv-x="425" 
d="M60 526q0 55 15.5 95t43.5 65.5t67.5 38t87.5 12.5q42 0 73.5 -6.5t54.5 -20.5q12 -7 23 -20.5t11 -35.5q0 -23 -13.5 -42.5t-29.5 -27.5q-12 11 -37.5 19.5t-52.5 8.5q-38 0 -60 -20t-22 -60v-532h-161v526z" />
    <glyph glyph-name="florin" unicode="&#x192;" horiz-adv-x="538" 
d="M-98 -62q10 -5 29 -10t40 -5q29 0 53 14.5t30 56.5l72 518q9 62 30 105t53 69.5t73 38.5t89 12q42 0 72 -7t51 -21q14 -9 20.5 -20t6.5 -30q0 -27 -17.5 -47t-34.5 -28q-11 11 -35 19.5t-51 8.5q-38 0 -63 -20t-31 -60l-3 -22h101q45 0 64 -18t19 -54q0 -26 -8 -48.5
t-12 -29.5h-185l-49 -352q-9 -63 -31.5 -105t-53.5 -67t-68 -35.5t-75 -10.5q-54 0 -91 12.5t-47 18.5z" />
    <glyph glyph-name="Scommaaccent" unicode="&#x218;" horiz-adv-x="682" 
d="M99 196q6 -5 27 -15.5t53 -21t74 -19t91 -8.5q40 0 64 5.5t37 14.5t17 20.5t4 23.5q0 24 -19.5 39.5t-72.5 24.5l-102 18q-40 7 -80 20t-71.5 36t-51.5 59t-20 89q0 46 17 86.5t52 70.5t88.5 47.5t125.5 17.5q52 0 91 -5.5t67 -13.5t45.5 -16t25.5 -13q17 -10 32.5 -27.5
t15.5 -41.5q0 -17 -6 -32.5t-14.5 -28.5t-18.5 -22.5t-17 -14.5q-10 10 -30 22.5t-48 22.5t-64 17t-77 7q-39 0 -62 -6.5t-34.5 -16t-15 -21.5t-3.5 -22q0 -9 2.5 -17t12 -15.5t27 -14t47.5 -12.5l106 -21q56 -11 98.5 -27.5t71.5 -40.5t43.5 -58t14.5 -81
q0 -105 -78.5 -164t-221.5 -59q-65 0 -119.5 11t-95.5 25.5t-66.5 27.5t-30.5 18zM270 -135q4 35 21 59.5t54 24.5q23 0 40.5 -8t23.5 -13l-65 -203l-88 14z" />
    <glyph glyph-name="scommaaccent" unicode="&#x219;" horiz-adv-x="564" 
d="M82 156q8 -6 26.5 -14.5t44 -16t58 -13t68.5 -5.5q41 0 62 7.5t21 26.5q0 20 -17.5 27.5t-54.5 12.5l-52 6q-39 5 -75 14.5t-63.5 28t-43.5 47.5t-16 73q0 37 13.5 68.5t42.5 55t74 37t107 13.5q63 0 108.5 -8t78.5 -25q19 -10 30.5 -24.5t11.5 -35.5q0 -16 -6.5 -28.5
t-15 -21.5t-16 -14t-9.5 -6q-3 3 -16.5 11t-36 15.5t-54 13.5t-71.5 6q-45 0 -62.5 -10.5t-17.5 -27.5t16 -24t48 -12l91 -13q34 -5 65.5 -14.5t56 -27.5t39 -46t14.5 -68q0 -84 -64 -131t-177 -47q-59 0 -104.5 8t-78.5 18.5t-53.5 22t-28.5 17.5zM206 -135q4 35 21 59.5
t54 24.5q23 0 40.5 -8t23.5 -13l-65 -203l-88 14z" />
    <glyph glyph-name="uni021A" unicode="&#x21a;" horiz-adv-x="667" 
d="M250 530h-160q-46 0 -65.5 19.5t-19.5 56.5q0 27 8 49.5t13 30.5h551q46 0 65.5 -19.5t19.5 -56.5q0 -27 -8 -49.5t-13 -30.5h-224v-530h-167v530zM254 -135q4 35 21 59.5t54 24.5q23 0 40.5 -8t23.5 -13l-65 -203l-88 14z" />
    <glyph glyph-name="uni021B" unicode="&#x21b;" horiz-adv-x="444" 
d="M55 589q0 39 23 55t61 16q27 0 49 -6.5t28 -8.5v-135h115q45 0 64 -18t19 -54q0 -26 -8 -48.5t-12 -29.5h-178v-157q0 -23 7 -36.5t17.5 -21.5t24 -10.5t27.5 -2.5q28 0 51 8.5t33 14.5l63 -110q-9 -8 -26 -18t-41 -19t-54 -15.5t-63 -6.5q-94 0 -147 49.5t-53 132.5v421
zM175 -135q4 35 21 59.5t54 24.5q23 0 40.5 -8t23.5 -13l-65 -203l-88 14z" />
    <glyph glyph-name="dotlessj" unicode="&#x237;" horiz-adv-x="281" 
d="M-89 -60q13 -7 34 -12t42 -5q29 0 51 15t22 57v444q0 39 23 55t61 16q27 0 49 -6.5t28 -8.5v-487q0 -63 -17 -105t-46 -67t-66.5 -35.5t-78.5 -10.5q-23 0 -46 3.5t-42.5 9t-34 10.5t-19.5 8z" />
    <glyph glyph-name="apostrophe" unicode="&#x2bc;" horiz-adv-x="500" 
d="M19 678q8 28 22.5 43t44.5 15q31 0 51.5 -13.5t26.5 -21.5l-103 -236l-92 35z" />
    <glyph glyph-name="circumflex" unicode="&#x2c6;" horiz-adv-x="500" 
d="M122 570l-50 63l99 68q15 11 36 23.5t43 12.5t43 -12.5t36 -23.5l99 -68l-50 -63l-128 70z" />
    <glyph glyph-name="caron" unicode="&#x2c7;" horiz-adv-x="500" 
d="M74 674l46 63l130 -70l130 70l46 -63l-97 -68q-15 -11 -36 -23.5t-43 -12.5t-43 12.5t-36 23.5z" />
    <glyph glyph-name="uni02C9" unicode="&#x2c9;" horiz-adv-x="500" 
d="M375 692q27 0 37.5 -13.5t10.5 -35.5q0 -17 -4 -29.5t-6 -16.5h-286q-26 0 -37 13t-11 36q0 17 4 29t6 17h286z" />
    <glyph glyph-name="breve" unicode="&#x2d8;" horiz-adv-x="500" 
d="M174 730q9 -35 27 -51.5t49 -16.5t49 16.5t27 51.5l75 -10q-1 -21 -8.5 -46.5t-24.5 -48t-46 -37.5t-72 -15q-44 0 -72.5 15t-46 37.5t-24.5 48t-8 46.5z" />
    <glyph glyph-name="dotaccent" unicode="&#x2d9;" horiz-adv-x="500" 
d="M179 642q0 13 6 25.5t16 22t23 15t27 5.5t27 -5.5t22.5 -15t15 -22t5.5 -25.5q0 -27 -20.5 -48t-49.5 -21q-14 0 -27 5.5t-23 15.5t-16 22t-6 26z" />
    <glyph glyph-name="ring" unicode="&#x2da;" horiz-adv-x="500" 
d="M147 666q0 21 8 39t22 32t33 22t40 8t40 -8t33 -22t22 -32t8 -39t-8 -39t-22 -32t-33 -22t-40 -8t-40 8t-33 22t-22 32t-8 39zM250 622q20 0 31 12t11 32t-11 32t-31 12t-31 -12t-11 -32t11 -32t31 -12z" />
    <glyph glyph-name="ogonek" unicode="&#x2db;" horiz-adv-x="500" 
d="M325 0q-11 -2 -27 -6.5t-31 -13.5t-25.5 -22t-10.5 -30q0 -20 14 -26.5t29 -6.5q28 0 45 8l21 10l29 -64q-14 -8 -44 -18t-77 -10q-51 0 -83.5 19.5t-32.5 64.5q0 25 10.5 43t24 29.5t25 17t13.5 5.5h120z" />
    <glyph glyph-name="tilde" unicode="&#x2dc;" horiz-adv-x="500" 
d="M61 589q4 21 13 41.5t23.5 36.5t35 25.5t47.5 9.5q24 0 42.5 -4t31.5 -8l25 -8q11 -3 18.5 -4.5t17.5 -1.5q12 0 21 7.5t14 26.5l89 -18q-5 -21 -13.5 -41.5t-23 -36.5t-34.5 -25.5t-48 -9.5q-21 0 -38.5 4.5l-37.5 9.5l-24 7q-8 2 -17.5 4t-17.5 2q-11 0 -20 -8t-14 -28
z" />
    <glyph glyph-name="hungarumlaut" unicode="&#x2dd;" horiz-adv-x="500" 
d="M261 631l93 78q16 14 30.5 21t31.5 7q23 0 35 -10.5t18 -23.5q7 -15 8 -33l-169 -100zM22 631l93 78q16 14 30.5 21t31.5 7q23 0 35 -10.5t18 -23.5q7 -15 8 -33l-169 -100z" />
    <glyph glyph-name="tonos" unicode="&#x384;" horiz-adv-x="500" 
d="M118 616l71 135q7 13 16.5 26.5t22 24.5t29 18t36.5 7q26 0 46 -9.5t43 -29.5l-164 -213z" />
    <glyph glyph-name="dieresistonos" unicode="&#x385;" horiz-adv-x="500" 
d="M5 642q0 13 6 26t16.5 23t24 16t28.5 6q30 0 51.5 -22t21.5 -49q0 -28 -21.5 -50t-51.5 -22q-15 0 -28.5 6t-24 16t-16.5 23t-6 27zM348 642q0 27 21.5 49t52.5 22t52 -22t21 -49q0 -28 -21 -50t-52 -22t-52.5 22t-21.5 50zM172 576l33 99q4 12 10 25.5t14.5 24
t20.5 17.5t29 7q12 0 23.5 -4t20 -9t14 -10t7.5 -6l-101 -171z" />
    <glyph glyph-name="Alphatonos" unicode="&#x386;" horiz-adv-x="860" 
d="M96 0l51 130.5l64.5 158l72 170.5l73.5 168q19 43 46.5 60t72.5 17q17 0 33.5 -4t29.5 -9.5t21 -10.5t10 -6q15 -25 39.5 -79l53.5 -121.5l60 -141.5l57.5 -140.5l46.5 -118l28 -73.5h-184l-24 64.5l-32 83.5h-291l-28.5 -77l-26.5 -71h-173zM558 299l-23 60.5l-25 65
l-22.5 58t-16.5 39.5q-6 -14 -16 -39.5l-22 -57l-25 -64.5l-24 -62h174zM13 475l65 154q6 13 15 26.5t21 24t27.5 17.5t35.5 7q26 0 51 -12t48 -32l-153 -233z" />
    <glyph glyph-name="Epsilontonos" unicode="&#x388;" horiz-adv-x="842" 
d="M271 591q0 95 99 95h342q46 0 65.5 -19.5t19.5 -56.5q0 -27 -8 -49.5t-13 -30.5h-338v-107h261q46 0 65.5 -19.5t19.5 -56.5q0 -27 -8 -49.5t-13 -30.5h-325v-111h354v-156h-521v591zM-13 475l65 154q6 13 15 26.5t21 24t27.5 17.5t35.5 7q26 0 51 -12t48 -32l-153 -233z
" />
    <glyph glyph-name="Etatonos" unicode="&#x389;" horiz-adv-x="947" 
d="M277 0v612q0 41 24 57.5t63 16.5q29 0 51.5 -7t28.5 -9v-235h266v177q0 41 24 57.5t63 16.5q29 0 51.5 -7t28.5 -9v-670h-167v277h-266v-277h-167zM-13 475l65 154q6 13 15 26.5t21 24t27.5 17.5t35.5 7q26 0 51 -12t48 -32l-153 -233z" />
    <glyph glyph-name="Iotatonos" unicode="&#x38a;" horiz-adv-x="514" 
d="M277 0v612q0 41 24 57.5t63 16.5q29 0 51.5 -7t28.5 -9v-670h-167zM-7 475l65 154q6 13 15 26.5t21 24t27.5 17.5t35.5 7q26 0 51 -12t48 -32l-153 -233z" />
    <glyph glyph-name="Omicrontonos" unicode="&#x38c;" horiz-adv-x="981" 
d="M199 343q0 76 28.5 142t78.5 114.5t118 76.5t146 28t146 -28t118 -76.5t78.5 -114.5t28.5 -142t-28.5 -142t-78.5 -114.5t-118 -76.5t-146 -28t-146 28t-118 76.5t-78.5 114.5t-28.5 142zM570 138q43 0 79 15.5t62 43.5t40.5 65t14.5 81t-14.5 81.5t-40.5 65t-62 43
t-79 15.5t-79 -15.5t-62 -43t-40.5 -65t-14.5 -81.5t14.5 -81t40.5 -65t62 -43.5t79 -15.5zM-13 475l65 154q6 13 15 26.5t21 24t27.5 17.5t35.5 7q26 0 51 -12t48 -32l-153 -233z" />
    <glyph glyph-name="Upsilontonos" unicode="&#x38e;" horiz-adv-x="985" 
d="M546 259l-49 61l-50 64.5l-44.5 58.5l-33.5 45l-22.5 31t-23 35.5t-17.5 36.5t-7 33q0 35 22.5 51.5t54.5 16.5q28 0 47.5 -6.5t24.5 -9.5l39 -59l50.5 -74.5l51.5 -74.5l43 -60l37.5 52l39 58l38 59l34.5 54q6 9 14.5 20t21 20t29.5 15t40 6q18 0 34 -4.5t28.5 -10.5
t20.5 -12t11 -9q-8 -17 -25 -45.5t-40.5 -64l-50.5 -75.5l-54 -78.5l-52.5 -73l-44.5 -60.5v-253h-167v253zM-13 475l65 154q6 13 15 26.5t21 24t27.5 17.5t35.5 7q26 0 51 -12t48 -32l-153 -233z" />
    <glyph glyph-name="Omegatonos" unicode="&#x38f;" horiz-adv-x="1005" 
d="M215 138h117q-41 38 -69 96t-28 139q0 67 20 127.5t62 105.5t108.5 71.5t159.5 26.5t159.5 -26.5t108.5 -71.5t62 -105.5t20 -127.5q0 -81 -28 -139t-69 -96h117v-138h-320v137q61 31 93 84t32 134q0 41 -9.5 77.5t-30.5 64t-54.5 43.5t-80.5 16t-80.5 -16t-54.5 -43.5
t-30.5 -64t-9.5 -77.5q0 -81 32 -134t93 -84v-137h-320v138zM-13 475l65 154q6 13 15 26.5t21 24t27.5 17.5t35.5 7q26 0 51 -12t48 -32l-153 -233z" />
    <glyph glyph-name="iotadieresistonos" unicode="&#x390;" horiz-adv-x="281" 
d="M60 439q0 39 23 55t61 16q27 0 49 -6.5t28 -8.5v-495h-161v439zM-92 642q0 13 6 26t16.5 23t24 16t28.5 6q30 0 51.5 -22t21.5 -49q0 -28 -21.5 -50t-51.5 -22q-15 0 -28.5 6t-24 16t-16.5 23t-6 27zM251 642q0 27 21.5 49t52.5 22t52 -22t21 -49q0 -28 -21 -50t-52 -22
t-52.5 22t-21.5 50zM75 576l33 99q4 12 10 25.5t14.5 24t20.5 17.5t29 7q12 0 23.5 -4t20 -9t14 -10t7.5 -6l-101 -171z" />
    <glyph glyph-name="Alpha" unicode="&#x391;" horiz-adv-x="769" 
d="M5 0l51 130.5l64.5 158l72 170.5l73.5 168q19 43 46.5 60t72.5 17q17 0 33.5 -4t29.5 -9.5t21 -10.5t10 -6q15 -25 39.5 -79l53.5 -121.5l60 -141.5l57.5 -140.5l46.5 -118l28 -73.5h-184l-24 64.5l-32 83.5h-291l-28.5 -77l-26.5 -71h-173zM467 299l-23 60.5l-25 65
l-22.5 58t-16.5 39.5q-6 -14 -16 -39.5l-22 -57l-25 -64.5l-24 -62h174z" />
    <glyph glyph-name="Beta" unicode="&#x392;" horiz-adv-x="684" 
d="M70 597q0 22 6 38t15.5 26.5t22 16t25.5 7.5q10 2 23.5 4t34 3.5t50 2.5t71.5 1q93 0 153.5 -15t96 -41.5t50 -62.5t14.5 -78q0 -31 -7.5 -55t-19 -42.5t-25.5 -31.5t-28 -21q16 -6 34 -18t33 -30.5t25 -45t10 -61.5q0 -46 -14 -83.5t-51 -64.5t-102 -41.5t-166 -14.5
q-50 0 -94 1.5t-78 3t-55 3.5t-24 2v597zM378 417q25 0 41.5 5.5t26.5 15t14 21t4 23.5q0 13 -4.5 26t-18 23t-38 16t-63.5 6q-41 0 -71.5 -2.5t-35.5 -3.5v-130h145zM233 140q5 -1 33.5 -3.5t85.5 -2.5q39 0 64 5t40 14t21 22t6 30q0 13 -4 25t-14.5 21.5t-28 15t-45.5 5.5
h-158v-132z" />
    <glyph glyph-name="Gamma" unicode="&#x393;" horiz-adv-x="583" 
d="M70 591q0 95 99 95h319q46 0 65.5 -19.5t19.5 -56.5q0 -27 -8 -49.5t-13 -30.5h-315v-530h-167v591z" />
    <glyph glyph-name="uni0394" unicode="&#x394;" horiz-adv-x="769" 
d="M5 0q59 158 124.5 313l136.5 314q19 43 46.5 60t72.5 17q17 0 33.5 -4t29.5 -9.5t21 -10.5t10 -6q15 -25 39.5 -79l53.5 -121.5l60 -141.5l57.5 -140.5l46.5 -118l28 -73.5h-759zM380 522l-74 -185l-72 -189h292l-71.5 185.5z" />
    <glyph glyph-name="Epsilon" unicode="&#x395;" horiz-adv-x="641" 
d="M70 591q0 95 99 95h342q46 0 65.5 -19.5t19.5 -56.5q0 -27 -8 -49.5t-13 -30.5h-338v-107h261q46 0 65.5 -19.5t19.5 -56.5q0 -27 -8 -49.5t-13 -30.5h-325v-111h354v-156h-521v591z" />
    <glyph glyph-name="Zeta" unicode="&#x396;" horiz-adv-x="644" 
d="M10 143l110 105.5l112 110l98 99t68 72.5h-285q-46 0 -65.5 19.5t-19.5 56.5q0 27 8 49.5t13 30.5h475q47 0 73.5 -21t26.5 -63q0 -38 -22.5 -70t-53.5 -67l-128.5 -138l-170.5 -171h371v-156h-610v143z" />
    <glyph glyph-name="Eta" unicode="&#x397;" horiz-adv-x="740" 
d="M70 0v612q0 41 24 57.5t63 16.5q29 0 51.5 -7t28.5 -9v-235h266v177q0 41 24 57.5t63 16.5q29 0 51.5 -7t28.5 -9v-670h-167v277h-266v-277h-167z" />
    <glyph glyph-name="Theta" unicode="&#x398;" horiz-adv-x="822" 
d="M40 343q0 76 28.5 142t78.5 114.5t118 76.5t146 28t146 -28t118 -76.5t78.5 -114.5t28.5 -142t-28.5 -142t-78.5 -114.5t-118 -76.5t-146 -28t-146 28t-118 76.5t-78.5 114.5t-28.5 142zM411 138q43 0 79 15.5t62 43.5t40.5 65t14.5 81t-14.5 81.5t-40.5 65t-62 43
t-79 15.5t-79 -15.5t-62 -43t-40.5 -65t-14.5 -81.5t14.5 -81t40.5 -65t62 -43.5t79 -15.5zM486 418q36 0 50.5 -21.5t14.5 -56.5q0 -25 -6 -45.5t-8 -25.5h-198q-36 0 -50.5 21.5t-14.5 56.5q0 25 6 45.5t8 25.5h198z" />
    <glyph glyph-name="Iota" unicode="&#x399;" horiz-adv-x="307" 
d="M70 0v612q0 41 24 57.5t63 16.5q29 0 51.5 -7t28.5 -9v-670h-167z" />
    <glyph glyph-name="Kappa" unicode="&#x39a;" horiz-adv-x="700" 
d="M70 0v612q0 41 24 57.5t63 16.5q29 0 51.5 -7t28.5 -9v-255l51.5 56.5l57.5 61.5l57 59l51 49q18 16 42 30.5t60 14.5q23 0 42 -5.5t32.5 -13t22.5 -15.5t13 -13l-23 -23l-42.5 -43l-53.5 -54.5l-57 -58l-51.5 -53.5l-37.5 -41l80 -88.5l73.5 -88l70 -91l70.5 -98.5h-205
l-58 75.5l-65.5 81t-67.5 77.5l-62 65v-299h-167z" />
    <glyph glyph-name="Lambda" unicode="&#x39b;" horiz-adv-x="749" 
d="M557 0l-88 258t-99 260q-53 -127 -96.5 -255l-92.5 -263h-176l49.5 130.5l61 158l68.5 170.5l72 168q19 43 46.5 60t72.5 17q17 0 33.5 -4t29.5 -9.5t21 -10.5t10 -6q15 -25 39 -79l52 -121.5l57 -141.5l55 -140.5l45 -118l27 -73.5h-187z" />
    <glyph glyph-name="Mu" unicode="&#x39c;" horiz-adv-x="904" 
d="M99 600q1 25 9.5 42t22 26.5t30.5 13.5t36 4q39 0 66 -11t36 -19l75.5 -157.5t80.5 -161.5l70.5 142l63.5 133q19 43 46.5 58.5t62.5 15.5q38 0 66.5 -10.5t36.5 -16.5l38 -659h-168l-23 410l-37 -76l-36.5 -77l-33 -72.5l-27.5 -61.5h-124q-11 27 -27.5 63l-34.5 75
l-37 77.5l-35 70.5l-22 -409h-169z" />
    <glyph glyph-name="Nu" unicode="&#x39d;" horiz-adv-x="739" 
d="M70 599q0 26 8 43t21 26.5t29.5 13.5t33.5 4q35 0 56 -9.5t27 -14.5q5 -5 22.5 -29l42 -59l53 -77.5l55.5 -83l50 -75l36 -55.5v329q0 41 24 57.5t63 16.5q29 0 51 -7t27 -9v-670h-157l-28 45l-44 68l-53.5 81.5l-56 85.5l-52.5 79l-43 63v-422h-165v599z" />
    <glyph glyph-name="Xi" unicode="&#x39e;" horiz-adv-x="636" 
d="M130 530q-46 0 -65.5 19.5t-19.5 56.5q0 27 8 49.5t13 30.5h440q46 0 65.5 -19.5t19.5 -56.5q0 -27 -8 -49.5t-13 -30.5h-440zM190 267q-46 0 -65.5 19.5t-19.5 56.5q0 27 8 49.5t13 30.5h320q46 0 65.5 -19.5t19.5 -56.5q0 -27 -8 -49.5t-13 -30.5h-320zM582 156v-156
h-529v156h529z" />
    <glyph glyph-name="Omicron" unicode="&#x39f;" horiz-adv-x="822" 
d="M40 343q0 76 28.5 142t78.5 114.5t118 76.5t146 28t146 -28t118 -76.5t78.5 -114.5t28.5 -142t-28.5 -142t-78.5 -114.5t-118 -76.5t-146 -28t-146 28t-118 76.5t-78.5 114.5t-28.5 142zM411 138q43 0 79 15.5t62 43.5t40.5 65t14.5 81t-14.5 81.5t-40.5 65t-62 43
t-79 15.5t-79 -15.5t-62 -43t-40.5 -65t-14.5 -81.5t14.5 -81t40.5 -65t62 -43.5t79 -15.5z" />
    <glyph glyph-name="Pi" unicode="&#x3a0;" horiz-adv-x="738" 
d="M501 0v530h-264v-530h-167v591q0 95 99 95h400q99 0 99 -95v-591h-167z" />
    <glyph glyph-name="Rho" unicode="&#x3a1;" horiz-adv-x="668" 
d="M233 364l24.5 -3.5t57.5 -2.5q46 0 74.5 8.5t44.5 22.5t21.5 31.5t5.5 34.5q0 16 -4.5 33t-19.5 31.5t-43.5 24t-76.5 9.5q-35 0 -57 -1.5t-27 -2.5v-185zM70 597q0 22 6 38t15.5 26.5t22 16t25.5 7.5q10 2 23.5 4t34 3.5t50 2.5t71.5 1q90 0 150 -20.5t96.5 -54t52 -77
t15.5 -89.5q0 -53 -17 -97t-53 -75.5t-92.5 -49t-134.5 -17.5q-18 0 -35 1t-31 2t-23.5 2.5t-12.5 1.5v-223h-163v597z" />
    <glyph glyph-name="Sigma" unicode="&#x3a3;" horiz-adv-x="644" 
d="M14 0v141l272 206l-186 130q-42 30 -64 57.5t-22 65.5q0 42 30 64t77 22h402q46 0 65.5 -18.5t19.5 -55.5q0 -27 -8 -49t-13 -30h-307l122 -82q33 -22 51 -45.5t18 -56.5q0 -32 -16.5 -54t-44.5 -42l-143 -98h350v-155h-603z" />
    <glyph glyph-name="Tau" unicode="&#x3a4;" horiz-adv-x="667" 
d="M250 530h-160q-46 0 -65.5 19.5t-19.5 56.5q0 27 8 49.5t13 30.5h551q46 0 65.5 -19.5t19.5 -56.5q0 -27 -8 -49.5t-13 -30.5h-224v-530h-167v530z" />
    <glyph glyph-name="Upsilon" unicode="&#x3a5;" horiz-adv-x="691" 
d="M252 253l-49 61l-50 64.5l-44.5 58.5l-33.5 45l-22.5 31t-23 35.5t-17.5 36.5t-7 33q0 35 22.5 51.5t54.5 16.5q28 0 47.5 -6.5t24.5 -9.5l39 -59l50.5 -74.5l51.5 -74.5l43 -60l37.5 52l39 58l38 59l34.5 54q6 9 14.5 20t21 20t29.5 15t40 6q18 0 34 -4.5t28.5 -10.5
t20.5 -12t11 -9q-8 -17 -25 -45.5t-40.5 -64l-50.5 -75.5l-54 -78.5l-52.5 -73l-44.5 -60.5v-253h-167v253z" />
    <glyph glyph-name="Phi" unicode="&#x3a6;" horiz-adv-x="848" 
d="M341 -57v105q-66 9 -121 32.5t-95 60.5t-62.5 87.5t-22.5 113.5t22.5 113.5t62.5 87t95 59.5t121 32v41q0 41 23.5 57.5t61.5 16.5q28 0 50 -7l28 -9v-98q66 -9 121.5 -32t96 -60t63.5 -87.5t23 -113.5q0 -64 -23 -114.5t-63.5 -87.5t-96 -60t-121.5 -32v-105h-163z
M633 342q0 58 -31.5 94t-97.5 50v-289q66 14 97.5 50.5t31.5 94.5zM215 342q0 -57 30.5 -93.5t95.5 -50.5v288q-65 -14 -95.5 -50.5t-30.5 -93.5z" />
    <glyph glyph-name="Chi" unicode="&#x3a7;" horiz-adv-x="751" 
d="M10 0l34 44.5l60 78l77.5 100l84.5 109.5l-56.5 67.5l-50.5 59.5l-40 47l-26 30q-20 23 -30.5 42.5t-10.5 37.5q0 33 22.5 51.5t58.5 18.5q26 0 42.5 -5.5t24.5 -10.5l23 -29l38 -47.5l49 -62l57 -71.5l43.5 58.5l37 49.5l27.5 37t15 20q14 18 25 29.5t23 18.5t25.5 10
t31.5 3q20 0 37.5 -5.5t31.5 -12.5t23.5 -15t13.5 -12l-31 -38.5l-55 -69l-70.5 -90l-78.5 -101.5l91 -112.5l82.5 -102l64.5 -80t37 -47.5h-203q-9 10 -26 32l-39.5 50.5l-49.5 62.5l-57 70l-53.5 -69.5l-47 -62l-37.5 -50.5t-25 -33h-193z" />
    <glyph glyph-name="Psi" unicode="&#x3a8;" horiz-adv-x="800" 
d="M319 0v179q-59 5 -109.5 20.5t-87 47t-57 82.5t-20.5 128v155q0 41 24 57.5t63 16.5q29 0 51 -7l28 -9v-181q0 -41 7.5 -68t21 -44.5t33.5 -26t46 -11.5v273q0 41 23.5 57.5t61.5 16.5q28 0 50 -7l28 -9v-331q25 3 45 11.5t33.5 26t21 44.5t7.5 68v123q0 41 23.5 57.5
t62.5 16.5q29 0 51.5 -7t28.5 -9v-213q0 -76 -20.5 -127t-57 -83t-86.5 -47.5t-109 -20.5v-179h-163z" />
    <glyph glyph-name="Omega" unicode="&#x3a9;" horiz-adv-x="840" 
d="M50 138h117q-41 38 -69 96t-28 139q0 67 20 127.5t62 105.5t108.5 71.5t159.5 26.5t159.5 -26.5t108.5 -71.5t62 -105.5t20 -127.5q0 -81 -28 -139t-69 -96h117v-138h-320v137q61 31 93 84t32 134q0 41 -9.5 77.5t-30.5 64t-54.5 43.5t-80.5 16t-80.5 -16t-54.5 -43.5
t-30.5 -64t-9.5 -77.5q0 -81 32 -134t93 -84v-137h-320v138z" />
    <glyph glyph-name="Iotadieresis" unicode="&#x3aa;" horiz-adv-x="307" 
d="M70 0v612q0 41 24 57.5t63 16.5q29 0 51.5 -7t28.5 -9v-670h-167zM-21 818q0 13 6 26t16.5 23t24 16t28.5 6q30 0 51.5 -22t21.5 -49q0 -28 -21.5 -50t-51.5 -22q-15 0 -28.5 6t-24 16t-16.5 23t-6 27zM192 818q0 27 21.5 49t52.5 22t52 -22t21 -49q0 -28 -21 -50
t-52 -22t-52.5 22t-21.5 50z" />
    <glyph glyph-name="Upsilondieresis" unicode="&#x3ab;" horiz-adv-x="691" 
d="M252 253l-49 61l-50 64.5l-44.5 58.5l-33.5 45l-22.5 31t-23 35.5t-17.5 36.5t-7 33q0 35 22.5 51.5t54.5 16.5q28 0 47.5 -6.5t24.5 -9.5l39 -59l50.5 -74.5l51.5 -74.5l43 -60l37.5 52l39 58l38 59l34.5 54q6 9 14.5 20t21 20t29.5 15t40 6q18 0 34 -4.5t28.5 -10.5
t20.5 -12t11 -9q-8 -17 -25 -45.5t-40.5 -64l-50.5 -75.5l-54 -78.5l-52.5 -73l-44.5 -60.5v-253h-167v253zM165 818q0 13 6 26t16.5 23t24 16t28.5 6q30 0 51.5 -22t21.5 -49q0 -28 -21.5 -50t-51.5 -22q-15 0 -28.5 6t-24 16t-16.5 23t-6 27zM378 818q0 27 21.5 49
t52.5 22t52 -22t21 -49q0 -28 -21 -50t-52 -22t-52.5 22t-21.5 50z" />
    <glyph glyph-name="alphatonos" unicode="&#x3ac;" horiz-adv-x="645" 
d="M431 54q-23 -26 -59 -46t-93 -20q-47 0 -90.5 17.5t-78 50.5t-55 81t-20.5 109q0 64 21 115.5t59.5 87.5t93 55.5t120.5 19.5q80 0 137.5 -10.5t86.5 -22.5q17 -7 26.5 -18t9.5 -40v-433h-158v54zM315 133q25 0 45.5 9.5t35.5 26t23.5 39t8.5 48.5v104q-8 4 -28 10t-58 6
q-74 0 -108 -36t-34 -97q0 -23 8.5 -43t24 -35t36.5 -23.5t46 -8.5zM251 616l71 135q7 13 16.5 26.5t22 24.5t29 18t36.5 7q26 0 46 -9.5t43 -29.5l-164 -213z" />
    <glyph glyph-name="epsilontonos" unicode="&#x3ad;" horiz-adv-x="520" 
d="M510 38q-10 -7 -30 -16t-48.5 -16.5t-66 -13t-82.5 -5.5q-115 0 -181.5 37.5t-66.5 105.5q0 49 24 83.5t81 51.5q-42 11 -66.5 39.5t-24.5 72.5q0 29 15 55.5t45 47t75.5 32.5t107.5 12q34 0 70 -3.5t65.5 -13t48 -26.5t18.5 -43q0 -17 -7.5 -37.5t-35.5 -45.5
q-57 45 -147 45q-84 0 -84 -39q0 -20 23 -29.5t75 -9.5h26q45 0 62 -13.5t17 -43.5q0 -22 -8 -40.5t-13 -23.5h-78q-56 0 -87.5 -10.5t-31.5 -35.5q0 -23 27.5 -31t77.5 -8q47 0 83.5 10t62.5 23zM192 616l71 135q7 13 16.5 26.5t22 24.5t29 18t36.5 7q26 0 46 -9.5
t43 -29.5l-164 -213z" />
    <glyph glyph-name="etatonos" unicode="&#x3ae;" horiz-adv-x="619" 
d="M311 524q49 0 94.5 -14t80.5 -41t56.5 -66.5t21.5 -90.5v-512h-161v483q0 53 -27 76t-65 23t-66.5 -23.5t-28.5 -75.5v-283h-161v312q0 51 21.5 90.5t57.5 66.5t82 41t95 14zM195 616l71 135q7 13 16.5 26.5t22 24.5t29 18t36.5 7q26 0 46 -9.5t43 -29.5l-164 -213z" />
    <glyph glyph-name="iotatonos" unicode="&#x3af;" horiz-adv-x="281" 
d="M60 439q0 39 23 55t61 16q27 0 49 -6.5t28 -8.5v-495h-161v439zM64 616l71 135q7 13 16.5 26.5t22 24.5t29 18t36.5 7q26 0 46 -9.5t43 -29.5l-164 -213z" />
    <glyph glyph-name="upsilondieresistonos" unicode="&#x3b0;" horiz-adv-x="620" 
d="M216 238q0 -104 94 -104t94 104v201q0 39 23 55t61 16q27 0 49 -6.5t28 -8.5v-287q0 -56 -19.5 -97.5t-53.5 -69t-81 -41.5t-101 -14t-101 14t-81 41.5t-53.5 69t-19.5 97.5v231q0 39 23 55t61 16q27 0 49 -6.5t28 -8.5v-257zM63 642q0 13 6 26t16.5 23t24 16t28.5 6
q30 0 51.5 -22t21.5 -49q0 -28 -21.5 -50t-51.5 -22q-15 0 -28.5 6t-24 16t-16.5 23t-6 27zM406 642q0 27 21.5 49t52.5 22t52 -22t21 -49q0 -28 -21 -50t-52 -22t-52.5 22t-21.5 50zM230 576l33 99q4 12 10 25.5t14.5 24t20.5 17.5t29 7q12 0 23.5 -4t20 -9t14 -10t7.5 -6
l-101 -171z" />
    <glyph glyph-name="alpha" unicode="&#x3b1;" horiz-adv-x="645" 
d="M431 54q-23 -26 -59 -46t-93 -20q-47 0 -90.5 17.5t-78 50.5t-55 81t-20.5 109q0 64 21 115.5t59.5 87.5t93 55.5t120.5 19.5q80 0 137.5 -10.5t86.5 -22.5q17 -7 26.5 -18t9.5 -40v-433h-158v54zM315 133q25 0 45.5 9.5t35.5 26t23.5 39t8.5 48.5v104q-8 4 -28 10t-58 6
q-74 0 -108 -36t-34 -97q0 -23 8.5 -43t24 -35t36.5 -23.5t46 -8.5z" />
    <glyph glyph-name="beta" unicode="&#x3b2;" horiz-adv-x="652" 
d="M60 -200v717q0 39 12 78.5t40.5 71t76.5 51t119 19.5q66 0 112.5 -17t76.5 -43t44 -58.5t14 -62.5q0 -35 -9.5 -61.5t-23.5 -45t-30.5 -30.5t-31.5 -18q6 -2 20 -5.5t31.5 -12t37 -22.5t35 -35t26 -51t10.5 -70q0 -56 -21 -97.5t-55 -68.5t-78 -40t-89 -13
q-56 0 -96 16.5t-61 37.5v-240h-160zM338 320q-33 2 -47 16t-14 44q0 22 7 40.5t10 24.5l17 1q48 3 68 29t20 58q0 25 -8 41t-21 25t-29 12.5t-31 3.5q-43 0 -66.5 -24t-23.5 -72v-243q0 -40 4 -62t12 -37q16 -31 45 -45t68 -14q48 0 75 25t27 67q0 50 -31.5 79t-81.5 31z
" />
    <glyph glyph-name="gamma" unicode="&#x3b3;" horiz-adv-x="590" 
d="M205 10l-58.5 110.5l-51.5 105l-38.5 83t-19.5 44.5l-17.5 45t-9.5 45q0 28 20 47.5t60 19.5q32 0 52 -6.5t23 -8.5l36 -99l36.5 -92.5l31.5 -75l20 -45.5q6 13 19 44.5l28.5 70l31 77l26.5 65.5q6 15 13.5 28t18 22.5t25.5 14.5t37 5q20 0 36 -4t28 -9t19 -9.5t9 -5.5
q-4 -17 -18 -52t-34 -80l-43 -94.5l-45.5 -96.5l-42 -86.5t-32.5 -63.5v-208h-160v209z" />
    <glyph glyph-name="delta" unicode="&#x3b4;" horiz-adv-x="619" 
d="M35 234q0 37 13.5 71t37 61.5t53.5 46.5t63 27q-22 10 -40 22t-31.5 28t-21 37.5t-7.5 50.5q0 30 14 58.5t42.5 51t73 36t106.5 13.5t104 -11.5t68 -29.5q12 -8 19.5 -20.5t7.5 -31.5q0 -29 -16 -49t-34 -34q-24 21 -61 35.5t-84 14.5q-31 0 -56 -8.5t-25 -30.5
q0 -16 11 -27t32.5 -22.5t53 -25t71.5 -34.5q29 -15 57 -33.5t49.5 -44.5t35 -63t13.5 -88q0 -56 -21.5 -102t-58.5 -78.5t-87 -50t-108 -17.5t-108 17.5t-87 50t-58 78.5t-21 102zM309 125q51 0 81.5 33t30.5 86q0 25 -8 46.5t-22.5 37.5t-35.5 25t-46 9q-51 0 -81.5 -32.5
t-30.5 -85.5t30.5 -86t81.5 -33z" />
    <glyph glyph-name="epsilon" unicode="&#x3b5;" horiz-adv-x="520" 
d="M510 38q-10 -7 -30 -16t-48.5 -16.5t-66 -13t-82.5 -5.5q-115 0 -181.5 37.5t-66.5 105.5q0 49 24 83.5t81 51.5q-42 11 -66.5 39.5t-24.5 72.5q0 29 15 55.5t45 47t75.5 32.5t107.5 12q34 0 70 -3.5t65.5 -13t48 -26.5t18.5 -43q0 -17 -7.5 -37.5t-35.5 -45.5
q-57 45 -147 45q-84 0 -84 -39q0 -20 23 -29.5t75 -9.5h26q45 0 62 -13.5t17 -43.5q0 -22 -8 -40.5t-13 -23.5h-78q-56 0 -87.5 -10.5t-31.5 -35.5q0 -23 27.5 -31t77.5 -8q47 0 83.5 10t62.5 23z" />
    <glyph glyph-name="zeta" unicode="&#x3b6;" horiz-adv-x="538" 
d="M447 546q-112 -73 -175.5 -146t-63.5 -144q0 -118 103 -118q111 0 161.5 -40.5t50.5 -117.5q0 -53 -29.5 -96t-105.5 -79l-64 106q19 13 28.5 22.5t9.5 27.5q0 20 -19 29.5t-61 9.5q-123 0 -185 59.5t-62 162.5q0 58 20 109t55.5 96t84 84.5t104.5 74.5q-20 -1 -48 -1.5
t-55 -0.5h-48.5h-27.5q-45 0 -63.5 19.5t-18.5 52.5q0 25 7.5 44t12.5 26h385q35 0 57.5 -17t22.5 -60q0 -37 -20.5 -58.5t-55.5 -44.5z" />
    <glyph glyph-name="eta" unicode="&#x3b7;" horiz-adv-x="619" 
d="M311 524q49 0 94.5 -14t80.5 -41t56.5 -66.5t21.5 -90.5v-512h-161v483q0 53 -27 76t-65 23t-66.5 -23.5t-28.5 -75.5v-283h-161v312q0 51 21.5 90.5t57.5 66.5t82 41t95 14z" />
    <glyph glyph-name="theta" unicode="&#x3b8;" horiz-adv-x="640" 
d="M605 362q0 -84 -17.5 -153t-53 -118.5t-89 -77t-125.5 -27.5t-125.5 27.5t-89 77t-53 118.5t-17.5 153t17.5 153t53 118.5t89 76.5t125.5 27t125.5 -27t89 -76.5t53 -118.5t17.5 -153zM320 117q56 0 84.5 45.5t35.5 135.5h-240q6 -90 34.5 -135.5t85.5 -45.5zM320 606
q-56 0 -84.5 -44.5t-35.5 -132.5h240q-7 88 -35.5 132.5t-84.5 44.5z" />
    <glyph glyph-name="iota" unicode="&#x3b9;" horiz-adv-x="281" 
d="M60 439q0 39 23 55t61 16q27 0 49 -6.5t28 -8.5v-495h-161v439z" />
    <glyph glyph-name="kappa" unicode="&#x3ba;" horiz-adv-x="611" 
d="M60 439q0 39 23 55t61 16q27 0 49 -6.5t28 -8.5v-171l38.5 37l40 38.5l37 34.5l28.5 26l26.5 22.5t24 15.5t26.5 9t34 3t37 -6t30 -14.5t22 -18t13 -16.5q-19 -20 -48 -45.5l-60.5 -52l-61 -50.5l-49.5 -40l63.5 -58l65 -65t62.5 -70.5t56 -73.5h-199q-41 55 -92.5 103
t-93.5 83v-186h-161v439z" />
    <glyph glyph-name="lambda" unicode="&#x3bb;" horiz-adv-x="596" 
d="M421 0l-60 137.5t-64 135.5l-37 -79l-36.5 -78.5t-30.5 -68.5t-19 -47h-169l35 75l52 108.5l60.5 122.5l59.5 117l-57 98l-58 97q-9 15 -14.5 28.5t-5.5 24.5q0 29 22.5 49.5t61.5 20.5q11 0 27 -2.5t30 -8.5q36 -54 82.5 -137l97 -181.5l100.5 -205l93 -206.5h-170z" />
    <glyph glyph-name="uni03BC" unicode="&#x3bc;" horiz-adv-x="625" 
d="M409 439q0 39 23 55t61 16q27 0 49 -6.5t28 -8.5v-313q0 -50 -16.5 -86.5t-46 -60.5t-69 -35.5t-85.5 -11.5q-38 0 -75.5 12t-57.5 34v-234h-160v639q0 39 23 55t61 16q27 0 49 -6.5t28 -8.5v-264q0 -54 25 -80t70 -26q48 0 70.5 21t22.5 69v224z" />
    <glyph glyph-name="nu" unicode="&#x3bd;" horiz-adv-x="590" 
d="M211 0q-31 55 -60.5 113l-53.5 108.5l-40 86t-20 45.5l-17.5 45t-9.5 45q0 28 20 47.5t60 19.5q32 0 52 -6.5t23 -8.5l36 -99l36.5 -92.5l31.5 -75l20 -45.5q8 12 22.5 44t30 70l30 77t22.5 66q10 32 30 51t64 19q20 0 36 -4t28 -9t19 -9.5t9 -5.5q-1 -17 -13.5 -53
t-31.5 -82.5t-43 -98l-48 -99.5t-46.5 -87.5t-37.5 -61.5h-149z" />
    <glyph glyph-name="xi" unicode="&#x3be;" horiz-adv-x="541" 
d="M283 0q-47 0 -92 9.5t-79.5 31.5t-55.5 58.5t-21 89.5q0 67 37 114t98 71q-51 20 -80.5 66t-29.5 100q0 41 16.5 77t48 62.5t78 42t106.5 15.5q25 0 59.5 -4t66 -15.5t53 -31.5t21.5 -52q0 -27 -15.5 -46t-36.5 -33q-29 28 -67 42t-79 14q-38 0 -66.5 -19.5t-28.5 -61.5
q0 -23 10.5 -39t26.5 -27t35.5 -16t38.5 -5h43q35 0 60.5 -14.5t25.5 -55.5q0 -20 -5.5 -39t-14.5 -36h-89q-23 0 -48 -2.5t-45.5 -11.5t-33.5 -26t-13 -45q0 -16 4.5 -31t17 -26t34 -18t56.5 -7q111 0 161.5 -37t50.5 -114q0 -53 -29.5 -96t-105.5 -79l-64 106
q19 13 28.5 22.5t9.5 27.5q0 20 -19.5 29.5t-67.5 9.5z" />
    <glyph glyph-name="omicron" unicode="&#x3bf;" horiz-adv-x="634" 
d="M35 255q0 58 22 107t60.5 85t89.5 56.5t110 20.5q58 0 109.5 -20.5t90 -56.5t60.5 -85t22 -107t-22 -107t-60.5 -85t-90 -56.5t-109.5 -20.5q-59 0 -110 20.5t-89.5 56.5t-60.5 85t-22 107zM317 130q25 0 46.5 9.5t37.5 26t24.5 39.5t8.5 50t-8.5 50t-24.5 39.5t-37.5 26
t-46.5 9.5q-26 0 -47 -9.5t-37 -26t-24.5 -39.5t-8.5 -50t8.5 -50t24.5 -39.5t37 -26t47 -9.5z" />
    <glyph glyph-name="pi" unicode="&#x3c0;" horiz-adv-x="706" 
d="M591 0h-161v360h-150v-360h-161v360h-23q-44 0 -62.5 19t-18.5 54q0 26 8 47.5t12 29.5h575q44 0 62.5 -19t18.5 -55q0 -25 -8 -46.5t-12 -29.5h-80v-360z" />
    <glyph glyph-name="rho" unicode="&#x3c1;" horiz-adv-x="632" 
d="M43 -200v432q0 64 13 111t37 79q38 50 97 76t131 26q59 0 109.5 -19.5t87.5 -54.5t58 -85t21 -110q0 -61 -19.5 -110t-53 -84t-78.5 -54t-96 -19q-56 0 -92.5 17.5t-54.5 35.5v-241h-160zM317 133q50 0 82.5 34.5t32.5 88.5t-32.5 87t-82.5 33t-82.5 -32t-32.5 -88
q0 -26 8.5 -48.5t24 -39t36.5 -26t46 -9.5z" />
    <glyph glyph-name="sigma1" unicode="&#x3c2;" horiz-adv-x="531" 
d="M334 132q92 0 139 -40t47 -112q0 -53 -29.5 -96t-105.5 -79l-64 105q19 11 28.5 22t9.5 29t-15.5 28.5t-54.5 10.5q-60 0 -107 17.5t-80 50.5t-50 79.5t-17 104.5q0 64 23 115t62.5 85.5t92 53t110.5 18.5q53 0 99.5 -13.5t69.5 -36.5q11 -11 17.5 -23.5t6.5 -29.5
t-6 -30t-15 -23t-18.5 -17.5t-16.5 -11.5q-18 18 -50 33.5t-76 15.5q-56 0 -92.5 -32.5t-36.5 -95.5q0 -49 13 -75t32.5 -38t42 -13.5t41.5 -1.5z" />
    <glyph glyph-name="sigma" unicode="&#x3c3;" horiz-adv-x="693" 
d="M35 255q0 58 21.5 107t59 85t88 56.5t109.5 20.5q47 0 92 -14h177q45 0 64 -18t19 -54q0 -26 -8 -48.5t-12 -29.5h-85q18 -31 24.5 -57t6.5 -56q0 -54 -21.5 -102t-59 -83t-88.5 -55.5t-109 -20.5q-59 0 -109.5 20.5t-88 56.5t-59 85t-21.5 107zM313 130q51 0 82 35.5
t31 89.5t-31 89.5t-82 35.5t-82 -35.5t-31 -89.5t31 -89.5t82 -35.5z" />
    <glyph glyph-name="tau" unicode="&#x3c4;" horiz-adv-x="590" 
d="M10 430q0 26 8 49.5t12 30.5h468q45 0 63.5 -18.5t18.5 -53.5q0 -25 -7.5 -47.5t-12.5 -30.5h-184v-360h-161v360h-122q-45 0 -64 17t-19 53z" />
    <glyph glyph-name="upsilon" unicode="&#x3c5;" horiz-adv-x="620" 
d="M216 238q0 -104 94 -104t94 104v201q0 39 23 55t61 16q27 0 49 -6.5t28 -8.5v-287q0 -56 -19.5 -97.5t-53.5 -69t-81 -41.5t-101 -14t-101 14t-81 41.5t-53.5 69t-19.5 97.5v231q0 39 23 55t61 16q27 0 49 -6.5t28 -8.5v-257z" />
    <glyph glyph-name="phi" unicode="&#x3c6;" horiz-adv-x="792" 
d="M320 -18q-59 4 -111 24.5t-91.5 55.5t-62.5 82.5t-23 105.5t23 105.5t62.5 82.5t91.5 55.5t111 24.5v104q0 39 22 55t58 16q26 0 47 -6.5t26 -8.5v-161q57 -4 109 -24.5t91.5 -55t63 -82t23.5 -105.5t-23 -105.5t-62.5 -82.5t-91.5 -55.5t-110 -24.5v-182h-153v182z
M197 250q0 -26 9 -49t25 -41t38.5 -29t50.5 -12v262q-28 -1 -50.5 -12t-38.5 -29t-25 -41.5t-9 -48.5zM595 250q0 25 -9 48.5t-25 41t-38.5 28.5t-49.5 13v-262q55 6 88.5 43t33.5 88z" />
    <glyph glyph-name="chi" unicode="&#x3c7;" horiz-adv-x="605" 
d="M225 151l-149 232q-10 17 -17 32.5t-7 28.5q0 27 19 46.5t58 19.5q32 0 49.5 -5.5t23.5 -9.5l115 -203l93 165q18 29 41 41t52 12q21 0 36.5 -5t26.5 -12t17.5 -14.5l10.5 -12.5l-197 -308l203 -358h-175l-119 220l-129 -220h-172z" />
    <glyph glyph-name="psi" unicode="&#x3c8;" horiz-adv-x="830" 
d="M614 439q0 39 23 55t61 16q27 0 49 -6.5t28 -8.5v-222q0 -50 -13.5 -98.5t-45.5 -88.5t-86 -66.5t-136 -31.5v-188h-161v188q-86 6 -140 32t-84.5 66t-42 91.5t-11.5 108.5v153q0 39 23 55t61 16q27 0 49 -6.5t28 -8.5v-200q0 -29 4 -56.5t17 -50t35.5 -37.5t60.5 -19
v490q0 39 23 55t61 16q27 0 49 -6.5t28 -8.5v-546q36 4 59.5 17.5t37 32t18.5 41t5 45.5v171z" />
    <glyph glyph-name="omega" unicode="&#x3c9;" horiz-adv-x="941" 
d="M736 237q0 29 -7 56.5t-23 51.5t-41.5 43t-62.5 31q-5 49 18 69.5t59 20.5q45 0 86 -21t72.5 -58t50 -87t18.5 -108q0 -48 -13 -93t-42.5 -79.5t-77.5 -55.5t-118 -21q-61 0 -109.5 26t-76.5 68q-28 -42 -76.5 -68t-109.5 -26q-70 0 -117.5 21t-76.5 55.5t-41.5 79.5
t-12.5 93q0 58 18.5 108t50 87t72.5 58t86 21q36 0 59 -20.5t18 -69.5q-37 -12 -62.5 -31t-41.5 -43t-23 -51.5t-7 -56.5q0 -48 23.5 -78t74.5 -30q37 0 61.5 26.5t24.5 86.5v46q0 38 23.5 54.5t60.5 16.5q25 0 46.5 -6t29.5 -9v-102q0 -60 24.5 -86.5t61.5 -26.5
q51 0 76 30t25 78z" />
    <glyph glyph-name="iotadieresis" unicode="&#x3ca;" horiz-adv-x="281" 
d="M60 439q0 39 23 55t61 16q27 0 49 -6.5t28 -8.5v-495h-161v439zM-30 642q0 13 6 26t16.5 23t24 16t28.5 6q30 0 51.5 -22t21.5 -49q0 -28 -21.5 -50t-51.5 -22q-15 0 -28.5 6t-24 16t-16.5 23t-6 27zM183 642q0 27 21.5 49t52.5 22t52 -22t21 -49q0 -28 -21 -50t-52 -22
t-52.5 22t-21.5 50z" />
    <glyph glyph-name="upsilondieresis" unicode="&#x3cb;" horiz-adv-x="620" 
d="M216 238q0 -104 94 -104t94 104v201q0 39 23 55t61 16q27 0 49 -6.5t28 -8.5v-287q0 -56 -19.5 -97.5t-53.5 -69t-81 -41.5t-101 -14t-101 14t-81 41.5t-53.5 69t-19.5 97.5v231q0 39 23 55t61 16q27 0 49 -6.5t28 -8.5v-257zM138 642q0 13 6 26t16.5 23t24 16t28.5 6
q30 0 51.5 -22t21.5 -49q0 -28 -21.5 -50t-51.5 -22q-15 0 -28.5 6t-24 16t-16.5 23t-6 27zM351 642q0 27 21.5 49t52.5 22t52 -22t21 -49q0 -28 -21 -50t-52 -22t-52.5 22t-21.5 50z" />
    <glyph glyph-name="omicrontonos" unicode="&#x3cc;" horiz-adv-x="634" 
d="M35 255q0 58 22 107t60.5 85t89.5 56.5t110 20.5q58 0 109.5 -20.5t90 -56.5t60.5 -85t22 -107t-22 -107t-60.5 -85t-90 -56.5t-109.5 -20.5q-59 0 -110 20.5t-89.5 56.5t-60.5 85t-22 107zM317 130q25 0 46.5 9.5t37.5 26t24.5 39.5t8.5 50t-8.5 50t-24.5 39.5t-37.5 26
t-46.5 9.5q-26 0 -47 -9.5t-37 -26t-24.5 -39.5t-8.5 -50t8.5 -50t24.5 -39.5t37 -26t47 -9.5zM227 616l71 135q7 13 16.5 26.5t22 24.5t29 18t36.5 7q26 0 46 -9.5t43 -29.5l-164 -213z" />
    <glyph glyph-name="upsilontonos" unicode="&#x3cd;" horiz-adv-x="620" 
d="M216 238q0 -104 94 -104t94 104v201q0 39 23 55t61 16q27 0 49 -6.5t28 -8.5v-287q0 -56 -19.5 -97.5t-53.5 -69t-81 -41.5t-101 -14t-101 14t-81 41.5t-53.5 69t-19.5 97.5v231q0 39 23 55t61 16q27 0 49 -6.5t28 -8.5v-257zM218 616l71 135q7 13 16.5 26.5t22 24.5
t29 18t36.5 7q26 0 46 -9.5t43 -29.5l-164 -213z" />
    <glyph glyph-name="omegatonos" unicode="&#x3ce;" horiz-adv-x="941" 
d="M736 237q0 29 -7 56.5t-23 51.5t-41.5 43t-62.5 31q-5 49 18 69.5t59 20.5q45 0 86 -21t72.5 -58t50 -87t18.5 -108q0 -48 -13 -93t-42.5 -79.5t-77.5 -55.5t-118 -21q-61 0 -109.5 26t-76.5 68q-28 -42 -76.5 -68t-109.5 -26q-70 0 -117.5 21t-76.5 55.5t-41.5 79.5
t-12.5 93q0 58 18.5 108t50 87t72.5 58t86 21q36 0 59 -20.5t18 -69.5q-37 -12 -62.5 -31t-41.5 -43t-23 -51.5t-7 -56.5q0 -48 23.5 -78t74.5 -30q37 0 61.5 26.5t24.5 86.5v46q0 38 23.5 54.5t60.5 16.5q25 0 46.5 -6t29.5 -9v-102q0 -60 24.5 -86.5t61.5 -26.5
q51 0 76 30t25 78zM398 616l71 135q7 13 16.5 26.5t22 24.5t29 18t36.5 7q26 0 46 -9.5t43 -29.5l-164 -213z" />
    <glyph glyph-name="uni0400" unicode="&#x400;" horiz-adv-x="641" 
d="M70 591q0 95 99 95h342q46 0 65.5 -19.5t19.5 -56.5q0 -27 -8 -49.5t-13 -30.5h-338v-107h261q46 0 65.5 -19.5t19.5 -56.5q0 -27 -8 -49.5t-13 -30.5h-325v-111h354v-156h-521v591zM175 828q0 3 3 16.5t11.5 28.5t24 27t40.5 12q18 0 36.5 -7t37.5 -17l135 -68l-35 -73z
" />
    <glyph glyph-name="afii10023" unicode="&#x401;" horiz-adv-x="641" 
d="M70 591q0 95 99 95h342q46 0 65.5 -19.5t19.5 -56.5q0 -27 -8 -49.5t-13 -30.5h-338v-107h261q46 0 65.5 -19.5t19.5 -56.5q0 -27 -8 -49.5t-13 -30.5h-325v-111h354v-156h-521v591zM361 829q0 28 21.5 50.5t53.5 22.5t53.5 -22.5t21.5 -50.5t-21.5 -50.5t-53.5 -22.5
t-53.5 22.5t-21.5 50.5zM129 829q0 14 6 27t16.5 23.5t24.5 16.5t29 6q31 0 53 -22.5t22 -50.5t-22 -50.5t-53 -22.5q-15 0 -29 6t-24.5 16.5t-16.5 23.5t-6 27z" />
    <glyph glyph-name="afii10051" unicode="&#x402;" horiz-adv-x="798" 
d="M449 0v148q10 -2 18 -2h16q29 0 48 6.5t30.5 17.5t16 25t4.5 29q0 38 -28.5 58.5t-76.5 20.5q-54 0 -84 -30.5t-30 -87.5v-185h-168v530h-105q-46 0 -65.5 19.5t-19.5 56.5q0 27 8 49.5t13 30.5h449q46 0 65.5 -19.5t19.5 -56.5q0 -27 -8 -49.5t-13 -30.5h-176v-121
q20 17 57 31t97 14q49 0 94 -13t78.5 -41t53.5 -71.5t20 -103.5q0 -45 -14.5 -86t-46 -72.5t-80 -50.5t-117.5 -19q-26 0 -56 3z" />
    <glyph glyph-name="afii10052" unicode="&#x403;" horiz-adv-x="583" 
d="M70 591q0 95 99 95h319q46 0 65.5 -19.5t19.5 -56.5q0 -27 -8 -49.5t-13 -30.5h-315v-530h-167v591zM199 820l135 68q19 10 37.5 17t36.5 7q25 0 40.5 -12t24 -27t11.5 -28.5t3 -16.5l-254 -81z" />
    <glyph glyph-name="afii10053" unicode="&#x404;" horiz-adv-x="671" 
d="M660 51q-11 -8 -31.5 -19.5t-51.5 -22.5t-73 -19t-95 -8q-75 0 -142 22.5t-117.5 67.5t-80 112t-29.5 156q0 87 28.5 154.5t78 114t116 71t143.5 24.5q41 0 74 -5t58.5 -13t43.5 -17t29 -16q23 -17 33 -35.5t10 -38.5q0 -19 -7.5 -36t-18 -30.5t-21 -23t-17.5 -13.5
q-10 10 -25.5 23.5t-37.5 24.5t-50.5 19t-63.5 8q-68 0 -117 -34t-69 -95h181q46 0 65.5 -19.5t19.5 -56.5q0 -27 -8 -49.5t-13 -30.5h-247q20 -65 74 -97t126 -32q56 0 96.5 14t61.5 29l75 -129h2z" />
    <glyph glyph-name="afii10054" unicode="&#x405;" horiz-adv-x="682" 
d="M99 196q6 -5 27 -15.5t53 -21t74 -19t91 -8.5q40 0 64 5.5t37 14.5t17 20.5t4 23.5q0 24 -19.5 39.5t-72.5 24.5l-102 18q-40 7 -80 20t-71.5 36t-51.5 59t-20 89q0 46 17 86.5t52 70.5t88.5 47.5t125.5 17.5q52 0 91 -5.5t67 -13.5t45.5 -16t25.5 -13q17 -10 32.5 -27.5
t15.5 -41.5q0 -17 -6 -32.5t-14.5 -28.5t-18.5 -22.5t-17 -14.5q-10 10 -30 22.5t-48 22.5t-64 17t-77 7q-39 0 -62 -6.5t-34.5 -16t-15 -21.5t-3.5 -22q0 -9 2.5 -17t12 -15.5t27 -14t47.5 -12.5l106 -21q56 -11 98.5 -27.5t71.5 -40.5t43.5 -58t14.5 -81
q0 -105 -78.5 -164t-221.5 -59q-65 0 -119.5 11t-95.5 25.5t-66.5 27.5t-30.5 18z" />
    <glyph glyph-name="afii10055" unicode="&#x406;" horiz-adv-x="307" 
d="M70 0v612q0 41 24 57.5t63 16.5q29 0 51.5 -7t28.5 -9v-670h-167z" />
    <glyph glyph-name="afii10056" unicode="&#x407;" horiz-adv-x="307" 
d="M70 0v612q0 41 24 57.5t63 16.5q29 0 51.5 -7t28.5 -9v-670h-167zM200 829q0 28 21.5 50.5t53.5 22.5t53.5 -22.5t21.5 -50.5t-21.5 -50.5t-53.5 -22.5t-53.5 22.5t-21.5 50.5zM-32 829q0 14 6 27t16.5 23.5t24.5 16.5t29 6q31 0 53 -22.5t22 -50.5t-22 -50.5t-53 -22.5
q-15 0 -29 6t-24.5 16.5t-16.5 23.5t-6 27z" />
    <glyph glyph-name="afii10057" unicode="&#x408;" horiz-adv-x="599" 
d="M123 212l13.5 -19.5t26 -27t40 -24t55.5 -10.5q56 0 83.5 27t27.5 91v363q0 41 24 57.5t63 16.5q29 0 51.5 -7t28.5 -9v-431q0 -57 -16 -104.5t-49 -81.5t-83.5 -52.5t-118.5 -18.5q-63 0 -110 17.5t-79.5 40t-50 44t-21.5 29.5z" />
    <glyph glyph-name="afii10058" unicode="&#x409;" horiz-adv-x="1089" 
d="M657 138q14 -2 33 -2.5t48 -0.5q27 0 51.5 4t43.5 14.5t30.5 27.5t11.5 44t-8.5 43t-26 24.5t-43 11t-59.5 2.5q-26 0 -46.5 -1.5t-34.5 -3.5v-163zM757 449q66 0 120 -11t92.5 -37t59 -68.5t20.5 -106.5q0 -63 -23 -108t-67 -73.5t-109 -41.5t-150 -13q-34 0 -69 1
t-64.5 2.5t-50 3.5t-26.5 3v534q-6 2 -18.5 2.5t-22.5 0.5q-25 0 -44.5 -4.5t-35 -17t-27.5 -36t-21 -61.5l-32.5 -139.5l-18.5 -81.5q-9 -40 -24.5 -91t-47.5 -106h-190q44 73 62.5 125.5t29.5 91.5q6 22 11 43.5l11 48.5l14 61.5l19 81.5q16 70 41.5 116.5t62 75
t84.5 40.5t110 12q46 0 80.5 -3.5t54.5 -7.5q13 -2 25.5 -7.5t22 -16t15.5 -26.5t6 -38v-153q18 2 41.5 3.5t58.5 1.5z" />
    <glyph glyph-name="afii10059" unicode="&#x40a;" horiz-adv-x="1102" 
d="M888 225q0 27 -8.5 43.5t-26 25.5t-43 12.5t-59.5 3.5q-26 0 -46.5 -1t-34.5 -3v-168q14 -2 33 -2.5t48 -0.5q27 0 51.5 4.5t43.5 15t30.5 27.5t11.5 43zM1062 227q0 -125 -90 -181t-259 -56q-34 0 -69 1t-64.5 2.5t-50 3.5t-26.5 3v308h-266v-308h-167v612q0 41 24 57.5
t63 16.5q29 0 51.5 -7t28.5 -9v-221h266v163q0 41 24 57.5t63 16.5q29 0 51.5 -7t28.5 -9v-221q18 2 41.5 3.5t58.5 1.5q66 0 120 -11.5t92.5 -38t59 -70t20.5 -107.5z" />
    <glyph glyph-name="afii10060" unicode="&#x40b;" horiz-adv-x="780" 
d="M195 530h-105q-46 0 -65.5 19.5t-19.5 56.5q0 27 8 49.5t13 30.5h449q46 0 65.5 -19.5t19.5 -56.5q0 -27 -8 -49.5t-13 -30.5h-176v-121q19 17 56 31t93 14q46 0 87 -11t71 -36.5t47.5 -66.5t17.5 -100v-240h-167v199q0 51 -26 74t-74 23q-49 0 -77 -27t-28 -84v-185
h-168v530z" />
    <glyph glyph-name="afii10061" unicode="&#x40c;" horiz-adv-x="703" 
d="M237 262v-262h-167v612q0 41 24 57.5t63 16.5q29 0 51.5 -7t28.5 -9v-256h21q35 0 57.5 8.5t36.5 22.5q22 22 39.5 49t32 54l27 51t26.5 42q14 19 34.5 32t56.5 13q41 0 64 -10.5t41 -24.5q-23 -44 -60.5 -108.5l-82.5 -136.5q-25 -40 -56 -68q25 -33 53.5 -74.5
l57 -86.5l55.5 -91t48 -86h-197l-82 135t-91 130q-24 -3 -49 -3h-32zM208 820l135 68q19 10 37.5 17t36.5 7q25 0 40.5 -12t24 -27t11.5 -28.5t3 -16.5l-254 -81z" />
    <glyph glyph-name="uni040D" unicode="&#x40d;" horiz-adv-x="740" 
d="M236 283l241 339q25 35 50 49.5t63 14.5q25 0 43 -4t37 -11v-671h-165v414l-43 -62l-52.5 -77.5l-56 -84l-53.5 -80l-44 -66.5t-28 -44h-157v612q0 41 24 57.5t62 16.5q28 0 50.5 -7t28.5 -9v-387zM224 828q0 3 3 16.5t11.5 28.5t24 27t40.5 12q18 0 36.5 -7t37.5 -17
l135 -68l-35 -73z" />
    <glyph glyph-name="afii10062" unicode="&#x40e;" horiz-adv-x="667" 
d="M113 -13l62.5 99l68.5 115l-66 105.5l-56 91l-42 69t-23 39.5q-10 19 -18 32.5t-14 25t-9 22.5t-3 25q0 33 17 55.5t61 22.5q26 0 48.5 -6.5t29.5 -11.5q13 -27 32 -62.5l40.5 -75.5l45 -83l47.5 -85l71 133.5l58 115.5q18 37 38.5 54.5t61.5 17.5q22 0 39 -4.5t29 -10.5
t20 -12.5t11 -10.5q-78 -169 -171.5 -337t-191.5 -324h-186zM244 911q22 -71 100 -71q80 0 100 70l95 -10q-1 -23 -10.5 -50t-31.5 -51t-59.5 -40t-93.5 -16q-57 0 -94 16t-59.5 40t-32 51t-10.5 50z" />
    <glyph glyph-name="afii10145" unicode="&#x40f;" horiz-adv-x="743" 
d="M70 612q0 41 24 57.5t63 16.5q29 0 51.5 -7t28.5 -9v-512h269v454q0 41 24 57.5t63 16.5q29 0 51.5 -7t28.5 -9v-670h-218v-180h-167v180h-218v612z" />
    <glyph glyph-name="afii10017" unicode="&#x410;" horiz-adv-x="769" 
d="M5 0l51 130.5l64.5 158l72 170.5l73.5 168q19 43 46.5 60t72.5 17q17 0 33.5 -4t29.5 -9.5t21 -10.5t10 -6q15 -25 39.5 -79l53.5 -121.5l60 -141.5l57.5 -140.5l46.5 -118l28 -73.5h-184l-24 64.5l-32 83.5h-291l-28.5 -77l-26.5 -71h-173zM467 299l-23 60.5l-25 65
l-22.5 58t-16.5 39.5q-6 -14 -16 -39.5l-22 -57l-25 -64.5l-24 -62h174z" />
    <glyph glyph-name="afii10018" unicode="&#x411;" horiz-adv-x="669" 
d="M237 438q18 2 41.5 2.5t58.5 0.5q66 0 120 -11.5t92.5 -37t59 -67.5t20.5 -102q0 -120 -90 -176.5t-259 -56.5q-34 0 -69 1t-64.5 2.5t-50 3.5t-26.5 3v591q0 95 99 95h330q46 0 65.5 -19.5t19.5 -56.5q0 -27 -8 -49.5t-13 -30.5h-326v-92zM237 138q14 -2 33 -2.5
t48 -0.5q27 0 51.5 5t43.5 15.5t30.5 27t11.5 39.5q0 46 -34.5 61t-102.5 15q-26 0 -46.5 -0.5t-34.5 -2.5v-157z" />
    <glyph glyph-name="afii10019" unicode="&#x412;" horiz-adv-x="684" 
d="M70 597q0 22 6 38t15.5 26.5t22 16t25.5 7.5q10 2 23.5 4t34 3.5t50 2.5t71.5 1q93 0 153.5 -15t96 -41.5t50 -62.5t14.5 -78q0 -31 -7.5 -55t-19 -42.5t-25.5 -31.5t-28 -21q16 -6 34 -18t33 -30.5t25 -45t10 -61.5q0 -46 -14 -83.5t-51 -64.5t-102 -41.5t-166 -14.5
q-50 0 -94 1.5t-78 3t-55 3.5t-24 2v597zM378 417q25 0 41.5 5.5t26.5 15t14 21t4 23.5q0 13 -4.5 26t-18 23t-38 16t-63.5 6q-41 0 -71.5 -2.5t-35.5 -3.5v-130h145zM233 140q5 -1 33.5 -3.5t85.5 -2.5q39 0 64 5t40 14t21 22t6 30q0 13 -4 25t-14.5 21.5t-28 15t-45.5 5.5
h-158v-132z" />
    <glyph glyph-name="afii10020" unicode="&#x413;" horiz-adv-x="583" 
d="M70 591q0 95 99 95h319q46 0 65.5 -19.5t19.5 -56.5q0 -27 -8 -49.5t-13 -30.5h-315v-530h-167v591z" />
    <glyph glyph-name="afii10021" unicode="&#x414;" horiz-adv-x="754" 
d="M737 -181h-167v181h-386v-181h-167v262q0 37 21 57t56 20l19.5 81l16 67.5l15 67t18.5 78.5q16 70 41 116.5t61 75t83.5 40.5t108.5 12q46 0 78.5 -3.5t52.5 -7.5q13 -2 25.5 -7.5t22 -16t15.5 -26.5t6 -38v-439h3q35 0 56 -20t21 -57v-262zM268 158h222v381
q-6 2 -16.5 2.5t-20.5 0.5q-26 0 -45 -5t-33.5 -19t-25.5 -38t-20 -62z" />
    <glyph glyph-name="afii10022" unicode="&#x415;" horiz-adv-x="641" 
d="M70 591q0 95 99 95h342q46 0 65.5 -19.5t19.5 -56.5q0 -27 -8 -49.5t-13 -30.5h-338v-107h261q46 0 65.5 -19.5t19.5 -56.5q0 -27 -8 -49.5t-13 -30.5h-325v-111h354v-156h-521v591z" />
    <glyph glyph-name="afii10024" unicode="&#x416;" horiz-adv-x="1047" 
d="M210 670l31.5 -54l36.5 -63l37.5 -61t35.5 -47q28 -31 77 -31h12v198q0 41 24 57.5t63 16.5q29 0 51.5 -7t28.5 -9v-256h12q49 0 77 31q19 21 36 48t32 54l29 51.5t28 42.5q14 19 34.5 32t56.5 13q41 0 64 -10.5t41 -24.5q-23 -44 -60 -108.5t-83 -136.5
q-8 -14 -23 -32.5t-37 -37.5l54 -74.5l58.5 -86.5l57 -90t48.5 -85h-197l-81.5 134.5t-90.5 130.5q-20 -3 -40 -3h-16v-262h-167v262h-16q-21 0 -40 3q-48 -62 -90.5 -130.5l-81.5 -134.5h-197q21 40 48.5 85l56.5 90l58.5 86.5l54.5 74.5q-22 19 -37 37.5t-23 32.5
l-44.5 72l-40.5 67q-11 19 -20 37.5t-9 35.5q0 35 23 51.5t55 16.5q28 0 48 -6.5t25 -9.5z" />
    <glyph glyph-name="afii10025" unicode="&#x417;" horiz-adv-x="629" 
d="M297 424q62 0 86.5 19.5t24.5 47.5q0 13 -6.5 26t-20.5 23.5t-37 16.5t-57 6q-38 0 -67 -9t-49.5 -21.5t-32.5 -26t-15 -22.5q-17 3 -32 11t-26 20t-18 26.5t-7 30.5t5.5 31.5t19.5 31.5q7 8 24 19.5t44.5 22.5t68 19t96.5 8q69 0 120.5 -16t86 -42.5t52 -62t17.5 -74.5
q0 -56 -29 -95t-68 -60q57 -23 82.5 -65.5t25.5 -92.5t-21.5 -89t-58.5 -67t-88 -42.5t-109 -14.5q-66 0 -117 9.5t-86.5 21.5t-57 24.5t-29.5 18.5l73 123q8 -6 25.5 -15t43 -17t58 -13.5t70.5 -5.5q70 0 99.5 22.5t29.5 52.5q0 34 -30.5 53t-96.5 19h-54q-45 0 -65.5 17.5
t-20.5 53.5q0 26 8 48t12 29h127z" />
    <glyph glyph-name="afii10026" unicode="&#x418;" horiz-adv-x="740" 
d="M236 283l241 339q25 35 50 49.5t63 14.5q25 0 43 -4t37 -11v-671h-165v414l-43 -62l-52.5 -77.5l-56 -84l-53.5 -80l-44 -66.5t-28 -44h-157v612q0 41 24 57.5t62 16.5q28 0 50.5 -7t28.5 -9v-387z" />
    <glyph glyph-name="afii10027" unicode="&#x419;" horiz-adv-x="740" 
d="M236 283l241 339q25 35 50 49.5t63 14.5q25 0 43 -4t37 -11v-671h-165v414l-43 -62l-52.5 -77.5l-56 -84l-53.5 -80l-44 -66.5t-28 -44h-157v612q0 41 24 57.5t62 16.5q28 0 50.5 -7t28.5 -9v-387zM269 911q22 -71 100 -71q80 0 100 70l95 -10q-1 -23 -10.5 -50
t-31.5 -51t-59.5 -40t-93.5 -16q-57 0 -94 16t-59.5 40t-32 51t-10.5 50z" />
    <glyph glyph-name="afii10028" unicode="&#x41a;" horiz-adv-x="703" 
d="M237 262v-262h-167v612q0 41 24 57.5t63 16.5q29 0 51.5 -7t28.5 -9v-256h21q35 0 57.5 8.5t36.5 22.5q22 22 39.5 49t32 54l27 51t26.5 42q14 19 34.5 32t56.5 13q41 0 64 -10.5t41 -24.5q-23 -44 -60.5 -108.5l-82.5 -136.5q-25 -40 -56 -68q25 -33 53.5 -74.5
l57 -86.5l55.5 -91t48 -86h-197l-82 135t-91 130q-24 -3 -49 -3h-32z" />
    <glyph glyph-name="afii10029" unicode="&#x41b;" horiz-adv-x="727" 
d="M453 696q46 0 80.5 -3.5t54.5 -7.5q13 -2 25.5 -7.5t22 -16t15.5 -26.5t6 -38v-597h-167v534q-6 2 -18.5 2.5t-22.5 0.5q-25 0 -44.5 -4.5t-35 -17t-27.5 -36t-21 -61.5l-32.5 -139.5l-18.5 -81.5q-9 -40 -24.5 -91t-47.5 -106h-190q44 73 62.5 125.5t29.5 91.5
q6 22 11 43.5l11 48.5l14 61.5l19 81.5q16 70 41.5 116.5t62 75t84.5 40.5t110 12z" />
    <glyph glyph-name="afii10030" unicode="&#x41c;" horiz-adv-x="904" 
d="M99 600q1 25 9.5 42t22 26.5t30.5 13.5t36 4q39 0 66 -11t36 -19l75.5 -157.5t80.5 -161.5l70.5 142l63.5 133q19 43 46.5 58.5t62.5 15.5q38 0 66.5 -10.5t36.5 -16.5l38 -659h-168l-23 410l-37 -76l-36.5 -77l-33 -72.5l-27.5 -61.5h-124q-11 27 -27.5 63l-34.5 75
l-37 77.5l-35 70.5l-22 -409h-169z" />
    <glyph glyph-name="afii10031" unicode="&#x41d;" horiz-adv-x="740" 
d="M70 0v612q0 41 24 57.5t63 16.5q29 0 51.5 -7t28.5 -9v-235h266v177q0 41 24 57.5t63 16.5q29 0 51.5 -7t28.5 -9v-670h-167v277h-266v-277h-167z" />
    <glyph glyph-name="afii10032" unicode="&#x41e;" horiz-adv-x="822" 
d="M40 343q0 76 28.5 142t78.5 114.5t118 76.5t146 28t146 -28t118 -76.5t78.5 -114.5t28.5 -142t-28.5 -142t-78.5 -114.5t-118 -76.5t-146 -28t-146 28t-118 76.5t-78.5 114.5t-28.5 142zM411 138q43 0 79 15.5t62 43.5t40.5 65t14.5 81t-14.5 81.5t-40.5 65t-62 43
t-79 15.5t-79 -15.5t-62 -43t-40.5 -65t-14.5 -81.5t14.5 -81t40.5 -65t62 -43.5t79 -15.5z" />
    <glyph glyph-name="afii10033" unicode="&#x41f;" horiz-adv-x="738" 
d="M501 0v530h-264v-530h-167v591q0 95 99 95h400q99 0 99 -95v-591h-167z" />
    <glyph glyph-name="afii10034" unicode="&#x420;" horiz-adv-x="668" 
d="M233 364l24.5 -3.5t57.5 -2.5q46 0 74.5 8.5t44.5 22.5t21.5 31.5t5.5 34.5q0 16 -4.5 33t-19.5 31.5t-43.5 24t-76.5 9.5q-35 0 -57 -1.5t-27 -2.5v-185zM70 597q0 22 6 38t15.5 26.5t22 16t25.5 7.5q10 2 23.5 4t34 3.5t50 2.5t71.5 1q90 0 150 -20.5t96.5 -54t52 -77
t15.5 -89.5q0 -53 -17 -97t-53 -75.5t-92.5 -49t-134.5 -17.5q-18 0 -35 1t-31 2t-23.5 2.5t-12.5 1.5v-223h-163v597z" />
    <glyph glyph-name="afii10035" unicode="&#x421;" horiz-adv-x="671" 
d="M660 51q-11 -8 -31.5 -19.5t-51.5 -22.5t-73 -19t-95 -8q-75 0 -142 22.5t-117.5 67.5t-80 112t-29.5 156q0 87 28.5 154.5t78 114t116 71t143.5 24.5q41 0 74 -5t58.5 -13t43.5 -17t29 -16q23 -17 33 -35.5t10 -38.5q0 -19 -7.5 -36t-18 -30.5t-21 -23t-17.5 -13.5
q-10 10 -25.5 23.5t-37.5 24.5t-50.5 19t-63.5 8q-44 0 -80 -14.5t-62.5 -42t-41 -66.5t-14.5 -88q0 -50 16 -88t44 -63.5t66.5 -38.5t83.5 -13q56 0 96.5 14t61.5 29l75 -129h2z" />
    <glyph glyph-name="afii10036" unicode="&#x422;" horiz-adv-x="667" 
d="M250 530h-160q-46 0 -65.5 19.5t-19.5 56.5q0 27 8 49.5t13 30.5h551q46 0 65.5 -19.5t19.5 -56.5q0 -27 -8 -49.5t-13 -30.5h-224v-530h-167v530z" />
    <glyph glyph-name="afii10037" unicode="&#x423;" horiz-adv-x="667" 
d="M113 -13l62.5 99l68.5 115l-66 105.5l-56 91l-42 69t-23 39.5q-10 19 -18 32.5t-14 25t-9 22.5t-3 25q0 33 17 55.5t61 22.5q26 0 48.5 -6.5t29.5 -11.5q13 -27 32 -62.5l40.5 -75.5l45 -83l47.5 -85l71 133.5l58 115.5q18 37 38.5 54.5t61.5 17.5q22 0 39 -4.5t29 -10.5
t20 -12.5t11 -10.5q-78 -169 -171.5 -337t-191.5 -324h-186z" />
    <glyph glyph-name="afii10038" unicode="&#x424;" horiz-adv-x="852" 
d="M343 -13v58q-66 9 -121.5 32.5t-96 60.5t-63 87.5t-22.5 113.5t22.5 113.5t63 87t96 59.5t121.5 32v5q0 36 23.5 52t61.5 16q28 0 50 -6.5t28 -9.5v-56q66 -9 122 -32t97 -60t64 -87.5t23 -113.5q0 -64 -23 -114.5t-64 -87.5t-97 -60t-122 -32v-58h-163zM632 339
q0 58 -30.5 94t-95.5 50v-289q65 14 95.5 50.5t30.5 94.5zM220 339q0 -57 30 -93.5t93 -50.5v288q-63 -14 -93 -50.5t-30 -93.5z" />
    <glyph glyph-name="afii10039" unicode="&#x425;" horiz-adv-x="751" 
d="M10 0l34 44.5l60 78l77.5 100l84.5 109.5l-56.5 67.5l-50.5 59.5l-40 47l-26 30q-20 23 -30.5 42.5t-10.5 37.5q0 33 22.5 51.5t58.5 18.5q26 0 42.5 -5.5t24.5 -10.5l23 -29l38 -47.5l49 -62l57 -71.5l43.5 58.5l37 49.5l27.5 37t15 20q14 18 25 29.5t23 18.5t25.5 10
t31.5 3q20 0 37.5 -5.5t31.5 -12.5t23.5 -15t13.5 -12l-31 -38.5l-55 -69l-70.5 -90l-78.5 -101.5l91 -112.5l82.5 -102l64.5 -80t37 -47.5h-203q-9 10 -26 32l-39.5 50.5l-49.5 62.5l-57 70l-53.5 -69.5l-47 -62l-37.5 -50.5t-25 -33h-193z" />
    <glyph glyph-name="afii10040" unicode="&#x426;" horiz-adv-x="770" 
d="M673 158h3q35 0 56 -20t21 -57v-262h-167v181h-516v612q0 41 24 57.5t63 16.5q29 0 51.5 -7t28.5 -9v-512h269v454q0 41 24 57.5t63 16.5q29 0 51.5 -7t28.5 -9v-512z" />
    <glyph glyph-name="afii10041" unicode="&#x427;" horiz-adv-x="679" 
d="M442 241q-35 -8 -68.5 -12t-78.5 -4q-43 0 -88.5 6.5t-82.5 30.5t-60.5 70t-23.5 125v155q0 41 24 57.5t63 16.5q29 0 51.5 -7t28.5 -9v-131q0 -47 3.5 -77.5t15.5 -49t36 -26t65 -7.5q29 0 58.5 3.5t56.5 11.5v218q0 41 24 57.5t63 16.5q29 0 51.5 -7t28.5 -9v-670h-167
v241z" />
    <glyph glyph-name="afii10042" unicode="&#x428;" horiz-adv-x="1027" 
d="M597 158h193v454q0 41 24 57.5t63 16.5q29 0 51.5 -7t28.5 -9v-670h-887v612q0 41 24 57.5t63 16.5q29 0 51.5 -7t28.5 -9v-512h193v454q0 41 24 57.5t63 16.5q29 0 51.5 -7t28.5 -9v-512z" />
    <glyph glyph-name="afii10043" unicode="&#x429;" horiz-adv-x="1053" 
d="M956 158h3q35 0 56 -20t21 -57v-262h-167v181h-800v612q0 41 24 57.5t63 16.5q29 0 51.5 -7t28.5 -9v-512h193v454q0 41 24 57.5t63 16.5q29 0 51.5 -7t28.5 -9v-512h193v454q0 41 24 57.5t63 16.5q29 0 51.5 -7t28.5 -9v-512z" />
    <glyph glyph-name="afii10044" unicode="&#x42a;" horiz-adv-x="746" 
d="M90 530q-46 0 -65.5 19.5t-19.5 56.5q0 27 8 49.5t13 30.5h189q99 0 99 -95v-127q18 2 41.5 3t58.5 1q66 0 120 -12.5t92.5 -40t59 -71.5t20.5 -108q0 -127 -90 -186.5t-259 -59.5q-34 0 -69 1t-64.5 2.5t-50 3.5t-26.5 3v530h-57zM314 138q14 -2 33 -2.5t48 -0.5
q27 0 51.5 5.5t43.5 17.5t30.5 31t11.5 46q0 53 -34.5 71.5t-102.5 18.5q-26 0 -46.5 -1t-34.5 -3v-183z" />
    <glyph glyph-name="afii10045" unicode="&#x42b;" horiz-adv-x="986" 
d="M237 464q18 2 42.5 3t60.5 1q68 0 123.5 -12.5t94.5 -40t60 -71.5t21 -108q0 -127 -92 -186.5t-267 -59.5q-35 0 -70 1t-64.5 2.5t-49.5 3.5t-26 3v612q0 41 24 57.5t63 16.5q29 0 51.5 -7t28.5 -9v-206zM237 138q14 -2 34 -2.5t50 -0.5q28 0 54 5.5t46 17.5t32 31t12 46
q0 53 -36 71.5t-108 18.5q-26 0 -48 -1t-36 -3v-183zM749 0v612q0 41 24 57.5t63 16.5q29 0 51.5 -7t28.5 -9v-670h-167z" />
    <glyph glyph-name="afii10046" unicode="&#x42c;" horiz-adv-x="679" 
d="M237 464q18 2 42.5 3t60.5 1q68 0 123.5 -12.5t94.5 -40t60 -71.5t21 -108q0 -127 -92 -186.5t-267 -59.5q-35 0 -70 1t-64.5 2.5t-49.5 3.5t-26 3v612q0 41 24 57.5t63 16.5q29 0 51.5 -7t28.5 -9v-206zM237 138q14 -2 34 -2.5t50 -0.5q28 0 54 5.5t46 17.5t32 31t12 46
q0 53 -36 71.5t-108 18.5q-26 0 -48 -1t-36 -3v-183z" />
    <glyph glyph-name="afii10047" unicode="&#x42d;" horiz-adv-x="680" 
d="M272 266q-46 0 -65.5 19.5t-19.5 56.5q0 27 8 49.5t13 30.5h244q-20 61 -69 95t-116 34q-35 0 -63.5 -8t-50.5 -19t-37.5 -24.5t-25.5 -23.5q-7 4 -17.5 13.5t-21 23t-18 30.5t-7.5 36q0 20 10 38.5t33 35.5q11 7 29 16t43.5 17t58.5 13t74 5q76 0 143 -24.5t116.5 -71
t78 -114t28.5 -154.5q0 -89 -29.5 -156t-80 -112t-117.5 -67.5t-142 -22.5q-53 0 -95 8t-73 19t-52 22.5t-31 19.5l77 129q21 -15 61.5 -29t96.5 -14q72 0 125.5 32t73.5 97h-182z" />
    <glyph glyph-name="afii10048" unicode="&#x42e;" horiz-adv-x="1135" 
d="M253 0h-167v612q0 41 24 57.5t63 16.5q29 0 51.5 -7t28.5 -9v-235h111q15 59 48.5 108.5t81 85t106 55.5t124.5 20q78 0 146 -28t118 -76.5t78.5 -114.5t28.5 -142t-28.5 -142t-78.5 -114.5t-118 -76.5t-146 -28q-70 0 -131.5 22t-109.5 61.5t-80 93.5t-44 118h-106v-277
zM724 138q43 0 79 15.5t62 43.5t40.5 65t14.5 81t-14.5 81.5t-40.5 65t-62 43t-79 15.5t-79 -15.5t-62 -43t-40.5 -65t-14.5 -81.5t14.5 -81t40.5 -65t62 -43.5t79 -15.5z" />
    <glyph glyph-name="afii10049" unicode="&#x42f;" horiz-adv-x="690" 
d="M620 0h-163v232q-3 -1 -12 -1.5t-20 -1l-21.5 -1t-16.5 -0.5h-30.5t-28.5 2q-14 -19 -32 -53l-35.5 -69.5l-31.5 -66t-18 -41.5h-191l36 74l38.5 73.5l37.5 67.5t33 56q-57 31 -82 79.5t-25 109.5q0 46 15.5 88.5t52 75.5t96.5 52.5t150 19.5q42 0 71.5 -1t50 -2.5
t34 -3.5t23.5 -4q13 -2 25.5 -7.5t22 -16t15.5 -26.5t6 -38v-597zM457 550q-5 1 -25.5 2.5t-55.5 1.5q-48 0 -77 -9t-44.5 -23t-20.5 -30.5t-5 -32.5q0 -17 5.5 -33.5t21 -29t42.5 -20t71 -7.5q23 0 38.5 0.5t25.5 1.5t15.5 2t8.5 1v176z" />
    <glyph glyph-name="afii10065" unicode="&#x430;" horiz-adv-x="582" 
d="M527 3q-6 -2 -27 -4.5t-52.5 -5.5t-72 -5t-85.5 -2q-76 0 -126 13.5t-80 36.5t-42 53.5t-12 64.5q0 92 59 131.5t187 39.5q32 0 53.5 -1t35.5 -3q0 35 -28.5 55t-94.5 20q-31 0 -54.5 -3.5t-40 -8.5t-26.5 -10t-14 -8l-8 8t-12 15.5t-11 21.5t-5 26q0 87 178 87
q58 0 109 -10.5t88.5 -36t59 -67.5t21.5 -105v-302zM366 212q-9 2 -26.5 3.5t-52.5 1.5q-30 0 -49 -5t-29.5 -13.5t-14.5 -19.5t-4 -23q0 -9 3 -19t13 -18t30 -13.5t53 -5.5q26 0 48 1.5t29 3.5v107z" />
    <glyph glyph-name="afii10066" unicode="&#x431;" horiz-adv-x="631" 
d="M210 428q28 25 66 35.5t70 10.5q63 0 109.5 -18t78 -49t47 -72.5t15.5 -87.5q0 -58 -21 -106t-58 -82.5t-88.5 -53.5t-112.5 -19q-132 0 -206.5 73t-74.5 215q0 90 25.5 159t73.5 123q26 29 56.5 50.5t66.5 38.5t77.5 31.5t89.5 29.5q17 5 38 14l38 16q14 -15 24 -34
t10 -42q0 -34 -23.5 -56.5t-76.5 -38.5q-103 -31 -156.5 -66t-67.5 -71zM201 229q0 -50 32 -82t83 -32q53 0 84 31.5t31 82.5q0 50 -31.5 83t-83.5 33q-26 0 -47 -9t-36 -24.5t-23.5 -36.5t-8.5 -46z" />
    <glyph glyph-name="afii10067" unicode="&#x432;" horiz-adv-x="609" 
d="M60 445q0 18 5.5 30.5t14.5 20.5t20 13t23 7q9 2 20.5 3.5t29.5 3t43.5 2.5t60.5 1q81 0 134 -11.5t85 -31.5t45 -47.5t13 -59.5q0 -43 -21.5 -71t-49.5 -40q14 -5 30 -12.5t29.5 -21.5t22.5 -34.5t9 -50.5q0 -35 -13 -64t-46 -49t-90 -31t-145 -11q-42 0 -80.5 1.5
t-68.5 3t-49 3t-22 1.5v445zM327 316q35 0 47 15t12 33q0 8 -3.5 16t-14 14.5t-28.5 10.5t-47 4q-20 0 -40 -0.5t-34 -2.5v-90h108zM219 112q11 -1 30 -2t53 -1q58 0 78 12.5t20 34.5q0 19 -13.5 34t-54.5 15h-113v-93z" />
    <glyph glyph-name="afii10068" unicode="&#x433;" horiz-adv-x="495" 
d="M60 418q0 92 96 92h247q45 0 63.5 -18.5t18.5 -53.5q0 -25 -7.5 -47.5t-12.5 -30.5h-244v-360h-161v418z" />
    <glyph glyph-name="afii10069" unicode="&#x434;" horiz-adv-x="657" 
d="M567 140q33 -2 53 -22t20 -55v-231h-150v168h-323v-168h-150v231q0 35 19.5 55t52.5 22l22.5 89l24.5 100q13 56 35.5 92.5t53.5 58.5t69.5 30.5t85.5 8.5q29 0 62 -3.5t47 -5.5q24 -4 39 -10.5t24 -17t12 -26.5t3 -38v-278zM286 298l-20 -91t-14 -67h154v239
q-8 1 -17 1.5t-17 0.5q-42 0 -59.5 -21.5t-26.5 -61.5z" />
    <glyph glyph-name="afii10070" unicode="&#x435;" horiz-adv-x="561" 
d="M206 188q2 -12 10.5 -23.5t24 -21.5t39.5 -16t58 -6q26 0 49 4.5t40 9.5t28 10t13 7l56 -112q-8 -5 -26.5 -14t-46.5 -18t-65.5 -15.5t-82.5 -6.5q-56 0 -105 18t-85.5 52.5t-57.5 84.5t-21 114q0 60 21 110t58 85t87 54.5t108 19.5q54 0 97 -14.5t72.5 -39.5t45 -57
t15.5 -66q0 -37 -13 -66.5t-46.5 -50t-91 -31.5t-146.5 -11h-35zM198 292q67 0 104 5t55 13t22 18t4 20q0 21 -19 36.5t-57 15.5q-27 0 -47 -9.5t-33.5 -24.5t-20.5 -34.5t-8 -39.5z" />
    <glyph glyph-name="afii10072" unicode="&#x436;" horiz-adv-x="898" 
d="M373 184h-29h-14.5t-13.5 1l-62.5 -92l-58.5 -93h-180q31 58 75 123.5l87 124.5q-20 18 -33.5 36.5l-23.5 32.5q-42 56 -58.5 85t-16.5 49q0 10 3 21.5t12 21.5t24.5 16t41.5 6q23 0 40 -6t25 -11q18 -27 29 -45l21 -33l21 -31t29 -39q14 -17 24.5 -23.5t35.5 -6.5h22
v124q0 39 22.5 55t60.5 16q28 0 50 -6.5t27 -8.5v-180h17q25 0 35.5 6.5t24.5 23.5q18 23 29 38.5t19 28.5l16 25.5t20 29.5q13 19 33 31t55 12q39 0 61.5 -10t39.5 -24l-22.5 -39.5l-20 -34l-24 -39t-35.5 -52.5l-24 -33t-34 -37l43 -62.5l42.5 -65t38 -63t30.5 -56.5h-180
q-29 46 -55.5 93t-55.5 92q-7 -1 -14 -1h-15h-24v-184h-160v184z" />
    <glyph glyph-name="afii10073" unicode="&#x437;" horiz-adv-x="559" 
d="M269 310q44 0 59 11.5t15 32.5q0 39 -95 39q-33 0 -57.5 -6t-42 -14.5t-27.5 -17.5t-13 -16q-32 5 -50 26.5t-18 47.5q0 14 4.5 26.5t18.5 24.5q7 6 21 15t37.5 17t56.5 14t79 6q121 0 188 -40.5t67 -106.5q0 -36 -22 -65t-51 -44q38 -17 60.5 -45t22.5 -74
q0 -34 -19.5 -62.5t-54 -49t-82.5 -32t-105 -11.5t-100 7t-73.5 16t-49 18.5t-26.5 15.5l55 112q25 -14 67 -27.5t108 -13.5q109 0 109 41q0 23 -20 33t-64 10h-44q-41 0 -60 14.5t-19 37.5q0 22 8 38.5t13 21.5h104z" />
    <glyph glyph-name="afii10074" unicode="&#x438;" horiz-adv-x="663" 
d="M60 0v439q0 38 23 54.5t61 16.5q27 0 49 -6.5t28 -8.5v-308l99 131l104 133q7 10 16.5 20.5t21.5 19t27.5 14t35.5 5.5q32 0 50 -5.5t28 -9.5v-495h-161v275l-109.5 -131.5l-109.5 -143.5h-163z" />
    <glyph glyph-name="afii10075" unicode="&#x439;" horiz-adv-x="663" 
d="M60 0v439q0 38 23 54.5t61 16.5q27 0 49 -6.5t28 -8.5v-308l99 131l104 133q7 10 16.5 20.5t21.5 19t27.5 14t35.5 5.5q32 0 50 -5.5t28 -9.5v-495h-161v275l-109.5 -131.5l-109.5 -143.5h-163zM255 725q22 -71 100 -71q80 0 100 70l95 -10q-1 -23 -10.5 -50t-31.5 -51
t-59.5 -40t-93.5 -16q-57 0 -94 16t-59.5 40t-32 51t-10.5 50z" />
    <glyph glyph-name="afii10076" unicode="&#x43a;" horiz-adv-x="621" 
d="M259 183h-39v-183h-160v445q0 39 22.5 55t60.5 16q28 0 50 -6.5t27 -8.5v-177h32q25 0 45.5 6.5t34.5 23.5q19 22 30 37l19.5 27.5t16 25t19.5 29.5q13 19 33 31t55 12q39 0 61.5 -10t39.5 -24l-22.5 -39.5l-20 -34l-24.5 -39t-36 -52.5q-9 -13 -24 -31t-37 -35
l91 -126.5t78 -124.5h-183q-28 45 -62 92.5l-69 92.5q-9 -1 -18.5 -1.5t-19.5 -0.5z" />
    <glyph glyph-name="afii10077" unicode="&#x43b;" horiz-adv-x="605" 
d="M350 374q-38 0 -57.5 -18t-28.5 -58q-13 -57 -22.5 -103l-14.5 -69l-15.5 -62.5t-23.5 -63.5h-173q25 51 35.5 90l19.5 74q10 38 18.5 75.5t21.5 89.5q13 56 36 92.5t54.5 58.5t71 30.5t86.5 8.5q29 0 62 -3.5t47 -5.5q24 -4 39 -10.5t24 -17t12 -26.5t3 -38v-418h-161
v372q-8 1 -17 1.5t-17 0.5z" />
    <glyph glyph-name="afii10078" unicode="&#x43c;" horiz-adv-x="743" 
d="M83 441q2 40 28.5 54.5t59.5 14.5t57 -9t32 -15l52 -103l61 -116q27 48 50.5 95.5t46.5 89.5q17 33 41.5 45.5t54.5 12.5q32 0 57.5 -9.5t33.5 -13.5l31 -487h-154l-16 265l-27 -50.5l-25 -49.5l-22.5 -45t-17.5 -37h-109l-41.5 87.5t-49.5 95.5l-16 -266h-155z" />
    <glyph glyph-name="afii10079" unicode="&#x43d;" horiz-adv-x="651" 
d="M60 439q0 39 23 55t61 16q27 0 49 -6.5t28 -8.5v-166h209v110q0 39 23 55t61 16q27 0 49 -6.5t28 -8.5v-495h-161v185h-209v-185h-161v439z" />
    <glyph glyph-name="afii10080" unicode="&#x43e;" horiz-adv-x="634" 
d="M35 255q0 58 22 107t60.5 85t89.5 56.5t110 20.5q58 0 109.5 -20.5t90 -56.5t60.5 -85t22 -107t-22 -107t-60.5 -85t-90 -56.5t-109.5 -20.5q-59 0 -110 20.5t-89.5 56.5t-60.5 85t-22 107zM317 130q25 0 46.5 9.5t37.5 26t24.5 39.5t8.5 50t-8.5 50t-24.5 39.5t-37.5 26
t-46.5 9.5q-26 0 -47 -9.5t-37 -26t-24.5 -39.5t-8.5 -50t8.5 -50t24.5 -39.5t37 -26t47 -9.5z" />
    <glyph glyph-name="afii10081" unicode="&#x43f;" horiz-adv-x="619" 
d="M55 309q0 52 20 92.5t55 67.5t81 41t99 14q52 0 98.5 -14t81 -41t54.5 -67.5t20 -92.5v-309h-161v272q0 53 -24 78.5t-69 25.5q-94 0 -94 -104v-272h-161v309z" />
    <glyph glyph-name="afii10082" unicode="&#x440;" horiz-adv-x="632" 
d="M43 -200v432q0 64 13 111t37 79q38 50 97 76t131 26q59 0 109.5 -19.5t87.5 -54.5t58 -85t21 -110q0 -61 -19.5 -110t-53 -84t-78.5 -54t-96 -19q-56 0 -92.5 17.5t-54.5 35.5v-241h-160zM317 133q50 0 82.5 34.5t32.5 88.5t-32.5 87t-82.5 33t-82.5 -32t-32.5 -88
q0 -26 8.5 -48.5t24 -39t36.5 -26t46 -9.5z" />
    <glyph glyph-name="afii10083" unicode="&#x441;" horiz-adv-x="518" 
d="M516 44q-11 -7 -29 -17t-43.5 -19t-58.5 -15.5t-73 -6.5q-54 0 -104.5 17t-88.5 50.5t-61 84t-23 117.5q0 64 22.5 114.5t61 84.5t90 52t109.5 18q53 0 99.5 -13.5t69.5 -36.5q11 -11 17.5 -23.5t6.5 -29.5t-6 -31t-15 -25t-18.5 -19.5t-16.5 -12.5q-18 18 -50 33.5
t-76 15.5q-26 0 -49.5 -8t-41 -24t-28 -40t-10.5 -55q0 -33 10.5 -56.5t28 -38.5t41.5 -22t51 -7q23 0 42.5 4.5t34.5 10.5t25 11.5t13 8.5z" />
    <glyph glyph-name="afii10084" unicode="&#x442;" horiz-adv-x="590" 
d="M10 430q0 26 8 49.5t12 30.5h468q45 0 63.5 -18.5t18.5 -53.5q0 -25 -7.5 -47.5t-12.5 -30.5h-184v-360h-161v360h-122q-45 0 -64 17t-19 53z" />
    <glyph glyph-name="afii10085" unicode="&#x443;" horiz-adv-x="620" 
d="M114 -55q4 -2 17.5 -6.5t33.5 -9t45.5 -8t52.5 -3.5q77 0 111 33t34 109q-19 -23 -58 -36.5t-78 -13.5q-46 0 -85.5 11.5t-69 35.5t-46 60.5t-16.5 86.5v235q0 39 23 55t61 16q27 0 49 -6.5t28 -8.5v-258q0 -48 22.5 -69t70.5 -21q45 0 70 26t25 80v186q0 39 23 55t61 16
q27 0 49 -6.5t28 -8.5v-424q0 -76 -20 -129.5t-57 -87t-88 -49t-114 -15.5q-44 0 -81 5t-65 11.5t-45 12.5t-20 8z" />
    <glyph glyph-name="afii10086" unicode="&#x444;" horiz-adv-x="792" 
d="M320 -13q-59 4 -110.5 24.5t-90.5 55.5t-61.5 82.5t-22.5 105.5t22.5 105.5t61.5 82.5t90.5 55.5t110.5 24.5v143q0 39 22 55t58 16q26 0 47 -6.5t26 -8.5v-200q57 -4 108.5 -24.5t90.5 -55t62 -82t23 -105.5t-22.5 -105.5t-61.5 -82.5t-90.5 -55.5t-109.5 -24.5v-187
h-153v187zM203 255q0 -26 8 -48.5t23 -40t36.5 -28t49.5 -11.5v256q-28 -1 -49.5 -11.5t-36.5 -28t-23 -40.5t-8 -48zM589 255q0 51 -30.5 88t-85.5 40v-256q55 6 85.5 41.5t30.5 86.5z" />
    </font>
</defs>
</svg>
